<svg width="130" height="40" viewBox="0 0 130 40" fill="none" xmlns="http://www.w3.org/2000/svg">
<path d="M4.06532 0H125.935C128.178 0 130 1.78804 130 4.00237V35.9976C130 38.206 128.184 40 125.935 40H4.06532C1.82218 40 0 38.212 0 35.9976V4.00237C0.00601379 1.79396 1.82218 0 4.06532 0Z" fill="black"/>
<path d="M66.0434 21.5863C63.8002 21.5863 61.972 23.2441 61.972 25.5354C61.972 27.803 63.8002 29.4845 66.0434 29.4845C68.2865 29.4845 70.1207 27.8089 70.1207 25.5354C70.1147 23.2441 68.2865 21.5863 66.0434 21.5863ZM66.0434 27.9273C64.8166 27.9273 63.7581 26.9386 63.7581 25.5354C63.7581 24.1144 64.8166 23.1434 66.0434 23.1434C67.2702 23.1434 68.3346 24.1144 68.3346 25.5354C68.3346 26.9386 67.2702 27.9273 66.0434 27.9273ZM57.161 21.5863C54.9179 21.5863 53.0897 23.2441 53.0897 25.5354C53.0897 27.803 54.9179 29.4845 57.161 29.4845C59.4042 29.4845 61.2324 27.8089 61.2324 25.5354C61.2324 23.2441 59.4042 21.5863 57.161 21.5863ZM57.161 27.9273C55.9282 27.9273 54.8698 26.9386 54.8698 25.5354C54.8698 24.1144 55.9282 23.1434 57.161 23.1434C58.3878 23.1434 59.4463 24.1144 59.4463 25.5354C59.4463 26.9386 58.3878 27.9273 57.161 27.9273ZM46.5948 22.7941V24.4697H50.7142C50.594 25.4051 50.2692 26.0978 49.7761 26.5774C49.1747 27.1576 48.2366 27.803 46.5948 27.803C44.063 27.803 42.0784 25.8137 42.0784 23.3507C42.0784 20.8877 44.063 18.8924 46.5948 18.8924C47.9659 18.8924 48.9642 19.4134 49.6979 20.0884L50.9127 18.9042C49.8843 17.951 48.5132 17.2109 46.5948 17.2109C43.1188 17.2109 40.2021 19.964 40.2021 23.3447C40.2021 26.7254 43.1248 29.4786 46.5948 29.4786C48.4711 29.4786 49.8843 28.8806 50.9909 27.7556C52.1275 26.6485 52.4823 25.0973 52.4823 23.8421C52.4823 23.4513 52.4462 23.0961 52.3921 22.7941H46.5948ZM89.8099 24.0967C89.4731 23.2145 88.4387 21.5863 86.3339 21.5863C84.2471 21.5863 82.5091 23.1849 82.5091 25.5354C82.5091 27.7438 84.2291 29.4845 86.5323 29.4845C88.3966 29.4845 89.4731 28.3773 89.9121 27.7379L88.5289 26.8439C88.0659 27.5011 87.4404 27.9333 86.5323 27.9333C85.6303 27.9333 84.9808 27.5307 84.5658 26.7373L89.9903 24.5526L89.8099 24.0967ZM84.2772 25.4111C84.2291 23.8894 85.492 23.1079 86.394 23.1079C87.1037 23.1079 87.705 23.4513 87.9035 23.9487L84.2772 25.4111ZM79.8631 29.2417H81.6492V17.6372H79.8631V29.2417ZM76.9464 22.4626H76.8862C76.4833 22.0008 75.7196 21.5863 74.7513 21.5863C72.7187 21.5863 70.8604 23.3211 70.8604 25.5472C70.8604 27.7616 72.7187 29.4786 74.7513 29.4786C75.7196 29.4786 76.4833 29.0582 76.8862 28.5845H76.9464V29.1529C76.9464 30.6627 76.1165 31.4738 74.7814 31.4738C73.6929 31.4738 73.0134 30.7101 72.7367 30.0647L71.1852 30.6923C71.6302 31.7402 72.8149 33.025 74.7814 33.025C76.8742 33.025 78.6363 31.8291 78.6363 28.9161V21.8291H76.9464V22.4626ZM74.9017 27.9273C73.6749 27.9273 72.6465 26.9267 72.6465 25.5472C72.6465 24.1559 73.6749 23.1434 74.9017 23.1434C76.1105 23.1434 77.0667 24.1559 77.0667 25.5472C77.0727 26.9267 76.1165 27.9273 74.9017 27.9273ZM98.157 17.6372H93.8932V29.2417H95.6733V24.8427H98.163C100.142 24.8427 102.078 23.4513 102.078 21.237C102.072 19.0286 100.13 17.6372 98.157 17.6372ZM98.2051 23.2323H95.6733V19.2536H98.2051C99.5342 19.2536 100.292 20.3252 100.292 21.2429C100.292 22.1369 99.5342 23.2323 98.2051 23.2323ZM109.198 21.5626C107.911 21.5626 106.576 22.1132 106.029 23.3388L107.611 23.9842C107.947 23.3388 108.573 23.1316 109.234 23.1316C110.154 23.1316 111.093 23.6704 111.105 24.6236V24.7479C110.786 24.5644 110.094 24.298 109.246 24.298C107.545 24.298 105.813 25.2098 105.813 26.909C105.813 28.4661 107.208 29.4667 108.771 29.4667C109.968 29.4667 110.63 28.9398 111.045 28.33H111.105V29.224H112.825V24.7716C112.825 22.7172 111.243 21.5626 109.198 21.5626ZM108.988 27.9214C108.404 27.9214 107.593 27.6432 107.593 26.9386C107.593 26.0387 108.603 25.6952 109.481 25.6952C110.263 25.6952 110.63 25.861 111.105 26.086C110.966 27.1577 110.016 27.9214 108.988 27.9214ZM119.085 21.8172L117.04 26.8439H116.98L114.863 21.8172H112.945L116.12 28.845L114.31 32.7586H116.168L121.064 21.8172H119.085ZM103.046 29.2417H104.832V17.6372H103.046V29.2417Z" fill="#F3F4F8"/>
<path d="M66.0434 21.5863C63.8002 21.5863 61.9721 23.2441 61.9721 25.5354C61.9721 27.803 63.8002 29.4845 66.0434 29.4845C68.2865 29.4845 70.1207 27.8089 70.1207 25.5354C70.1147 23.2441 68.2865 21.5863 66.0434 21.5863ZM66.0434 27.9273C64.8166 27.9273 63.7581 26.9386 63.7581 25.5354C63.7581 24.1144 64.8166 23.1434 66.0434 23.1434C67.2702 23.1434 68.3346 24.1144 68.3346 25.5354C68.3346 26.9386 67.2702 27.9273 66.0434 27.9273ZM57.161 21.5863C54.9179 21.5863 53.0897 23.2441 53.0897 25.5354C53.0897 27.803 54.9179 29.4845 57.161 29.4845C59.4042 29.4845 61.2324 27.8089 61.2324 25.5354C61.2324 23.2441 59.4042 21.5863 57.161 21.5863ZM57.161 27.9273C55.9282 27.9273 54.8698 26.9386 54.8698 25.5354C54.8698 24.1144 55.9282 23.1434 57.161 23.1434C58.3878 23.1434 59.4463 24.1144 59.4463 25.5354C59.4463 26.9386 58.3878 27.9273 57.161 27.9273ZM46.5948 22.7941V24.4697H50.7142C50.594 25.4051 50.2692 26.0978 49.7761 26.5774C49.1747 27.1576 48.2366 27.803 46.5948 27.803C44.063 27.803 42.0784 25.8137 42.0784 23.3507C42.0784 20.8877 44.063 18.8924 46.5948 18.8924C47.9659 18.8924 48.9642 19.4134 49.6979 20.0884L50.9127 18.9042C49.8843 17.951 48.5132 17.2109 46.5948 17.2109C43.1188 17.2109 40.2021 19.964 40.2021 23.3447C40.2021 26.7254 43.1248 29.4786 46.5948 29.4786C48.4711 29.4786 49.8843 28.8806 50.9909 27.7556C52.1275 26.6485 52.4823 25.0973 52.4823 23.8421C52.4823 23.4513 52.4462 23.0961 52.3921 22.7941H46.5948ZM89.8099 24.0967C89.4731 23.2145 88.4387 21.5863 86.3339 21.5863C84.2471 21.5863 82.5091 23.1849 82.5091 25.5354C82.5091 27.7438 84.2291 29.4845 86.5323 29.4845C88.3966 29.4845 89.4731 28.3773 89.9121 27.7379L88.5289 26.8439C88.0659 27.5011 87.4404 27.9333 86.5323 27.9333C85.6303 27.9333 84.9808 27.5307 84.5658 26.7373L89.9903 24.5526L89.8099 24.0967ZM84.2772 25.4111C84.2291 23.8894 85.492 23.1079 86.394 23.1079C87.1037 23.1079 87.705 23.4513 87.9035 23.9487L84.2772 25.4111ZM79.8631 29.2417H81.6492V17.6372H79.8631V29.2417ZM76.9464 22.4626H76.8862C76.4833 22.0008 75.7196 21.5863 74.7513 21.5863C72.7187 21.5863 70.8604 23.3211 70.8604 25.5472C70.8604 27.7616 72.7187 29.4786 74.7513 29.4786C75.7196 29.4786 76.4833 29.0582 76.8862 28.5845H76.9464V29.1529C76.9464 30.6627 76.1165 31.4738 74.7814 31.4738C73.6929 31.4738 73.0134 30.7101 72.7367 30.0647L71.1852 30.6923C71.6302 31.7402 72.8149 33.025 74.7814 33.025C76.8742 33.025 78.6363 31.8291 78.6363 28.9161V21.8291H76.9464V22.4626ZM74.9017 27.9273C73.6749 27.9273 72.6465 26.9267 72.6465 25.5472C72.6465 24.1559 73.6749 23.1434 74.9017 23.1434C76.1105 23.1434 77.0667 24.1559 77.0667 25.5472C77.0727 26.9267 76.1165 27.9273 74.9017 27.9273ZM98.157 17.6372H93.8932V29.2417H95.6733V24.8427H98.163C100.142 24.8427 102.078 23.4513 102.078 21.237C102.072 19.0286 100.13 17.6372 98.157 17.6372ZM98.2051 23.2323H95.6733V19.2536H98.2051C99.5342 19.2536 100.292 20.3252 100.292 21.2429C100.292 22.1369 99.5342 23.2323 98.2051 23.2323ZM109.198 21.5626C107.911 21.5626 106.576 22.1132 106.029 23.3388L107.611 23.9842C107.947 23.3388 108.573 23.1316 109.234 23.1316C110.154 23.1316 111.093 23.6704 111.105 24.6236V24.7479C110.786 24.5644 110.094 24.298 109.246 24.298C107.545 24.298 105.813 25.2098 105.813 26.909C105.813 28.4661 107.208 29.4667 108.771 29.4667C109.968 29.4667 110.63 28.9398 111.045 28.33H111.105V29.224H112.825V24.7716C112.825 22.7172 111.243 21.5626 109.198 21.5626ZM108.988 27.9214C108.404 27.9214 107.593 27.6432 107.593 26.9386C107.593 26.0387 108.603 25.6952 109.481 25.6952C110.263 25.6952 110.63 25.861 111.105 26.086C110.966 27.1577 110.016 27.9214 108.988 27.9214ZM119.085 21.8172L117.04 26.8439H116.98L114.863 21.8172H112.945L116.12 28.845L114.31 32.7586H116.168L121.064 21.8172H119.085ZM103.046 29.2417H104.832V17.6372H103.046V29.2417Z" stroke="#F3F4F8" stroke-width="0.1351" stroke-linecap="round" stroke-linejoin="round"/>
<path d="M11.0051 8.39526C10.7224 8.67946 10.5601 9.12351 10.5601 9.69782V30.2247C10.5601 30.7991 10.7224 31.2431 11.0051 31.5273L11.0712 31.5924L22.8883 20.0945V19.8222L11.0712 8.32422L11.0051 8.39526Z" fill="url(#paint0_linear_1914_5055)"/>
<path d="M26.8334 23.9299L22.9004 20.0933V19.821L26.8394 15.9844L26.9296 16.0317L31.5963 18.6132C32.9254 19.3473 32.9254 20.5551 31.5963 21.2893L26.9296 23.8707L26.8334 23.9299Z" fill="url(#paint1_linear_1914_5055)"/>
<path d="M26.9239 23.8765L22.8946 19.957L11.0054 31.526C11.4504 31.976 12.166 32.0352 12.9899 31.5793L26.9239 23.8765Z" fill="url(#paint2_linear_1914_5055)"/>
<path d="M26.9239 16.0395L12.9899 8.33668C12.172 7.88671 11.4504 7.94591 11.0054 8.39588L22.8946 19.9589L26.9239 16.0395Z" fill="url(#paint3_linear_1914_5055)"/>
<path d="M41.417 10.8641V10.1714C41.417 9.42542 41.6215 8.83927 42.0244 8.41299C42.4333 7.98078 42.9866 7.76172 43.6842 7.76172C44.0149 7.76172 44.3096 7.80908 44.5742 7.90974C44.8388 8.01039 45.0613 8.14064 45.2297 8.31234C45.3981 8.47811 45.5304 8.66758 45.6206 8.88072C45.7168 9.09387 45.771 9.31294 45.777 9.54976H44.8388C44.7967 9.23597 44.6704 8.99321 44.46 8.82151C44.2435 8.64981 43.9849 8.561 43.6722 8.561C43.2873 8.561 42.9746 8.69718 42.734 8.96361C42.4935 9.23004 42.3792 9.63264 42.3792 10.1714V10.8582C42.3792 11.3674 42.4874 11.77 42.6979 12.0601C42.9144 12.3502 43.2392 12.4923 43.6722 12.4923C44.027 12.4923 44.3216 12.3976 44.5381 12.2022C44.7606 12.0068 44.8689 11.7641 44.8689 11.4681V11.0832H43.6722V10.349H45.789V11.4207C45.789 11.5865 45.765 11.7522 45.7229 11.918C45.6808 12.0838 45.6026 12.2496 45.4943 12.4213C45.3861 12.5871 45.2538 12.7351 45.0974 12.8653C44.9411 12.9897 44.7366 13.0962 44.484 13.1791C44.2375 13.2561 43.9608 13.2975 43.6601 13.2975C42.9144 13.2975 42.3551 13.0785 41.9763 12.6403C41.6034 12.2022 41.417 11.6101 41.417 10.8641ZM47.4187 13.1969V7.86829H50.8406V8.65574H48.3749V10.1181H50.6902V10.8641H48.3749V12.4094H50.8406V13.1969H47.4187ZM51.9772 8.66758V7.86829H56.0726V8.66758H54.497V13.1969H53.5468V8.66758H51.9772ZM59.6508 13.1969V7.86829H60.613V13.1969H59.6508ZM61.936 8.66758V7.86829H66.0314V8.66758H64.4558V13.1969H63.5056V8.66758H61.936ZM69.3931 10.9115V10.201C69.3931 9.44318 69.5976 8.85112 70.0065 8.41891C70.4155 7.9867 70.9687 7.76764 71.6723 7.76764C72.376 7.76764 72.9292 7.9867 73.3321 8.41891C73.7351 8.85112 73.9395 9.44911 73.9395 10.201V10.9115C73.9395 11.6634 73.7351 12.2496 73.3261 12.6699C72.9232 13.0903 72.3639 13.3035 71.6543 13.3035C70.9507 13.3035 70.3914 13.0903 69.9945 12.6699C69.5976 12.2496 69.3931 11.6634 69.3931 10.9115ZM70.3613 10.9115C70.3613 11.4325 70.4816 11.8292 70.7161 12.0956C70.9567 12.3621 71.2694 12.4983 71.6663 12.4983C72.0572 12.4983 72.3699 12.3621 72.6105 12.0956C72.851 11.8233 72.9653 11.4266 72.9653 10.9115V10.1892C72.9653 9.66817 72.845 9.26557 72.6045 8.98137C72.3639 8.7031 72.0512 8.561 71.6663 8.561C71.2754 8.561 70.9567 8.7031 70.7161 8.98137C70.4756 9.26557 70.3613 9.66817 70.3613 10.1892V10.9115ZM75.5693 13.1969V7.86829H76.3992L78.8889 11.5983H78.9189V7.86829H79.833V13.1969H79.0092L76.5134 9.45503H76.4834V13.1969H75.5693Z" fill="#F3F4F8"/>
<defs>
<linearGradient id="paint0_linear_1914_5055" x1="21.7895" y1="30.4948" x2="6.21956" y2="14.494" gradientUnits="userSpaceOnUse">
<stop offset="1e-05" stop-color="#00A0FF"/>
<stop offset="0.0066" stop-color="#00A1FF"/>
<stop offset="0.2601" stop-color="#00BEFF"/>
<stop offset="0.5122" stop-color="#00D2FF"/>
<stop offset="0.7604" stop-color="#00DFFF"/>
<stop offset="1" stop-color="#00E3FF"/>
</linearGradient>
<linearGradient id="paint1_linear_1914_5055" x1="33.3259" y1="19.9587" x2="10.247" y2="19.9587" gradientUnits="userSpaceOnUse">
<stop offset="1e-05" stop-color="#FFE000"/>
<stop offset="0.4087" stop-color="#FFBD00"/>
<stop offset="0.7754" stop-color="#FFA500"/>
<stop offset="1" stop-color="#FF9C00"/>
</linearGradient>
<linearGradient id="paint2_linear_1914_5055" x1="16.8021" y1="25.547" x2="-4.31213" y2="3.84814" gradientUnits="userSpaceOnUse">
<stop offset="1e-05" stop-color="#FF3A44"/>
<stop offset="1" stop-color="#C31162"/>
</linearGradient>
<linearGradient id="paint3_linear_1914_5055" x1="0.279724" y1="30.8311" x2="9.70818" y2="21.1421" gradientUnits="userSpaceOnUse">
<stop offset="1e-05" stop-color="#32A071"/>
<stop offset="0.0685" stop-color="#2DA771"/>
<stop offset="0.4762" stop-color="#15CF74"/>
<stop offset="0.8009" stop-color="#06E775"/>
<stop offset="1" stop-color="#00F076"/>
</linearGradient>
</defs>
</svg>
