<svg width="130" height="40" viewBox="0 0 130 40" fill="none" xmlns="http://www.w3.org/2000/svg">
<path d="M4.0528 0H125.547C127.783 0 129.6 1.78803 129.6 4.00235V35.9975C129.6 38.2059 127.789 39.9999 125.547 39.9999H4.0528C1.81657 39.9999 0 38.2118 0 35.9975V4.00235C0.00599526 1.78803 1.81657 0 4.0528 0Z" fill="black"/>
<path fill-rule="evenodd" clip-rule="evenodd" d="M25.468 6.79688C25.6838 8.25335 25.0843 9.68023 24.2929 10.6927C23.4476 11.7761 21.9847 12.6169 20.5699 12.5695C20.3121 11.1722 20.9715 9.73352 21.7809 8.76845C22.6562 7.70273 24.173 6.88568 25.468 6.79688ZM29.7186 27.3119C30.4501 26.2048 30.7198 25.6482 31.2894 24.4049C27.1706 22.8596 26.5052 17.0692 30.5879 14.849C29.3409 13.3096 27.5963 12.4156 25.9476 12.4156C24.7606 12.4156 23.9452 12.7234 23.2018 13.0017C22.5843 13.2326 22.0207 13.4458 21.3313 13.4458C20.5878 13.4458 19.9284 13.2149 19.2389 12.9662C18.4835 12.6998 17.6861 12.4156 16.6969 12.4156C14.8444 12.4156 12.8719 13.5346 11.6249 15.441C9.86831 18.129 10.1681 23.1911 13.0158 27.5014C14.035 29.0407 15.3959 30.7755 17.1765 30.7932C17.914 30.7992 18.4056 30.5801 18.9391 30.3492C19.5507 30.0769 20.2101 29.7867 21.3552 29.7808C22.5063 29.7749 23.1598 30.0709 23.7593 30.3433C24.2749 30.5801 24.7605 30.7992 25.492 30.7873C27.2666 30.7755 28.6994 28.8572 29.7186 27.3119Z" fill="#F3F4F8"/>
<path d="M41.4395 8.40333V13.1991H43.1541C44.7368 13.1991 45.3124 12.1807 45.3124 10.7893C45.3124 9.38615 44.7189 8.39741 43.1541 8.39741H41.4395V8.40333ZM42.3028 9.1138H43.0522C44.0894 9.1138 44.4311 9.81244 44.4311 10.8071C44.4311 11.9912 43.9575 12.4886 43.0522 12.4886H42.3028V9.1138ZM47.3927 10.4933C47.3927 9.52233 47.8903 9.025 48.5618 9.025C49.2393 9.025 49.7309 9.52233 49.7309 10.4933V11.1446C49.7309 12.1156 49.2393 12.5774 48.5618 12.5774C47.8903 12.5774 47.3927 12.1156 47.3927 11.1446V10.4933ZM46.5234 11.1387C46.5234 12.4945 47.2968 13.2938 48.5618 13.2938C49.8268 13.2938 50.6062 12.4945 50.6062 11.1387V10.4992C50.6062 9.13748 49.8328 8.30859 48.5678 8.30859C47.3088 8.30859 46.5234 9.13748 46.5234 10.4992V11.1387ZM53.6518 13.1991L54.5871 9.74139H54.617L55.5523 13.1991H56.3377L57.6386 8.40333H56.7154L55.912 11.9261H55.876L54.9887 8.40333H54.2154L53.3281 11.9261H53.2981L52.4887 8.40333H51.5655L52.8604 13.1991H53.6518ZM59.6051 13.1991V9.8302H59.6291L61.8833 13.1991H62.6207V8.40333H61.8173V11.7603H61.7874L59.5391 8.40333H58.7957V13.1991H59.6051ZM67.2491 12.4708H65.1327V8.40333H64.2694V13.1991H67.2431V12.4708H67.2491ZM69.0716 10.4933C69.0716 9.52233 69.5692 9.025 70.2407 9.025C70.9182 9.025 71.4098 9.52233 71.4098 10.4933V11.1446C71.4098 12.1156 70.9182 12.5774 70.2407 12.5774C69.5692 12.5774 69.0716 12.1156 69.0716 11.1446V10.4933ZM68.1963 11.1387C68.1963 12.4945 68.9697 13.2938 70.2347 13.2938C71.4997 13.2938 72.2791 12.4945 72.2791 11.1387V10.4992C72.2791 9.13748 71.5057 8.30859 70.2407 8.30859C68.9817 8.30859 68.1963 9.13748 68.1963 10.4992V11.1387ZM74.0537 13.1991L74.4674 11.9083H76.146L76.5597 13.1991H77.483L75.8283 8.40333H74.8511L73.1904 13.1991H74.0537ZM75.3247 9.26182L75.9602 11.2571H74.6592L75.2947 9.26182H75.3247ZM78.664 8.40333V13.1991H80.3787C81.9614 13.1991 82.537 12.1807 82.537 10.7893C82.537 9.38615 81.9434 8.39741 80.3787 8.39741H78.664V8.40333ZM79.5214 9.1138H80.2708C81.3079 9.1138 81.6497 9.81244 81.6497 10.8071C81.6497 11.9912 81.176 12.4886 80.2708 12.4886H79.5214V9.1138ZM86.6437 10.4933C86.6437 9.52233 87.1413 9.025 87.8128 9.025C88.4903 9.025 88.9819 9.52233 88.9819 10.4933V11.1446C88.9819 12.1156 88.4903 12.5774 87.8128 12.5774C87.1413 12.5774 86.6437 12.1156 86.6437 11.1446V10.4933ZM85.7744 11.1387C85.7744 12.4945 86.5478 13.2938 87.8128 13.2938C89.0778 13.2938 89.8572 12.4945 89.8572 11.1387V10.4992C89.8572 9.13748 89.0838 8.30859 87.8188 8.30859C86.5598 8.30859 85.7744 9.13748 85.7744 10.4992V11.1387ZM92.1234 13.1991V9.8302H92.1474L94.4016 13.1991H95.139V8.40333H94.3357V11.7603H94.3057L92.0575 8.40333H91.314V13.1991H92.1234ZM100.619 13.1991V9.11972H102.034V8.39741H98.3525V9.11972H99.7614V13.1991H100.619ZM107.1 13.1991V8.40333H106.236V10.3808H104.072V8.40333H103.209V13.1991H104.072V11.0972H106.236V13.1991H107.1ZM111.818 12.4886H109.606V11.0972H111.686V10.4282H109.606V9.10788H111.818V8.39741H108.748V13.1931H111.818V12.4886Z" fill="#F3F4F8"/>
<path d="M39.8447 30.7956L44.0834 18.5339H46.5834L50.8161 30.7956H48.4599L47.4048 27.4919H43.1181L42.063 30.7956H39.8447ZM43.6038 25.84H46.9311L45.3124 20.7364H45.2285L43.6038 25.84ZM52.171 34.0046V21.287H54.2693V22.6606H54.3533C54.5511 22.2047 54.8988 21.8436 55.3904 21.5712C55.8821 21.293 56.4876 21.1568 57.207 21.1568C58.3041 21.1568 59.1794 21.5357 59.8329 22.2995C60.4924 23.0573 60.8221 24.1171 60.8221 25.4789V26.6216C60.8221 27.9833 60.4924 29.0372 59.8329 29.795C59.1794 30.5469 58.2922 30.9259 57.165 30.9259C56.4636 30.9259 55.8821 30.7897 55.4204 30.5233C54.9588 30.2509 54.6171 29.9016 54.4012 29.4635H54.3113V34.0105H52.171V34.0046ZM54.3173 26.5031C54.3173 27.2906 54.5151 27.9359 54.9108 28.4451C55.3125 28.9484 55.8461 29.197 56.5235 29.197C57.165 29.197 57.6806 28.9661 58.0583 28.4984C58.448 28.0247 58.6399 27.3379 58.6399 26.4439V25.6446C58.6399 24.7565 58.448 24.0757 58.0643 23.6079C57.6806 23.1284 57.1531 22.8915 56.4816 22.8915C55.8161 22.8915 55.2885 23.1343 54.8988 23.6198C54.5091 24.0994 54.3173 24.7388 54.3173 25.544V26.5031ZM62.7167 34.0046V21.287H64.815V22.6606H64.8989C65.0968 22.2047 65.4445 21.8436 65.9361 21.5712C66.4277 21.293 67.0332 21.1568 67.7527 21.1568C68.8498 21.1568 69.7251 21.5357 70.3786 22.2995C71.0381 23.0573 71.3678 24.1171 71.3678 25.4789V26.6216C71.3678 27.9833 71.0381 29.0372 70.3786 29.795C69.7251 30.5469 68.8378 30.9259 67.7107 30.9259C67.0093 30.9259 66.4277 30.7897 65.9661 30.5233C65.5044 30.2509 65.1627 29.9016 64.9469 29.4635H64.857V34.0105H62.7167V34.0046ZM64.863 26.5031C64.863 27.2906 65.0608 27.9359 65.4565 28.4451C65.8582 28.9484 66.3918 29.197 67.0692 29.197C67.7107 29.197 68.2263 28.9661 68.604 28.4984C68.9937 28.0247 69.1855 27.3379 69.1855 26.4439V25.6446C69.1855 24.7565 68.9937 24.0757 68.61 23.6079C68.2263 23.1284 67.6987 22.8915 67.0272 22.8915C66.3618 22.8915 65.8342 23.1343 65.4445 23.6198C65.0548 24.0994 64.863 24.7388 64.863 25.544V26.5031ZM76.0621 27.3675H78.2024C78.2504 27.9122 78.5142 28.3681 78.9818 28.7352C79.4554 29.0964 80.1029 29.274 80.9183 29.274C81.6977 29.274 82.3032 29.1082 82.7348 28.7826C83.1785 28.451 83.4003 28.007 83.4003 27.4445C83.4003 27.0005 83.2444 26.6452 82.9267 26.3847C82.6149 26.1183 82.1293 25.9111 81.4519 25.7453L79.4614 25.2716C79.0298 25.1769 78.6341 25.0467 78.2804 24.875C77.9266 24.7033 77.6029 24.4842 77.3091 24.2296C77.0154 23.9632 76.7935 23.6375 76.6257 23.2527C76.4638 22.8619 76.3799 22.4238 76.3799 21.9383C76.3799 21.1805 76.5897 20.5174 77.0094 19.9549C77.429 19.3865 77.9746 18.9662 78.6581 18.6879C79.3355 18.4096 80.0909 18.2734 80.9243 18.2734C81.7636 18.2734 82.519 18.4155 83.1905 18.6938C83.8679 18.978 84.4075 19.3924 84.8092 19.949C85.2169 20.4996 85.4267 21.139 85.4387 21.8732H83.3464C83.3044 21.3403 83.0706 20.9022 82.6569 20.5529C82.2372 20.2036 81.6557 20.0319 80.9123 20.0319C80.2168 20.0319 79.6533 20.1858 79.2276 20.4996C78.8079 20.8075 78.5981 21.2278 78.5981 21.7666C78.5981 22.5659 79.1677 23.0928 80.3068 23.3593L82.3092 23.8329C82.8068 23.9454 83.2444 24.0875 83.6221 24.2533C83.9998 24.4191 84.3416 24.6381 84.6473 24.8986C84.9651 25.1651 85.2049 25.4907 85.3668 25.8874C85.5286 26.2841 85.6126 26.74 85.6126 27.2551C85.6126 28.4392 85.1689 29.3687 84.2816 30.0378C83.4003 30.7068 82.2312 31.0443 80.7684 31.0443C80.0969 31.0443 79.4854 30.9673 78.9398 30.8193C78.4003 30.6713 77.9566 30.4759 77.6029 30.2331C77.2552 29.9963 76.9674 29.7121 76.7276 29.3865C76.4938 29.0549 76.3199 28.7293 76.218 28.3977C76.1161 28.0662 76.0681 27.7169 76.0621 27.3675ZM86.7816 23.0277V21.364H88.1606V18.9898H90.2529V21.364H92.1234V23.0277H90.2529V27.9063C90.2529 28.4037 90.3608 28.7471 90.5707 28.9306C90.7865 29.1082 91.1702 29.203 91.7097 29.203C91.9436 29.203 92.1054 29.197 92.1834 29.1852V30.7956C91.8716 30.843 91.5419 30.8667 91.1822 30.8667C90.3968 30.8667 89.7853 30.766 89.3356 30.5706C88.886 30.3752 88.5742 30.0851 88.3884 29.7003C88.2145 29.3095 88.1246 28.7885 88.1246 28.1254V23.0336H86.7816V23.0277ZM93.3704 26.367V25.692C93.3704 24.8039 93.5263 24.0224 93.8321 23.3474C94.1498 22.6725 94.6354 22.1337 95.2949 21.7311C95.9544 21.3285 96.7578 21.1272 97.699 21.1272C99.1079 21.1272 100.175 21.5416 100.912 22.3646C101.65 23.1876 102.022 24.2888 102.022 25.6802V26.361C102.022 27.7879 101.656 28.9069 100.918 29.7299C100.187 30.5469 99.1139 30.9495 97.699 30.9495C96.2841 30.9495 95.211 30.541 94.4676 29.7299C93.7361 28.9247 93.3704 27.7998 93.3704 26.367ZM95.5287 26.3137C95.5287 26.7222 95.5647 27.0893 95.6366 27.4268C95.7086 27.7642 95.8225 28.0721 95.9844 28.3622C96.1403 28.6464 96.3681 28.8655 96.6558 29.0253C96.9496 29.1852 97.2973 29.2681 97.699 29.2681C98.1007 29.2681 98.4424 29.1911 98.7362 29.0372C99.03 28.8773 99.2518 28.6523 99.4017 28.3622C99.5575 28.0721 99.6715 27.7642 99.7374 27.4268C99.8093 27.0893 99.8453 26.7222 99.8453 26.3137V25.763C99.8453 25.3486 99.8093 24.9756 99.7374 24.6381C99.6715 24.3007 99.5575 23.9928 99.4017 23.7027C99.2458 23.4126 99.018 23.1935 98.7302 23.0396C98.4424 22.8797 98.1007 22.7968 97.705 22.7968C97.3093 22.7968 96.9556 22.8797 96.6618 23.0396C96.3681 23.1994 96.1462 23.4244 95.9904 23.7145C95.8345 23.9987 95.7206 24.3066 95.6426 24.65C95.5707 24.9875 95.5347 25.3545 95.5347 25.763V26.3137H95.5287ZM103.988 30.7956V21.293H106.134V22.5245H106.218C106.584 21.6068 107.345 21.1509 108.502 21.1509C108.748 21.1509 108.988 21.1746 109.21 21.216V23.0751C109.06 23.0277 108.76 23.004 108.317 23.004C106.884 23.004 106.17 23.7382 106.17 25.2124V30.8015H103.988V30.7956ZM109.989 26.4676V25.6683C109.989 24.277 110.361 23.1757 111.098 22.3646C111.836 21.5416 112.861 21.1331 114.162 21.1331C115.487 21.1331 116.512 21.5416 117.238 22.3646C117.963 23.1876 118.329 24.2829 118.329 25.6624V26.515H112.106V26.811C112.106 27.5096 112.291 28.0958 112.669 28.5694C113.047 29.0431 113.58 29.2799 114.282 29.2799C114.833 29.2799 115.265 29.1615 115.571 28.9188C115.889 28.6819 116.08 28.3741 116.152 28.0129H118.227C118.197 28.2852 118.125 28.5517 118.017 28.8122C117.915 29.0786 117.759 29.3391 117.555 29.6056C117.351 29.872 117.1 30.097 116.812 30.2983C116.524 30.4936 116.164 30.6594 115.727 30.7838C115.289 30.9022 114.809 30.9614 114.288 30.9614C112.915 30.9614 111.854 30.5647 111.104 29.7654C110.361 28.9602 109.989 27.8649 109.989 26.4676ZM112.112 25.0822H116.242V25.0644C116.242 24.3835 116.057 23.827 115.685 23.4007C115.313 22.9744 114.815 22.7613 114.186 22.7613C113.55 22.7613 113.041 22.9744 112.669 23.4066C112.297 23.8329 112.112 24.3835 112.112 25.0585V25.0822Z" fill="#F3F4F8"/>
</svg>
