<svg width="30" height="30" viewBox="0 0 30 30" fill="none" xmlns="http://www.w3.org/2000/svg">
<g clip-path="url(#clip0_1914_5092)">
<path d="M15 0C6.71601 0 0 6.71601 0 15C0 23.284 6.71601 30 15 30C23.284 30 30 23.284 30 15C30 6.71601 23.284 0 15 0Z" fill="#002152"/>
<path d="M16.641 13.6439L23.0623 6.17969H21.5406L15.965 12.6608L11.5118 6.17969H6.37549L13.1096 15.9803L6.37549 23.8077H7.89722L13.7852 16.9634L18.4882 23.8077H23.6245L16.641 13.6439ZM8.44551 7.32524H10.7828L21.5413 22.7143H19.204L8.44551 7.32524Z" fill="#F3F4F8"/>
</g>
<defs>
<clipPath id="clip0_1914_5092">
<rect width="30" height="30" fill="white"/>
</clipPath>
</defs>
</svg>
