<svg width="88" height="88" viewBox="0 0 88 88" fill="none" xmlns="http://www.w3.org/2000/svg">
<g clip-path="url(#clip0_1897_4362)">
<path d="M46.7992 87.9217C24.2016 89.3435 6.47336 71.156 1.4991 52.3823C1.02244 50.5834 -3.861 30.9799 7.04611 14.7078C9.03834 11.7355 14.4268 3.93513 24.1491 1.12045C34.2385 -1.80048 47.4577 1.09262 50.4972 8.5965C52.6337 13.8712 48.6077 18.6283 50.8054 20.8191C54.5791 24.5807 66.4343 10.5413 75.9208 13.7311C85.0256 16.7927 89.6275 34.9444 87.477 48.943C84.6134 67.5823 68.5967 86.5502 46.7992 87.9217Z" fill="#E6EDFF"/>
<mask id="mask0_1897_4362" style="mask-type:luminance" maskUnits="userSpaceOnUse" x="0" y="0" width="88" height="88">
<path d="M46.7992 87.9217C24.2016 89.3435 6.47336 71.156 1.4991 52.3823C1.02244 50.5834 -3.861 30.9799 7.04611 14.7078C9.03834 11.7355 14.4268 3.93513 24.1491 1.12045C34.2385 -1.80048 47.4577 1.09262 50.4972 8.5965C52.6337 13.8712 48.6077 18.6283 50.8054 20.8191C54.5791 24.5807 66.4343 10.5413 75.9208 13.7311C85.0256 16.7927 89.6275 34.9444 87.477 48.943C84.6134 67.5823 68.5967 86.5502 46.7992 87.9217Z" fill="white"/>
</mask>
<g mask="url(#mask0_1897_4362)">
<path d="M0.0374188 42.372L22.019 42.2215C36.671 42.1463 51.3307 41.935 65.9821 42.0335C73.3093 42.1021 80.6366 42.1565 87.9637 42.372C87.9844 42.3725 88.0008 42.3898 88.0002 42.4107C87.9996 42.4306 87.9835 42.4466 87.9637 42.4472C80.6366 42.6627 73.3093 42.717 65.9821 42.7856C51.3307 42.8842 36.671 42.6728 22.019 42.5976L0.0374188 42.4472C0.016735 42.447 0 42.4301 0 42.4094C0.000188034 42.3887 0.0169231 42.3722 0.0374188 42.372Z" fill="white"/>
<path d="M0.0374188 44.3915L22.019 44.2411C36.671 44.1659 51.3307 43.9545 65.9821 44.053C73.3093 44.1217 80.6366 44.176 87.9637 44.3915C87.9844 44.3921 88.0008 44.4094 88.0002 44.4302C87.9996 44.4502 87.9835 44.4661 87.9637 44.4667C80.6366 44.6822 73.3093 44.7365 65.9821 44.8052C51.3307 44.9037 36.671 44.6924 22.019 44.6171L0.0374188 44.4667C0.016735 44.4665 0 44.4496 0 44.4289C0.000188034 44.4082 0.0169231 44.3917 0.0374188 44.3915Z" fill="white"/>
<path d="M0.0374188 46.4071L22.019 46.2567C36.671 46.1815 51.3307 45.9701 65.9821 46.0687C73.3093 46.1373 80.6366 46.1916 87.9637 46.4071C87.9844 46.4077 88.0008 46.425 88.0002 46.4459C87.9996 46.4658 87.9835 46.4818 87.9637 46.4823C80.6366 46.6978 73.3093 46.7522 65.9821 46.8208C51.3307 46.9193 36.671 46.708 22.019 46.6328L0.0374188 46.4823C0.016735 46.4821 0 46.4652 0 46.4445C0.000188034 46.424 0.0169231 46.4073 0.0374188 46.4071Z" fill="white"/>
<path d="M0.0374188 48.4188L22.019 48.2684C36.671 48.1932 51.3307 47.9819 65.9821 48.0804C73.3093 48.149 80.6366 48.2034 87.9637 48.4188C87.9844 48.4194 88.0008 48.4367 88.0002 48.4576C87.9996 48.4775 87.9835 48.4935 87.9637 48.4941C80.6366 48.7095 73.3093 48.7639 65.9821 48.8325C51.3307 48.931 36.671 48.7197 22.019 48.6445L0.0374188 48.4941C0.016735 48.4939 0 48.4769 0 48.4563C0.000188034 48.4356 0.0169231 48.419 0.0374188 48.4188Z" fill="white"/>
<path d="M0.0374188 50.4384L22.019 50.2879C36.671 50.2127 51.3307 50.0014 65.9821 50.0999C73.3093 50.1685 80.6366 50.2229 87.9637 50.4384C87.9844 50.4389 88.0008 50.4562 88.0002 50.4771C87.9996 50.497 87.9835 50.513 87.9637 50.5136C80.6366 50.7291 73.3093 50.7834 65.9821 50.852C51.3307 50.9506 36.671 50.7392 22.019 50.664L0.0374188 50.5136C0.016735 50.5134 0 50.4965 0 50.4758C0.000188034 50.4551 0.0169231 50.4386 0.0374188 50.4384Z" fill="white"/>
<path d="M0.0374188 52.4501L22.019 52.2997C36.671 52.2245 51.3307 52.0131 65.9821 52.1116C73.3093 52.1803 80.6366 52.2346 87.9637 52.4501C87.9844 52.4507 88.0008 52.468 88.0002 52.4888C87.9996 52.5088 87.9835 52.5247 87.9637 52.5253C80.6366 52.7408 73.3093 52.7951 65.9821 52.8638C51.3307 52.9623 36.671 52.7509 22.019 52.6757L0.0374188 52.5253C0.016735 52.5251 0 52.5082 0 52.4875C0.000188034 52.4668 0.0169231 52.4501 0.0374188 52.4501Z" fill="white"/>
<path d="M0.0374188 54.4696L22.019 54.3192C36.671 54.244 51.3307 54.0326 65.9821 54.1312C73.3093 54.1998 80.6366 54.2541 87.9637 54.4696C87.9844 54.4702 88.0008 54.4875 88.0002 54.5084C87.9996 54.5283 87.9835 54.5443 87.9637 54.5448C80.6366 54.7603 73.3093 54.8147 65.9821 54.8833C51.3307 54.9818 36.671 54.7705 22.019 54.6953L0.0374188 54.5448C0.016735 54.5447 0 54.5277 0 54.507C0.000188034 54.4864 0.0169231 54.4698 0.0374188 54.4696Z" fill="white"/>
<path d="M0.0374188 56.4892L22.019 56.3387C36.671 56.2635 51.3307 56.0522 65.9821 56.1507C73.3093 56.2193 80.6366 56.2737 87.9637 56.4892C87.9844 56.4897 88.0008 56.507 88.0002 56.5279C87.9996 56.5478 87.9835 56.5638 87.9637 56.5644C80.6366 56.7799 73.3093 56.8342 65.9821 56.9028C51.3307 57.0014 36.671 56.79 22.019 56.7148L0.0374188 56.5644C0.016735 56.5642 0 56.5473 0 56.5266C0.000188034 56.5059 0.0169231 56.4893 0.0374188 56.4892Z" fill="white"/>
<path d="M0.0374188 58.5009L22.019 58.3504C36.671 58.2752 51.3307 58.0639 65.9821 58.1624C73.3093 58.231 80.6366 58.2854 87.9637 58.5009C87.9844 58.5014 88.0008 58.5187 88.0002 58.5396C87.9996 58.5595 87.9835 58.5755 87.9637 58.5761C80.6366 58.7916 73.3093 58.8459 65.9821 58.9145C51.3307 59.0131 36.671 58.8017 22.019 58.7265L0.0374188 58.5761C0.016735 58.5759 0 58.559 0 58.5383C0.000188034 58.5176 0.0169231 58.5009 0.0374188 58.5009Z" fill="white"/>
<path d="M0.0374188 60.5204L22.019 60.37C36.671 60.2948 51.3307 60.0834 65.9821 60.1819C73.3093 60.2506 80.6366 60.3049 87.9637 60.5204C87.9844 60.521 88.0008 60.5383 88.0002 60.5591C87.9996 60.5791 87.9835 60.5951 87.9637 60.5956C80.6366 60.8111 73.3093 60.8654 65.9821 60.9341C51.3307 61.0326 36.671 60.8213 22.019 60.746L0.0374188 60.5956C0.016735 60.5954 0 60.5785 0 60.5578C0.000188034 60.5371 0.0169231 60.5206 0.0374188 60.5204Z" fill="white"/>
<path d="M0.0374204 62.5321L22.019 62.3817C36.671 62.3065 51.3307 62.0951 65.9821 62.1937C73.3093 62.2623 80.6366 62.3166 87.9637 62.5321C87.9844 62.5327 88.0008 62.55 88.0002 62.5709C87.9996 62.5908 87.9835 62.6068 87.9637 62.6073C80.6366 62.8228 73.3093 62.8772 65.9821 62.9458C51.3307 63.0443 36.671 62.833 22.019 62.7578L0.0374204 62.6073C0.0165486 62.6072 -0.000186465 62.5902 1.56915e-06 62.5695C0.000189603 62.5489 0.0169246 62.5323 0.0374204 62.5321Z" fill="white"/>
<path d="M0.0374188 64.5517L22.019 64.4012C36.671 64.326 51.3307 64.1147 65.9821 64.2132C73.3093 64.2818 80.6366 64.3362 87.9637 64.5517C87.9844 64.5522 88.0008 64.5695 88.0002 64.5904C87.9996 64.6103 87.9835 64.6263 87.9637 64.6269C80.6366 64.8424 73.3093 64.8967 65.9821 64.9653C51.3307 65.0639 36.671 64.8525 22.019 64.7773L0.0374188 64.6269C0.016735 64.6267 0 64.6098 0 64.5891C0.000188034 64.5684 0.0169231 64.5518 0.0374188 64.5517Z" fill="white"/>
<path d="M0.0374188 66.5673L22.019 66.4169C36.671 66.3416 51.3307 66.1303 65.9821 66.2288C73.3093 66.2975 80.6366 66.3518 87.9637 66.5673C87.9844 66.5678 88.0008 66.5851 88.0002 66.606C87.9996 66.6259 87.9835 66.6419 87.9637 66.6425C80.6366 66.858 73.3093 66.9123 65.9821 66.981C51.3307 67.0795 36.671 66.8681 22.019 66.7929L0.0374188 66.6425C0.016735 66.6423 0 66.6254 0 66.6047C0.000188034 66.5842 0.0169231 66.5675 0.0374188 66.5673Z" fill="white"/>
<path d="M0.0374188 68.5829L22.019 68.4325C36.671 68.3573 51.3307 68.1459 65.9821 68.2444C73.3093 68.3131 80.6366 68.3674 87.9637 68.5829C87.9844 68.5835 88.0008 68.6008 88.0002 68.6216C87.9996 68.6416 87.9835 68.6576 87.9637 68.6581C80.6366 68.8736 73.3093 68.9279 65.9821 68.9966C51.3307 69.0951 36.671 68.8838 22.019 68.8085L0.0374188 68.6581C0.016735 68.6579 0 68.641 0 68.6203C0.000188034 68.5996 0.0169231 68.5831 0.0374188 68.5829Z" fill="white"/>
<path d="M0.0374188 70.6024L22.019 70.452C36.671 70.3768 51.3307 70.1654 65.9821 70.264C73.3093 70.3326 80.6366 70.3869 87.9637 70.6024C87.9844 70.603 88.0008 70.6203 88.0002 70.6412C87.9996 70.6611 87.9835 70.6771 87.9637 70.6776C80.6366 70.8931 73.3093 70.9475 65.9821 71.0161C51.3307 71.1146 36.671 70.9033 22.019 70.8281L0.0374188 70.6776C0.016735 70.6775 0 70.6605 0 70.6399C0.000188034 70.6192 0.0169231 70.6026 0.0374188 70.6024Z" fill="white"/>
<path d="M0.0374188 72.6181L22.019 72.4676C36.671 72.3924 51.3307 72.1811 65.9821 72.2796C73.3093 72.3482 80.6366 72.4026 87.9637 72.6181C87.9844 72.6186 88.0008 72.6359 88.0002 72.6568C87.9996 72.6767 87.9835 72.6927 87.9637 72.6933C80.6366 72.9088 73.3093 72.9631 65.9821 73.0317C51.3307 73.1303 36.671 72.9189 22.019 72.8437L0.0374188 72.6933C0.016735 72.6931 0 72.6762 0 72.6555C0.000188034 72.635 0.0169231 72.6183 0.0374188 72.6181Z" fill="white"/>
<path d="M0.0374188 74.536L22.019 74.3856C36.671 74.3104 51.3307 74.099 65.9821 74.1976C73.3093 74.2662 80.6366 74.3205 87.9637 74.536C87.9844 74.5366 88.0008 74.5539 88.0002 74.5748C87.9996 74.5947 87.9835 74.6107 87.9637 74.6112C80.6366 74.8267 73.3093 74.8811 65.9821 74.9497C51.3307 75.0482 36.671 74.8369 22.019 74.7617L0.0374188 74.6112C0.016735 74.6111 0 74.5941 0 74.5734C0.000188034 74.553 0.0169231 74.5362 0.0374188 74.536Z" fill="white"/>
<path d="M0.0374188 76.4618L22.019 76.3114C36.671 76.2362 51.3307 76.0248 65.9821 76.1233C73.3093 76.192 80.6366 76.2463 87.9637 76.4618C87.9844 76.4624 88.0008 76.4797 88.0002 76.5005C87.9996 76.5205 87.9835 76.5365 87.9637 76.537C80.6366 76.7525 73.3093 76.8069 65.9821 76.8755C51.3307 76.974 36.671 76.7627 22.019 76.6875L0.0374188 76.537C0.016735 76.5368 0 76.5199 0 76.4992C0.000188034 76.4787 0.0169231 76.462 0.0374188 76.4618Z" fill="white"/>
<path d="M0.0374188 78.3798L22.019 78.2294C36.671 78.1541 51.3307 77.9428 65.9821 78.0413C73.3093 78.11 80.6366 78.1643 87.9637 78.3798C87.9844 78.3803 88.0008 78.3976 88.0002 78.4185C87.9996 78.4384 87.9835 78.4544 87.9637 78.455C80.6366 78.6705 73.3093 78.7248 65.9821 78.7935C51.3307 78.892 36.671 78.6806 22.019 78.6054L0.0374188 78.455C0.016735 78.4548 0 78.4379 0 78.4172C0.000188034 78.3967 0.0169231 78.38 0.0374188 78.3798Z" fill="white"/>
<path d="M0.0374188 80.3017L22.019 80.1512C36.671 80.076 51.3307 79.8647 65.9821 79.9632C73.3093 80.0318 80.6366 80.0862 87.9637 80.3017C87.9844 80.3022 88.0008 80.3195 88.0002 80.3404C87.9996 80.3603 87.9835 80.3763 87.9637 80.3769C80.6366 80.5924 73.3093 80.6467 65.9821 80.7153C51.3307 80.8139 36.671 80.6025 22.019 80.5273L0.0374188 80.3769C0.016735 80.3767 0 80.3598 0 80.3391C0.000188034 80.3184 0.0169231 80.3018 0.0374188 80.3017Z" fill="white"/>
<path d="M0.0374188 82.2274L22.019 82.077C36.671 82.0018 51.3307 81.7904 65.9821 81.889C73.3093 81.9576 80.6366 82.012 87.9637 82.2274C87.9844 82.228 88.0008 82.2453 88.0002 82.2662C87.9996 82.2861 87.9835 82.3021 87.9637 82.3027C80.6366 82.5181 73.3093 82.5725 65.9821 82.6411C51.3307 82.7396 36.671 82.5283 22.019 82.4531L0.0374188 82.3027C0.016735 82.3025 0 82.2855 0 82.2649C0.000188034 82.2442 0.0169231 82.2276 0.0374188 82.2274Z" fill="white"/>
<path d="M0.0374188 83.9579L22.019 83.8075C36.671 83.7323 51.3307 83.5209 65.9821 83.6194C73.3093 83.6881 80.6366 83.7424 87.9637 83.9579C87.9844 83.9585 88.0008 83.9758 88.0002 83.9966C87.9996 84.0166 87.9835 84.0326 87.9637 84.0331C80.6366 84.2486 73.3093 84.3029 65.9821 84.3716C51.3307 84.4701 36.671 84.2588 22.019 84.1835L0.0374188 84.0331C0.016735 84.0329 0 84.016 0 83.9953C0.000188034 83.9746 0.0169231 83.9581 0.0374188 83.9579Z" fill="white"/>
<path d="M0.0374188 85.8798L22.019 85.7294C36.671 85.6541 51.3307 85.4428 65.9821 85.5413C73.3093 85.61 80.6366 85.6643 87.9637 85.8798C87.9844 85.8803 88.0008 85.8976 88.0002 85.9185C87.9996 85.9384 87.9835 85.9544 87.9637 85.955C80.6366 86.1705 73.3093 86.2248 65.9821 86.2935C58.655 86.3427 51.3277 86.2589 44.0006 86.2182L22.019 86.1054L0.0374188 85.955C0.016735 85.9548 0 85.9379 0 85.9172C0.000188034 85.8965 0.0169231 85.88 0.0374188 85.8798Z" fill="white"/>
<path d="M0.0374188 40.3563L22.019 40.2059C36.671 40.1307 51.3307 39.9194 65.9821 40.0179C73.3093 40.0865 80.6366 40.1409 87.9637 40.3563C87.9844 40.3569 88.0008 40.3742 88.0002 40.3951C87.9996 40.415 87.9835 40.431 87.9637 40.4316C80.6366 40.647 73.3093 40.7014 65.9821 40.77C51.3307 40.8685 36.671 40.6572 22.019 40.582L0.0374188 40.4316C0.016735 40.4314 0 40.4144 0 40.3938C0.000188034 40.3733 0.0169231 40.3565 0.0374188 40.3563Z" fill="white"/>
<path d="M0.0374188 38.3407L22.019 38.1903C36.671 38.1151 51.3307 37.9037 65.9821 38.0023C73.3093 38.0709 80.6366 38.1252 87.9637 38.3407C87.9844 38.3413 88.0008 38.3586 88.0002 38.3795C87.9996 38.3994 87.9835 38.4154 87.9637 38.4159C80.6366 38.6314 73.3093 38.6858 65.9821 38.7544C51.3307 38.8529 36.671 38.6416 22.019 38.5664L0.0374188 38.4159C0.016735 38.4157 0 38.3988 0 38.3781C0.000188034 38.3575 0.0169231 38.3407 0.0374188 38.3407Z" fill="white"/>
<path d="M0.0374188 36.3212L22.019 36.1708C36.671 36.0955 51.3307 35.8842 65.9821 35.9827C73.3093 36.0514 80.6366 36.1057 87.9637 36.3212C87.9844 36.3218 88.0008 36.339 88.0002 36.3599C87.9996 36.3799 87.9835 36.3958 87.9637 36.3964C80.6366 36.6119 73.3093 36.6662 65.9821 36.7349C51.3307 36.8334 36.671 36.622 22.019 36.5468L0.0374188 36.3964C0.016735 36.3962 0 36.3793 0 36.3586C0.000188034 36.3379 0.0169231 36.3214 0.0374188 36.3212Z" fill="white"/>
<path d="M0.0374188 34.3095L22.019 34.159C36.671 34.0838 51.3307 33.8725 65.9821 33.971C73.3093 34.0396 80.6366 34.094 87.9637 34.3095C87.9844 34.31 88.0008 34.3273 88.0002 34.3482C87.9996 34.3681 87.9835 34.3841 87.9637 34.3847C80.6366 34.6002 73.3093 34.6545 65.9821 34.7231C51.3307 34.8217 36.671 34.6103 22.019 34.5351L0.0374188 34.3847C0.016735 34.3845 0 34.3676 0 34.3469C0.000188034 34.3262 0.0169231 34.3097 0.0374188 34.3095Z" fill="white"/>
<path d="M0.0374188 32.2899L22.019 32.1395C36.671 32.0643 51.3307 31.8529 65.9821 31.9515C73.3093 32.0201 80.6366 32.0744 87.9637 32.2899C87.9844 32.2905 88.0008 32.3078 88.0002 32.3287C87.9996 32.3486 87.9835 32.3646 87.9637 32.3651C80.6366 32.5806 73.3093 32.635 65.9821 32.7036C51.3307 32.8021 36.671 32.5908 22.019 32.5156L0.0374188 32.3651C0.016735 32.365 0 32.348 0 32.3274C0.000188034 32.3067 0.0169231 32.2899 0.0374188 32.2899Z" fill="white"/>
<path d="M0.0374188 30.2782L22.019 30.1278C36.671 30.0526 51.3307 29.8412 65.9821 29.9398C73.3093 30.0084 80.6366 30.0627 87.9637 30.2782C87.9844 30.2788 88.0008 30.2961 88.0002 30.317C87.9996 30.3369 87.9835 30.3529 87.9637 30.3534C80.6366 30.5689 73.3093 30.6233 65.9821 30.6919C51.3307 30.7904 36.671 30.5791 22.019 30.5039L0.0374188 30.3534C0.016735 30.3532 0 30.3363 0 30.3156C0.000188034 30.295 0.0169231 30.2784 0.0374188 30.2782Z" fill="white"/>
<path d="M0.0374188 28.2587L22.019 28.1083C36.671 28.033 51.3307 27.8217 65.9821 27.9202C73.3093 27.9889 80.6366 28.0432 87.9637 28.2587C87.9844 28.2592 88.0008 28.2765 88.0002 28.2974C87.9996 28.3174 87.9835 28.3333 87.9637 28.3339C80.6366 28.5494 73.3093 28.6037 65.9821 28.6724C51.3307 28.7709 36.671 28.5595 22.019 28.4843L0.0374188 28.3339C0.016735 28.3337 0 28.3168 0 28.2961C0.000188034 28.2754 0.0169231 28.2589 0.0374188 28.2587Z" fill="white"/>
<path d="M0.0374188 26.2392L22.019 26.0887C36.671 26.0135 51.3307 25.8022 65.9821 25.9007C73.3093 25.9693 80.6366 26.0237 87.9637 26.2392C87.9844 26.2397 88.0008 26.257 88.0002 26.2779C87.9996 26.2978 87.9835 26.3138 87.9637 26.3144C80.6366 26.5299 73.3093 26.5842 65.9821 26.6528C51.3307 26.7514 36.671 26.54 22.019 26.4648L0.0374188 26.3144C0.016735 26.3142 0 26.2973 0 26.2766C0.000188034 26.2561 0.0169231 26.2393 0.0374188 26.2392Z" fill="white"/>
<path d="M0.0374188 24.2274L22.019 24.077C36.671 24.0018 51.3307 23.7904 65.9821 23.889C73.3093 23.9576 80.6366 24.0119 87.9637 24.2274C87.9844 24.228 88.0008 24.2453 88.0002 24.2662C87.9996 24.2861 87.9835 24.3021 87.9637 24.3026C80.6366 24.5181 73.3093 24.5725 65.9821 24.6411C51.3307 24.7396 36.671 24.5283 22.019 24.4531L0.0374188 24.3026C0.016735 24.3025 0 24.2855 0 24.2649C0.000188034 24.2442 0.0169231 24.2276 0.0374188 24.2274Z" fill="white"/>
<path d="M0.0374188 22.2079L22.019 22.0575C36.671 21.9823 51.3307 21.7709 65.9821 21.8694C73.3093 21.9381 80.6366 21.9924 87.9637 22.2079C87.9844 22.2085 88.0008 22.2258 88.0002 22.2466C87.9996 22.2666 87.9835 22.2826 87.9637 22.2831C80.6366 22.4986 73.3093 22.5529 65.9821 22.6216C51.3307 22.7201 36.671 22.5088 22.019 22.4335L0.0374188 22.2831C0.016735 22.2829 0 22.266 0 22.2453C0.000188034 22.2246 0.0169231 22.2081 0.0374188 22.2079Z" fill="white"/>
<path d="M0.0374188 20.1962L22.019 20.0458C36.671 19.9705 51.3307 19.7592 65.9821 19.8577C73.3093 19.9264 80.6366 19.9807 87.9637 20.1962C87.9844 20.1968 88.0008 20.214 88.0002 20.2349C87.9996 20.2549 87.9835 20.2708 87.9637 20.2714C80.6366 20.4869 73.3093 20.5412 65.9821 20.6099C51.3307 20.7084 36.671 20.497 22.019 20.4218L0.0374188 20.2714C0.016735 20.2712 0 20.2543 0 20.2336C0.000188034 20.2131 0.0169231 20.1964 0.0374188 20.1962Z" fill="white"/>
<path d="M0.0374204 18.1806L22.019 18.0301C36.671 17.9549 51.3307 17.7436 65.9821 17.8421C73.3093 17.9107 80.6366 17.9651 87.9637 18.1806C87.9844 18.1811 88.0008 18.1984 88.0002 18.2193C87.9996 18.2392 87.9835 18.2552 87.9637 18.2558C80.6366 18.4713 73.3093 18.5256 65.9821 18.5942C51.3307 18.6928 36.671 18.4814 22.019 18.4062L0.0374204 18.2558C0.0165486 18.2556 -0.000186465 18.2387 1.56915e-06 18.2178C0.000189603 18.1973 0.0169246 18.1807 0.0374204 18.1806Z" fill="white"/>
<path d="M0.0374204 16.161L22.019 16.0106C36.671 15.9354 51.3307 15.724 65.9821 15.8226C73.3093 15.8912 80.6366 15.9455 87.9637 16.161C87.9844 16.1616 88.0008 16.1789 88.0002 16.1998C87.9996 16.2197 87.9835 16.2357 87.9637 16.2362C80.6366 16.4517 73.3093 16.5061 65.9821 16.5747C51.3307 16.6732 36.671 16.4619 22.019 16.3867L0.0374204 16.2362C0.0165486 16.2361 -0.000186465 16.2191 1.56915e-06 16.1984C0.000189603 16.1778 0.0169246 16.1612 0.0374204 16.161Z" fill="white"/>
<path d="M0.0374204 14.1415L22.019 13.9911C36.671 13.9159 51.3307 13.7045 65.9821 13.803C73.3093 13.8717 80.6366 13.926 87.9637 14.1415C87.9844 14.1421 88.0008 14.1594 88.0002 14.1802C87.9996 14.2002 87.9835 14.2161 87.9637 14.2167C80.6366 14.4322 73.3093 14.4865 65.9821 14.5552C51.3307 14.6537 36.671 14.4424 22.019 14.3671L0.0374204 14.2167C0.0165486 14.2167 -0.000186465 14.1996 1.56915e-06 14.1789C0.000189603 14.1582 0.0169246 14.1417 0.0374204 14.1415Z" fill="white"/>
<path d="M0.0374204 12.1298L22.019 11.9794C36.671 11.9041 51.3307 11.6928 65.9821 11.7913C73.3093 11.86 80.6366 11.9143 87.9637 12.1298C87.9844 12.1303 88.0008 12.1476 88.0002 12.1685C87.9996 12.1884 87.9835 12.2044 87.9637 12.205C80.6366 12.4205 73.3093 12.4748 65.9821 12.5435C51.3307 12.642 36.671 12.4306 22.019 12.3554L0.0374204 12.205C0.0165486 12.2048 -0.000186465 12.1879 1.56915e-06 12.167C0.000189603 12.1465 0.0169246 12.1298 0.0374204 12.1298Z" fill="white"/>
<path d="M0.0374204 10.1102L22.019 9.95982C36.671 9.88461 51.3307 9.67326 65.9821 9.77179C73.3093 9.84042 80.6366 9.89476 87.9637 10.1102C87.9844 10.1108 88.0008 10.1281 88.0002 10.149C87.9996 10.1689 87.9835 10.1849 87.9637 10.1855C80.6366 10.4009 73.3093 10.4553 65.9821 10.5239C51.3307 10.6225 36.671 10.4111 22.019 10.3359L0.0374204 10.1855C0.0165486 10.1853 -0.000186465 10.1684 1.56915e-06 10.1477C0.000189603 10.127 0.0169246 10.1104 0.0374204 10.1102Z" fill="white"/>
<path d="M0.0374204 8.09853L22.019 7.9481C36.671 7.87289 51.3307 7.66154 65.9821 7.76007C73.3093 7.8287 80.6366 7.88304 87.9637 8.09853C87.9844 8.09909 88.0008 8.11639 88.0002 8.13727C87.9996 8.1572 87.9835 8.17318 87.9637 8.17374C80.6366 8.38923 73.3093 8.44357 65.9821 8.51221C51.3307 8.61074 36.671 8.39938 22.019 8.32417L0.0374204 8.17374C0.0165486 8.17356 -0.000186465 8.15663 1.56915e-06 8.13595C0.000189603 8.11527 0.0169246 8.09872 0.0374204 8.09853Z" fill="white"/>
<path d="M0.0374204 6.079L22.019 5.92857C36.671 5.85336 51.3307 5.64201 65.9821 5.74054C73.3093 5.80917 80.6366 5.86351 87.9637 6.079C87.9844 6.07956 88.0008 6.09686 88.0002 6.11773C87.9996 6.13767 87.9835 6.15365 87.9637 6.15421C80.6366 6.3697 73.3093 6.42404 65.9821 6.49267C51.3307 6.5912 36.671 6.37985 22.019 6.30464L0.0374204 6.15421C0.0165486 6.15403 -0.000186465 6.1371 1.56915e-06 6.11623C0.000189603 6.09573 0.0169246 6.079 0.0374204 6.079Z" fill="white"/>
<path d="M0.0374204 4.06728L22.019 3.91685C36.671 3.84164 51.3307 3.63029 65.9821 3.72882C73.3093 3.79745 80.6366 3.85179 87.9637 4.06728C87.9844 4.06784 88.0008 4.08514 88.0002 4.10602C87.9996 4.12595 87.9835 4.14193 87.9637 4.14249C80.6366 4.35798 73.3093 4.41232 65.9821 4.48096C51.3307 4.57949 36.671 4.36813 22.019 4.29292L0.0374204 4.14249C0.0165486 4.14231 -0.000186465 4.12538 1.56915e-06 4.10451C0.000189603 4.08402 0.0169246 4.06747 0.0374204 4.06728Z" fill="white"/>
<path d="M0.0374204 2.04775L22.019 1.89732C36.671 1.82211 51.3307 1.61076 65.9821 1.70929C73.3093 1.77792 80.6366 1.83226 87.9637 2.04775C87.9844 2.04831 88.0008 2.06561 88.0002 2.08648C87.9996 2.10642 87.9835 2.1224 87.9637 2.12296C80.6366 2.33845 73.3093 2.39279 65.9821 2.46142C51.3307 2.55995 36.671 2.3486 22.019 2.27339L0.0374204 2.12296C0.0165486 2.12277 -0.000186465 2.10585 1.56915e-06 2.08517C0.000189603 2.06448 0.0169246 2.04794 0.0374204 2.04775Z" fill="white"/>
</g>
<path d="M69.0764 87.6258H44.873C43.8345 87.6258 42.9927 86.7839 42.9927 85.7454V82.3608C42.9927 81.3223 43.8345 80.4805 44.873 80.4805H69.0764V87.6258Z" fill="#16DBA2"/>
<path d="M44.873 85.7454V82.3608C44.873 81.3223 45.7148 80.4805 46.7534 80.4805H44.873C43.8345 80.4805 42.9927 81.3223 42.9927 82.3608V85.7454C42.9927 86.7839 43.8345 87.6258 44.873 87.6258H46.7534C45.7148 87.6258 44.873 86.7839 44.873 85.7454Z" fill="#14C679"/>
<path d="M65.0599 85.744H52.2735C52.0658 85.744 51.8975 85.5757 51.8975 85.3679V82.7354C51.8975 82.5277 52.0658 82.3594 52.2735 82.3594H65.0599V85.744Z" fill="white"/>
<path d="M47.0091 85.445C47.736 85.445 48.3253 84.8557 48.3253 84.1287C48.3253 83.4018 47.736 82.8125 47.0091 82.8125C46.2822 82.8125 45.6929 83.4018 45.6929 84.1287C45.6929 84.8557 46.2822 85.445 47.0091 85.445Z" fill="white"/>
<path d="M65.3152 80.4773H41.1118C40.0733 80.4773 39.2314 79.6355 39.2314 78.597V75.2124C39.2314 74.1739 40.0733 73.332 41.1118 73.332H65.3152V80.4773Z" fill="#FFD54F"/>
<path d="M61.2991 78.5956H48.5128C48.305 78.5956 48.1367 78.4273 48.1367 78.2195V75.587C48.1367 75.3792 48.305 75.2109 48.5128 75.2109H61.2991V78.5956Z" fill="white"/>
<path d="M43.2479 78.2965C43.9748 78.2965 44.5641 77.7072 44.5641 76.9803C44.5641 76.2534 43.9748 75.6641 43.2479 75.6641C42.5209 75.6641 41.9316 76.2534 41.9316 76.9803C41.9316 77.7072 42.5209 78.2965 43.2479 78.2965Z" fill="white"/>
<path d="M85.3669 58.4443H6.39258V10.3076C6.39258 8.23053 8.07624 6.54688 10.1533 6.54688H81.6063C83.6833 6.54688 85.3669 8.23053 85.3669 10.3076V58.4443Z" fill="#B0BEC5"/>
<path d="M9.02539 58.4446V10.3079C9.02539 9.68569 9.53139 9.17969 10.1536 9.17969H81.6066C82.2288 9.17969 82.7348 9.68569 82.7348 10.3079V58.4446H9.02539Z" fill="white"/>
<path d="M83.8632 66.1547H7.8974C5.82038 66.1547 4.13672 64.4711 4.13672 62.394V58.4453H87.6239V62.394C87.6239 64.4709 85.9402 66.1547 83.8632 66.1547Z" fill="#78909C"/>
<path d="M77.438 48.9922L79.9138 58.4509H72.5805L70.8882 51.0606L77.438 48.9922Z" fill="#FFC1B0"/>
<path d="M81.23 49.4589C81.23 49.4589 80.114 35.1228 76.6117 30.6104C74.2714 28.3807 71.1263 27.2993 67.911 27.3335L62.7205 26.8145C57.2552 26.2681 49.8632 28.2573 46.6104 33.0676L39.8311 43.0934L46.2242 50.8066L50.7557 44.2654C50.9129 45.1119 51.0744 45.9598 51.2385 46.7952C52.6802 54.1286 49.5462 58.4475 49.5462 58.4475H72.9251C72.6332 57.5132 72.4428 56.4728 72.333 55.3608L81.23 49.4589Z" fill="#FF6666"/>
<path d="M59.7949 26.7578C54.8609 27.0269 49.3108 29.0742 46.6114 33.0665L39.832 43.0923L40.91 44.3928L47.5516 34.5708C50.0808 30.8304 55.1123 28.7967 59.7949 28.3334V26.7578Z" fill="#E55C5C"/>
<path d="M61.9571 29.335C66.4225 29.335 70.0425 25.715 70.0425 21.2495C70.0425 16.7841 66.4225 13.1641 61.9571 13.1641C57.4916 13.1641 53.8716 16.7841 53.8716 21.2495C53.8716 25.715 57.4916 29.335 61.9571 29.335Z" fill="#4C4C4C"/>
<path d="M73.1881 45.7101C73.2195 45.5047 73.0786 45.313 72.8733 45.2815C72.6684 45.2509 72.4762 45.391 72.4446 45.5963C71.5872 51.192 71.5937 55.4407 72.532 58.4454H73.3406C72.4367 55.551 72.3481 51.1917 73.1881 45.7101Z" fill="#E55C5C"/>
<path d="M67.9114 27.1428L67.0925 27.061C64.9797 24.9407 64.3491 21.3905 64.5267 18.0859L58.0082 19.8409C58.0082 19.8409 59.6093 23.4648 58.6144 26.5456C57.3006 26.7116 56.1825 26.8318 54.5483 27.4807C54.9274 29.861 55.8911 33.036 61.0793 32.502C65.1098 32.087 68.034 29.9018 70.2768 27.4079C68.8081 27.1556 67.9114 27.1428 67.9114 27.1428Z" fill="#FFC1B0"/>
<path d="M58.0082 19.8409C58.0082 19.8409 59.6093 23.4648 58.6144 26.5456C57.3006 26.7116 56.1825 26.8318 54.5483 27.4807C54.8345 29.2775 55.455 31.5262 57.9734 32.2914C56.8296 31.2512 56.4473 29.7185 56.2406 28.4209C57.8747 27.772 58.9927 27.6518 60.3067 27.4858C61.3018 24.4052 59.7005 20.781 59.7005 20.781L64.5034 19.4879C64.4946 19.0188 64.5017 18.55 64.5266 18.0859L58.0082 19.8409Z" fill="#FFAC99"/>
<path d="M62.5833 23.9137C62.5833 23.9137 57.569 25.2925 55.814 18.8994C54.0591 12.5062 55.5882 9.27429 56.5662 8.43208C58.8226 6.48913 65.6544 6.80239 66.7826 15.2013C67.9035 23.5442 62.5833 23.9137 62.5833 23.9137Z" fill="#FFD7CC"/>
<path d="M56.5663 8.4355C56.5663 8.4355 65.4353 8.56092 65.2473 14.0139C65.0593 19.4669 65.1401 25.8388 67.5037 28.4925C69.2071 30.405 67.2346 38.3012 65.9998 42.5633C65.5606 44.0794 66.7695 45.563 68.3433 45.4433C71.2396 45.2231 75.1827 43.976 76.0196 38.9638C77.3755 30.843 70.6063 27.3643 70.5123 20.8772C70.4183 14.39 66.5636 4.23613 59.8883 4.14211C53.2131 4.0481 56.5663 8.4355 56.5663 8.4355Z" fill="#4C4C4C"/>
<path d="M56.504 5.73957C56.504 5.73957 51.4897 4.04726 52.1166 17.5857C52.7433 31.1242 44.8459 36.0313 50.2049 43.8255C51.4427 45.1858 53.3558 46.0137 54.9266 46.4977C56.3132 46.9249 57.7383 45.9514 57.8411 44.5041C58.1362 40.3465 58.3866 32.0194 56.4102 25.577C55.7474 23.4167 55.8147 18.9018 55.6581 17.3975C55.2884 13.8485 59.3134 14.2949 57.1623 9.02998L56.504 5.73957Z" fill="#4C4C4C"/>
<path d="M52.0852 43.8255C46.7262 36.0311 54.6237 31.1242 53.997 17.5857C53.629 9.63789 55.2051 6.94017 56.5695 6.06656L56.504 5.73957C56.504 5.73957 51.4897 4.04726 52.1166 17.5857C52.7433 31.1242 44.8459 36.0313 50.2049 43.8255C51.4427 45.1858 53.3558 46.0137 54.9266 46.4977C55.4753 46.6667 56.0287 46.6137 56.5051 46.4016C54.9967 45.9069 53.2448 45.0998 52.0852 43.8255Z" fill="#3F3F3F"/>
<path d="M60.1897 56.3061C60.7089 56.3061 61.1299 55.8852 61.1299 55.366C61.1299 54.8467 60.7089 54.4258 60.1897 54.4258C59.6704 54.4258 59.2495 54.8467 59.2495 55.366C59.2495 55.8852 59.6704 56.3061 60.1897 56.3061Z" fill="white"/>
<path d="M67.7112 52.5483C68.2304 52.5483 68.6513 52.1274 68.6513 51.6081C68.6513 51.0889 68.2304 50.668 67.7112 50.668C67.1919 50.668 66.771 51.0889 66.771 51.6081C66.771 52.1274 67.1919 52.5483 67.7112 52.5483Z" fill="white"/>
<path d="M62.0701 45.0288C62.5893 45.0288 63.0102 44.6079 63.0102 44.0886C63.0102 43.5694 62.5893 43.1484 62.0701 43.1484C61.5508 43.1484 61.1299 43.5694 61.1299 44.0886C61.1299 44.6079 61.5508 45.0288 62.0701 45.0288Z" fill="white"/>
<path d="M54.5481 50.6655C55.0673 50.6655 55.4883 50.2446 55.4883 49.7253C55.4883 49.2061 55.0673 48.7852 54.5481 48.7852C54.0288 48.7852 53.6079 49.2061 53.6079 49.7253C53.6079 50.2446 54.0288 50.6655 54.5481 50.6655Z" fill="white"/>
<path d="M46.0871 44.0835C46.6064 44.0835 47.0273 43.6625 47.0273 43.1433C47.0273 42.6241 46.6064 42.2031 46.0871 42.2031C45.5679 42.2031 45.147 42.6241 45.147 43.1433C45.147 43.6625 45.5679 44.0835 46.0871 44.0835Z" fill="white"/>
<path d="M63.0095 36.5639C63.5287 36.5639 63.9497 36.143 63.9497 35.6238C63.9497 35.1045 63.5287 34.6836 63.0095 34.6836C62.4903 34.6836 62.0693 35.1045 62.0693 35.6238C62.0693 36.143 62.4903 36.5639 63.0095 36.5639Z" fill="white"/>
<path d="M76.1721 47.8452C76.6913 47.8452 77.1123 47.4243 77.1123 46.905C77.1123 46.3858 76.6913 45.9648 76.1721 45.9648C75.6529 45.9648 75.2319 46.3858 75.2319 46.905C75.2319 47.4243 75.6529 47.8452 76.1721 47.8452Z" fill="white"/>
<path d="M42.554 23.9757C43.0619 24.8326 43.4586 26.0123 43.4353 27.5969L43.6474 27.155C43.9791 26.4644 44.9501 26.4307 45.3286 27.0969C45.4772 27.3583 45.4931 27.6744 45.3717 27.9494C44.9725 28.8524 44.0934 30.8405 44.0934 30.8405L42.7772 33.0655C43.0079 37.8207 43.3802 42.5956 43.3738 47.358L46.2242 50.7969C46.2242 50.7969 40.6199 57.3845 37.5122 53.9373C34.8991 51.0385 37.9509 32.6268 37.9509 32.6268C36.7127 30.0297 36.5756 26.6054 37.9857 24.0622C38.9719 22.2836 41.517 22.2261 42.554 23.9757Z" fill="#FFC1B0"/>
<path d="M18.8679 48.6028C18.8679 48.6028 14.9863 43.1519 13.1033 45.6018C11.1303 48.1692 18.8679 51.6037 18.8679 51.6037V48.6028Z" fill="#FFD7CC"/>
<path d="M27.4478 48.6028C27.4478 48.6028 31.3293 43.1519 33.2123 45.6018C35.1854 48.1692 27.4478 51.6037 27.4478 51.6037V48.6028Z" fill="#FFD7CC"/>
<path d="M38.296 79.4119L34.703 71.5904L40.5336 70.1172C40.5336 70.1172 41.8656 72.9377 42.3039 73.8226C47.7116 84.7376 41.3021 84.8641 39.0203 84.4633C37.3951 84.1778 30.0273 81.6741 30.0273 81.6741V78.3298L38.296 79.4119Z" fill="#FFC1B0"/>
<path d="M3.61658 48.4196C3.61658 48.4196 3.87212 54.8361 4.38696 60.2739L9.00752 60.4929C8.92366 59.9151 9.16115 58.7638 8.91934 57.4931L7.97822 48.2059L8.87364 46.0553L9.65173 43.3156C9.72581 43.0548 9.67185 42.7745 9.50657 42.5598C9.08518 42.0128 8.22286 42.1645 8.01357 42.8224L7.87969 43.2434C7.40115 39.4326 4.71865 39.6227 4.71865 39.6227C3.34544 39.7943 2.05045 41.5376 2.16421 43.97C2.29752 46.8217 3.61658 48.4196 3.61658 48.4196Z" fill="#FFC1B0"/>
<path d="M33.0333 59.4535C27.7486 55.8572 18.1179 56.0044 12.6807 60.4225C11.6211 61.2835 10.8445 62.4433 10.4153 63.7394L9.14998 55.8516L3.97754 57.5435L4.43973 67.1314C4.55386 69.4995 6.80407 71.1724 9.10467 70.5997L12.2172 69.8248V85.7394H33.9513V70.4601L36.4315 75.35L41.3027 71.6086C39.105 67.1866 37.162 62.2632 33.0333 59.4535Z" fill="#6184F2"/>
<path d="M6.32007 67.1319L5.82009 56.9414L3.97754 57.5441L4.43973 67.1319C4.55386 69.5 6.80407 71.173 9.10467 70.6002L9.13438 70.5927C7.60453 70.195 6.40262 68.846 6.32007 67.1319Z" fill="#6262EF"/>
<path d="M12.2168 70.2922V85.7391H14.0971V69.8242L12.2168 70.2922Z" fill="#6262EF"/>
<path d="M33.9511 85.7386H18.8682L33.9511 73V85.7386Z" fill="#85A6F9"/>
<path d="M19.6607 56.4243V47.5703H26.5838V56.1973C26.5838 56.7432 26.9756 57.2046 27.5117 57.3073C28.1582 57.4312 28.7898 57.5863 29.3992 57.7742C28.1266 59.911 25.7968 61.3449 23.1292 61.3449C20.5755 61.3449 18.3324 60.0302 17.0288 58.0436C17.601 57.8409 18.1888 57.6685 18.7866 57.5233C19.2971 57.3996 19.6607 56.9495 19.6607 56.4243Z" fill="#FFCDBD"/>
<path d="M31.7622 38.1403C31.7622 36.6864 30.5836 35.5078 29.1297 35.5078H20.5826C17.6784 35.5078 15.3241 37.8622 15.3241 40.7664C15.3241 41.155 15.3675 41.5336 15.4476 41.8983C14.9328 43.1177 14.6436 44.4793 14.6436 45.9164C14.6436 51.1316 18.4336 55.3593 23.109 55.3593C27.7843 55.3593 31.5745 51.1316 31.5745 45.9164C31.5745 44.4953 31.2913 43.1486 30.7872 41.9397C31.4081 40.8128 31.7622 39.5182 31.7622 38.1403Z" fill="#4C4C4C"/>
<path d="M16.5239 45.9164C16.5239 44.4791 16.8131 43.1177 17.3279 41.8983C17.2478 41.5336 17.2044 41.1552 17.2044 40.7664C17.2044 37.8622 19.5588 35.5078 22.463 35.5078H20.5826C17.6784 35.5078 15.324 37.8622 15.324 40.7664C15.324 41.155 15.3675 41.5336 15.4476 41.8983C14.9328 43.1177 14.6436 44.4793 14.6436 45.9164C14.6436 51.1316 18.4336 55.3593 23.109 55.3593C23.427 55.3593 23.7405 55.3381 24.0492 55.2999C19.8166 54.7781 16.5239 50.7771 16.5239 45.9164Z" fill="#3F3F3F"/>
<path d="M37.2301 0H12.0335C11.4103 0 10.9053 0.50506 10.9053 1.12821V12.8696C10.9053 13.4928 11.4103 13.9978 12.0335 13.9978H30.2978L34.2911 17.21L34.3058 13.9978H37.2301C37.8532 13.9978 38.3583 13.4928 38.3583 12.8696V1.12821C38.3583 0.50506 37.8532 0 37.2301 0Z" fill="#16DBA2"/>
<path d="M13.9138 0H12.0335C11.4103 0 10.9053 0.50506 10.9053 1.12821V12.8696C10.9053 13.4928 11.4103 13.9978 12.0335 13.9978H13.9138C13.2907 13.9978 12.7856 13.4928 12.7856 12.8696V1.12821C12.7856 0.50506 13.2907 0 13.9138 0Z" fill="#14C679"/>
<path d="M33.6012 4.52557H15.6627C15.4551 4.52557 15.2866 4.3571 15.2866 4.14951C15.2866 3.94192 15.4551 3.77344 15.6627 3.77344H33.6012C33.8087 3.77344 33.9772 3.94192 33.9772 4.14951C33.9772 4.3571 33.8087 4.52557 33.6012 4.52557Z" fill="white"/>
<path d="M27.6331 9.83417H15.6627C15.4551 9.83417 15.2866 9.66569 15.2866 9.4581C15.2866 9.25051 15.4551 9.08203 15.6627 9.08203H27.6331C27.8407 9.08203 28.0092 9.25051 28.0092 9.4581C28.0092 9.66569 27.8407 9.83417 27.6331 9.83417Z" fill="white"/>
<path d="M22.5641 18.8047H1.12821C0.50506 18.8047 0 19.3097 0 19.9329V30.17C0 30.7932 0.50506 31.2982 1.12821 31.2982H15.6318L19.6251 34.5104L19.6398 31.2982H22.5641C23.1872 31.2982 23.6923 30.7932 23.6923 30.17V19.9329C23.6923 19.3097 23.1872 18.8047 22.5641 18.8047Z" fill="#FFD54F"/>
<path d="M3.00855 18.8047H1.12821C0.50506 18.8047 0 19.3097 0 19.9329V30.17C0 30.7932 0.50506 31.2982 1.12821 31.2982H3.00855C2.3854 31.2982 1.88034 30.7932 1.88034 30.17V19.9329C1.88034 19.3097 2.3854 18.8047 3.00855 18.8047Z" fill="#FF9852"/>
<path d="M17.9401 22.9592H3.7623C3.55471 22.9592 3.38623 22.7907 3.38623 22.5831C3.38623 22.3755 3.55471 22.207 3.7623 22.207H17.9401C18.1477 22.207 18.3161 22.3755 18.3161 22.5831C18.3161 22.7907 18.1479 22.9592 17.9401 22.9592Z" fill="white"/>
<path d="M11.9721 27.5139H3.7623C3.55471 27.5139 3.38623 27.3454 3.38623 27.1378C3.38623 26.9302 3.55471 26.7617 3.7623 26.7617H11.9721C12.1797 26.7617 12.3481 26.9302 12.3481 27.1378C12.3481 27.3454 12.1797 27.5139 11.9721 27.5139Z" fill="white"/>
<path d="M75.721 80.1769L80.1415 84.5011L78.6067 78.5107C77.3426 73.5767 74.7904 69.0554 71.163 65.4799C69.8035 64.14 68.5932 63.2307 68.0441 63.5477C67.495 63.8647 67.6772 65.3675 68.1579 67.2149C69.4404 72.1442 72.0799 76.6151 75.721 80.1769Z" fill="#BCBCBC"/>
<path d="M78.7674 82.4956C78.6375 82.4956 78.5109 82.4283 78.4414 82.3076L70.1457 67.9392C70.0419 67.7592 70.1033 67.5292 70.2833 67.4254C70.4632 67.3216 70.6932 67.3831 70.797 67.5631L79.0927 81.9315C79.1965 82.1115 79.135 82.3414 78.9551 82.4452C78.896 82.4795 78.8313 82.4956 78.7674 82.4956Z" fill="#AAAAAA"/>
<path d="M79.9864 80.1769L75.5659 84.5011L77.1007 78.5107C78.3646 73.5767 80.917 69.0554 84.5444 65.4799C85.9038 64.14 87.1142 63.2307 87.6635 63.5477C88.2127 63.8647 88.0303 65.3675 87.5497 67.2149C86.2669 72.1442 83.6275 76.6151 79.9864 80.1769Z" fill="#BCBCBC"/>
<path d="M76.9402 82.4956C76.8765 82.4956 76.8118 82.4795 76.7525 82.4452C76.5726 82.3413 76.5111 82.1115 76.6149 81.9315L84.9106 67.5631C85.0144 67.3831 85.2443 67.3216 85.4243 67.4254C85.6042 67.5294 85.6657 67.7592 85.5619 67.9392L77.2662 82.3076C77.1967 82.4283 77.0701 82.4956 76.9402 82.4956Z" fill="#AAAAAA"/>
<path d="M76.1872 78.2868L77.8534 84.242L79.5195 78.2868C80.8918 73.3817 80.9422 68.1901 79.5885 63.2797C79.0812 61.4395 78.4878 60.0469 77.8536 60.0469C77.2193 60.0469 76.6259 61.4395 76.1186 63.2797C74.7643 68.1901 74.8147 73.3817 76.1872 78.2868Z" fill="#D6D6D6"/>
<path d="M77.8531 81.8668C77.6455 81.8668 77.4771 81.6983 77.4771 81.4907V64.8995C77.4771 64.6919 77.6455 64.5234 77.8531 64.5234C78.0607 64.5234 78.2292 64.6919 78.2292 64.8995V81.4907C78.2292 81.6985 78.0607 81.8668 77.8531 81.8668Z" fill="#BCBCBC"/>
<path d="M75.4461 87.9963H80.2609C81.157 87.9963 81.9287 87.3638 82.1047 86.4851L83.6825 78.6016H72.0244L73.6022 86.4851C73.7782 87.3638 74.5499 87.9963 75.4461 87.9963Z" fill="#FF669D"/>
<path d="M75.4825 86.4851L73.9048 78.6016H72.0244L73.6022 86.4851C73.778 87.364 74.5497 87.9963 75.4459 87.9963H77.3262C76.4301 87.9963 75.6584 87.3638 75.4825 86.4851Z" fill="#EF508D"/>
<path d="M84.623 78.9748H71.0846C70.877 78.9748 70.7085 78.8063 70.7085 78.5987C70.7085 78.3911 70.877 78.2227 71.0846 78.2227H84.623C84.8306 78.2227 84.9991 78.3911 84.9991 78.5987C84.9991 78.8063 84.8306 78.9748 84.623 78.9748Z" fill="#F47DB3"/>
</g>
<defs>
<clipPath id="clip0_1897_4362">
<rect width="88" height="88" fill="white"/>
</clipPath>
</defs>
</svg>
