<svg width="88" height="88" viewBox="0 0 88 88" fill="none" xmlns="http://www.w3.org/2000/svg">
<path d="M33.3896 85.2039L49.4991 75.3134L73.8435 71.6787C80.3043 64.2775 84.2192 54.5964 84.2192 44.0003C84.2192 20.7438 65.3661 1.89062 42.1095 1.89062C26.5527 1.89062 12.9678 10.3276 5.67664 22.8745L9.65623 35.597L0.21875 48.3192C2.0848 66.6353 15.6899 81.4767 33.3896 85.2039Z" fill="#715FD1"/>
<path d="M21.4809 22.875H5.67686C4.25494 25.3218 3.07347 27.9254 2.16219 30.6525L2.41364 32.8008L1.30642 33.556C0.453578 36.8959 0 40.3953 0 44.0008C0 45.459 0.07425 46.8999 0.218969 48.3201H21.4809L28.9862 35.2952L21.4809 22.875Z" fill="#FD77A6"/>
<path d="M39.9768 22.875H21.481V48.3199H39.9768L47.5487 36.2065L39.9768 22.875Z" fill="#FFDA4C"/>
<path d="M54.2342 22.875H39.9769C34.8512 24.828 31.2085 29.7861 31.2085 35.5974C31.2085 41.4088 34.8514 46.3667 39.977 48.3199H54.2344L61.8566 35.311L54.2342 22.875Z" fill="#FEF156"/>
<path d="M75.2772 22.875H54.2339V48.3199H75.2772C82.2746 48.3199 87.9998 42.5947 87.9998 35.5975C87.9998 28.6002 82.2746 22.875 75.2772 22.875Z" fill="#BAEE63"/>
<path d="M35.699 33.153C35.9672 31.9289 35.1922 30.7192 33.9681 30.4511C32.744 30.183 31.5344 30.958 31.2662 32.182C30.9981 33.4061 31.7731 34.6158 32.9972 34.8839C34.2212 35.152 35.4309 34.3771 35.699 33.153Z" fill="#FD8D3E"/>
<path d="M44.4845 33.0422C44.6862 31.8056 43.8473 30.6396 42.6107 30.4378C41.3741 30.2361 40.2081 31.0751 40.0064 32.3117C39.8046 33.5483 40.6436 34.7143 41.8802 34.916C43.1168 35.1177 44.2828 34.2788 44.4845 33.0422Z" fill="#FD8D3E"/>
<path d="M40.9979 38.6172H34.7174C33.9058 38.6172 33.248 39.2751 33.248 40.0865C33.248 40.8981 33.906 41.5559 34.7174 41.5559H40.9979C41.8095 41.5559 42.4673 40.898 42.4673 40.0865C42.4673 39.2751 41.8093 38.6172 40.9979 38.6172Z" fill="#FD8D3E"/>
<path d="M69.6791 42.4235C67.188 42.4235 64.8331 41.2116 63.3799 39.1816C62.9079 38.5225 63.0599 37.6057 63.719 37.1339C64.3782 36.6619 65.2953 36.8139 65.7667 37.473C66.67 38.7347 68.1326 39.4879 69.679 39.4879C71.2255 39.4879 72.688 38.7346 73.5908 37.473C74.0628 36.814 74.9792 36.6617 75.6387 37.1337C76.2979 37.6057 76.4498 38.5225 75.978 39.1816C74.5253 41.2116 72.1705 42.4235 69.6791 42.4235Z" fill="#00B7A0"/>
<path d="M66.9054 34.0985C66.4771 34.0985 66.0551 33.8991 65.7867 33.5245C65.6172 33.288 65.3549 33.1523 65.0675 33.1523C64.7802 33.1523 64.5182 33.288 64.3486 33.5245C63.9065 34.1415 63.0473 34.2836 62.4301 33.841C61.8127 33.3986 61.6711 32.5396 62.1135 31.9224C62.7957 30.9706 63.9 30.4023 65.0674 30.4023C66.2349 30.4023 67.3394 30.9706 68.0215 31.9224C68.464 32.5396 68.3223 33.3986 67.705 33.841C67.4626 34.0148 67.1826 34.0985 66.9054 34.0985Z" fill="#00B7A0"/>
<path d="M76.1282 34.0987C75.7001 34.0987 75.2783 33.8993 75.0097 33.5248C74.84 33.2881 74.5777 33.1523 74.2904 33.1523C74.003 33.1523 73.7409 33.288 73.5712 33.5245C73.1292 34.1415 72.27 34.2836 71.6528 33.841C71.0354 33.3986 70.8938 32.5396 71.3362 31.9224C72.0183 30.9706 73.1228 30.4023 74.2902 30.4023C75.4574 30.4023 76.5619 30.9706 77.2442 31.9222C77.6868 32.5393 77.5452 33.3983 76.9281 33.8409C76.6858 34.015 76.4056 34.0987 76.1282 34.0987Z" fill="#00B7A0"/>
<path d="M12.9288 38.6753C11.5294 37.4494 9.71556 36.75 7.82304 36.75C5.9307 36.75 4.11725 37.4492 2.71767 38.6752C2.01968 39.2865 2.08672 40.395 2.84125 40.935L2.87064 40.956C3.42459 41.3525 4.16915 41.2976 4.68564 40.8533C5.55051 40.1093 6.66323 39.6855 7.82304 39.6855C8.98303 39.6855 10.0956 40.1091 10.9601 40.8532C11.4764 41.2975 12.221 41.3523 12.7749 40.956L12.8048 40.9345C13.5592 40.3948 13.6266 39.2867 12.9288 38.6753Z" fill="#E2338F"/>
<path d="M5.84898 30.6598C5.60646 30.486 5.32648 30.4023 5.04925 30.4023C4.62093 30.4023 4.19898 30.6017 3.93051 30.9764C3.76104 31.2131 3.49876 31.3487 3.21139 31.3487C2.92401 31.3487 2.66207 31.2131 2.49243 30.9764C2.39911 30.8461 2.28636 30.7384 2.16209 30.6514C1.84361 31.6046 1.55709 32.5726 1.30615 33.5549C1.87265 33.9043 2.53076 34.0985 3.21121 34.0985C4.37876 34.0985 5.48323 33.5303 6.1654 32.5785C6.60798 31.9612 6.46636 31.1022 5.84898 30.6598Z" fill="#E2338F"/>
<path d="M14.2716 30.4023C13.8435 30.4023 13.4217 30.6017 13.153 30.9762C12.9834 31.2129 12.7211 31.3487 12.4339 31.3487C12.1465 31.3487 11.8844 31.2131 11.7148 30.9766C11.2727 30.3595 10.4135 30.2174 9.79632 30.66C9.17895 31.1024 9.03732 31.9614 9.47973 32.5786C10.1619 33.5305 11.2664 34.0987 12.4339 34.0987C13.6011 34.0987 14.7056 33.5305 15.3878 32.5788C15.8303 31.9618 15.6887 31.1027 15.0717 30.6602C14.829 30.486 14.5488 30.4023 14.2716 30.4023Z" fill="#E2338F"/>
<path d="M49.4991 75.3126L40.9864 74.3052L40.9833 74.3047C40.965 75.816 40.4336 77.2986 39.4831 78.4794L33.3896 85.2033C36.2032 85.7957 39.1196 86.1092 42.1096 86.1092C45.4487 86.1092 48.6963 85.7187 51.811 84.9841L49.4991 75.3126Z" fill="#FFAA7B"/>
<path d="M73.8435 71.6787C74.0907 70.6844 73.831 69.5995 73.0539 68.8631C71.7717 67.6479 69.7407 67.8578 68.7182 69.2338L69.5724 68.0841C70.4564 66.8946 70.3663 65.2064 69.2907 64.1869C68.0085 62.9717 65.9775 63.1817 64.955 64.5578C65.9079 63.2754 65.6382 61.4467 64.3559 60.4938C63.2455 59.6688 61.7267 59.7618 60.7204 60.6333L67.9315 50.4028C68.7803 49.1129 68.5194 47.3505 67.2707 46.442C65.9375 45.4719 64.0805 45.821 63.1845 47.1824L51.0833 63.0415C50.1989 64.3859 48.1152 63.818 48.0298 62.2112C47.9554 60.8121 47.9294 59.2616 48.0052 57.6762C48.1159 55.3575 46.8392 54.0725 45.3475 53.3611C43.5887 52.5222 41.6034 53.9055 41.7656 55.8473C41.8416 56.7557 42.2789 60.9006 42.0324 61.8633C41.377 64.4223 39.0775 67.9055 40.5849 71.9721C40.8667 72.7325 40.9925 73.5228 40.9831 74.3055L40.9862 74.306C40.9862 74.306 44.2489 81.5076 51.8109 84.9851C60.5062 82.9345 68.1601 78.1895 73.8435 71.6787Z" fill="#FFC7AB"/>
<path d="M65.9886 10.9258L65.8273 14.9283C65.783 16.0288 66.6391 16.9569 67.7398 17.0012C68.8403 17.0456 69.7684 16.1893 69.8128 15.0888L69.974 11.0863C70.0183 9.98582 69.1622 9.0577 68.0617 9.01335C66.9608 8.96918 66.0327 9.82529 65.9886 10.9258Z" fill="#9C92F4"/>
<path d="M59.9139 13.332L62.7818 16.1286C63.5704 16.8976 63.5864 18.1601 62.8174 18.9487C62.0484 19.7373 60.7858 19.7533 59.9973 18.9843L57.1294 16.1877C56.3408 15.4187 56.3248 14.1561 57.0938 13.3676C57.8628 12.579 59.1253 12.5632 59.9139 13.332Z" fill="#9C92F4"/>
</svg>
