<svg width="88" height="88" viewBox="0 0 88 88" fill="none" xmlns="http://www.w3.org/2000/svg">
<g clip-path="url(#clip0_1897_4589)">
<path d="M84.3458 33.793H3.6543C8.85231 16.433 24.9487 3.78125 44.0001 3.78125C63.0514 3.78125 79.1478 16.433 84.3458 33.793Z" fill="#93D0FD"/>
<path d="M43.271 35.0093V24.4249C43.271 23.3101 44.1945 22.4062 45.3335 22.4062C46.4725 22.4062 47.396 23.31 47.396 24.4249V35.0093H43.271Z" fill="#0066ED"/>
<path d="M53.7023 25.4156H44.1304C43.6558 25.4156 43.271 25.0307 43.271 24.5562V20.4472C43.271 18.3811 44.7077 16.6073 46.6915 16.2247L50.2759 15.523C50.2823 15.5217 50.3739 15.518 50.3804 15.5168C52.1081 15.1952 53.7023 16.5301 53.7023 18.2876V25.4156Z" fill="#0066ED"/>
<path d="M64.5794 25.4162H48.1727C47.6963 25.4157 47.3101 25.0312 47.3101 24.5568V18.6744C47.3101 18.6639 47.3101 18.6534 47.3102 18.6429C47.3209 17.1447 48.4298 15.8761 49.9081 15.5937L50.2893 15.5208C50.9206 15.4002 51.5564 15.3082 52.1951 15.245H52.1954C52.896 15.1755 53.5997 15.1406 54.3043 15.1406C55.6513 15.1406 56.9952 15.2678 58.3192 15.5208L62.0062 16.2252C63.9995 16.6079 65.443 18.3815 65.443 20.4476V24.5566C65.4429 25.0313 65.0563 25.4162 64.5794 25.4162Z" fill="#0077F0"/>
<path d="M61.3179 35.0093V24.4249C61.3179 23.3101 62.2414 22.4062 63.3804 22.4062C64.5194 22.4062 65.4429 23.31 65.4429 24.4249V35.0093H61.3179Z" fill="#0396FD"/>
<path d="M61.4038 20.1875V38.6914H47.3101V20.1875H61.4038Z" fill="#0077F0"/>
<path d="M60.6841 6.32689V8.3093C60.6841 11.0813 58.9012 13.4368 56.4197 14.2923V16.4414C56.4197 17.5804 55.4962 18.5039 54.3572 18.5039C53.2181 18.5039 52.2947 17.5804 52.2947 16.4414V14.2923C49.8131 13.437 48.0303 11.0815 48.0303 8.3093V6.32689C48.0303 2.83267 50.8629 0 54.3572 0C57.8514 0 60.6841 2.83267 60.6841 6.32689Z" fill="#BB5D4C"/>
<path d="M60.7412 6.19117V8.44291C60.7412 11.1305 58.8645 13.4347 56.4194 14.2911C53.9743 13.4347 52.2944 11.1305 52.2944 8.44291V6.19117C52.2944 3.50356 54.0439 1.22364 56.489 0.367188C58.9343 1.22381 60.7412 3.50356 60.7412 6.19117Z" fill="#C96E59"/>
<path d="M43.271 28.8906C43.271 27.7516 44.1747 26.8281 45.2897 26.8281H53.6686C54.7835 26.8281 55.6872 27.7516 55.6872 28.8906C55.6872 30.0296 54.7835 30.9531 53.6686 30.9531H45.2897C44.1747 30.9531 43.271 30.0296 43.271 28.8906Z" fill="#0066ED"/>
<path d="M63.3654 30.9531H54.9864C53.8715 30.9531 52.9678 30.0296 52.9678 28.8906C52.9678 27.7516 53.8715 26.8281 54.9864 26.8281H63.3654C64.4801 26.8281 65.384 27.7516 65.384 28.8906C65.384 30.0296 64.4801 30.9531 63.3654 30.9531Z" fill="#0396FD"/>
<path d="M50.2334 28.891C50.2334 28.3576 50.4316 27.8717 50.7566 27.5055C50.7798 27.4749 50.8054 27.4457 50.8332 27.4178L52.2337 26.0174C52.5694 25.6817 53.1133 25.6817 53.449 26.0174C53.6688 26.2374 53.7446 26.5468 53.6764 26.8285H53.9777C55.0925 26.8285 55.9964 27.7519 55.9964 28.891C55.9964 30.03 55.0926 30.9535 53.9777 30.9535H52.2521C51.1371 30.9535 50.2334 30.03 50.2334 28.891Z" fill="#BB5D4C"/>
<path d="M56.859 30.9535H55.1334C54.0186 30.9535 53.1147 30.03 53.1147 28.891C53.1147 27.7519 54.0185 26.8285 55.1334 26.8285H55.4347C55.3665 26.5468 55.4423 26.2374 55.6621 26.0174C55.9978 25.6817 56.5418 25.6817 56.8774 26.0174L58.2779 27.4178C58.3057 27.4457 58.3313 27.4751 58.3545 27.5055C58.6797 27.8716 58.8777 28.3576 58.8777 28.891C58.8777 30.03 57.9738 30.9535 56.859 30.9535Z" fill="#C96E59"/>
<path d="M8.48291 25.4132V31.1007C8.48291 32.2157 7.55943 33.1194 6.42041 33.1194C5.28139 33.1194 4.35791 32.2157 4.35791 31.1007V25.4132C4.35791 24.2984 5.28139 23.3945 6.42041 23.3945C7.55943 23.3945 8.48291 24.2984 8.48291 25.4132ZM24.4673 23.3945C23.3283 23.3945 22.4048 24.2983 22.4048 25.4132V36.1018C22.4048 37.2167 23.3283 38.1204 24.4673 38.1204C25.6063 38.1204 26.5298 37.2167 26.5298 36.1018V25.4132C26.5298 24.2984 25.6063 23.3945 24.4673 23.3945Z" fill="#FFA78F"/>
<path d="M14.7892 25.4156H4.35791V20.4472C4.35791 18.3811 5.79461 16.6073 7.77839 16.2247L11.3628 15.523C11.3692 15.5217 11.4608 15.518 11.4673 15.5168C13.195 15.1952 14.7892 16.5301 14.7892 18.2876V25.4156Z" fill="#FF4343"/>
<path d="M26.5298 25.4162H9.25961C8.78318 25.4157 8.39697 25.0312 8.39697 24.5568V18.6744C8.39697 18.6639 8.39697 18.6534 8.39714 18.6429C8.4078 17.1447 9.51674 15.8761 10.995 15.5937L11.3763 15.5208C12.0076 15.4002 12.6433 15.3082 13.282 15.245H13.2823C13.9829 15.1755 14.6866 15.1406 15.3913 15.1406C16.7382 15.1406 18.0821 15.2678 19.4061 15.5208L23.0931 16.2252C25.0864 16.6079 26.53 18.3815 26.53 20.4476V24.5566C26.5298 25.0313 27.0066 25.4162 26.5298 25.4162Z" fill="#FF5757"/>
<path d="M22.4907 20.1875V38.6914H8.39697V20.1875H22.4907Z" fill="#FF5757"/>
<path d="M22.3874 7.42648L22.0431 9.3788C21.6059 11.8583 19.7801 13.7439 17.5065 14.3774V16.4413C17.5065 17.5803 16.583 18.5038 15.444 18.5038C14.305 18.5038 13.3815 17.5803 13.3815 16.4413V14.1227C10.703 13.0112 9.05712 10.156 9.58151 7.18155L9.92578 5.22923C10.5325 1.78812 13.8139 -0.50968 17.2552 0.0972106C20.6965 0.703929 22.9943 3.98537 22.3874 7.42648Z" fill="#FFA78F"/>
<path d="M22.4422 7.30536L22.0513 9.52289C21.6146 11.9996 19.6984 13.8552 17.3633 14.4279C17.0517 14.5043 16.7188 14.4456 16.452 14.2672C14.4536 12.9303 13.321 10.5325 13.7577 8.05594L14.1487 5.83841C14.6153 3.19153 16.7356 1.25089 19.2922 0.832031C21.5515 2.1003 22.909 4.65866 22.4422 7.30536Z" fill="#FFBFAB"/>
<path d="M32.2302 29.6758C32.2302 30.625 31.4607 31.3945 30.5114 31.3945H16.4751C15.5258 31.3945 14.7563 30.625 14.7563 29.6758C14.7563 28.7265 15.5258 27.957 16.4751 27.957H30.5116C31.4607 27.957 32.2302 28.7265 32.2302 29.6758Z" fill="#ECECF1"/>
<path d="M18.3283 29.8879C18.1628 29.9589 17.9906 29.9924 17.8211 29.9924C17.321 29.9924 16.8452 29.6995 16.6357 29.2109L12.983 20.6878C12.7025 20.0333 13.0057 19.2756 13.66 18.9951C14.3145 18.7148 15.0721 19.0178 15.3526 19.6721L19.0053 28.1953C19.2858 28.8498 18.9826 29.6076 18.3283 29.8879Z" fill="#0066ED"/>
<path d="M4.91406 28.8672C4.91406 27.7282 5.81778 26.8047 6.93273 26.8047H15.3116C16.4266 26.8047 17.3303 27.7282 17.3303 28.8672C17.3303 30.0062 16.4266 30.9297 15.3116 30.9297H6.93273C5.81778 30.9297 4.91406 30.0062 4.91406 28.8672Z" fill="#FFA78F"/>
<path d="M13.3896 28.8675C13.3896 28.3342 13.5878 27.8483 13.9128 27.482C13.936 27.4514 13.9616 27.4222 13.9895 27.3944L15.3899 25.9939C15.7256 25.6583 16.2696 25.6583 16.6053 25.9939C16.8251 26.2139 16.9009 26.5233 16.8326 26.805H17.1339C18.2487 26.805 19.1526 27.7285 19.1526 28.8675C19.1526 30.0065 18.2489 30.93 17.1339 30.93H15.4083C14.2934 30.93 13.3896 30.0065 13.3896 28.8675Z" fill="#FFBFAB"/>
<path d="M86.1094 35.0625V53.8828C86.1094 54.3574 85.7245 54.7422 85.25 54.7422H44.3438V77.5156C44.3438 77.9902 43.9589 78.375 43.4844 78.375L17.2033 77.4572C17.0455 77.3269 16.8888 77.1954 16.7329 77.0629C16.655 76.9967 16.5773 77.848 16.5 77.7812C7.55322 70.0593 1.89062 58.6362 1.89062 45.8906C1.89062 41.8354 2.46383 37.9141 3.53375 34.2031H85.25C85.7245 34.2031 86.1094 34.588 86.1094 35.0625Z" fill="#955B50"/>
<path d="M88 31.7109V35.1484C88 35.623 87.6152 36.0078 87.1406 36.0078H0.859375C0.384828 36.0078 0 35.623 0 35.1484V31.7109C0 31.2364 0.384828 30.8516 0.859375 30.8516H87.1406C87.6152 30.8516 88 31.2364 88 31.7109Z" fill="#AC695D"/>
<path d="M61.1377 44.9327V50.6202C61.1377 51.7352 60.2142 52.6389 59.0752 52.6389C57.9362 52.6389 57.0127 51.7352 57.0127 50.6202V44.9327C57.0127 43.818 57.9362 42.9141 59.0752 42.9141C60.2142 42.9141 61.1377 43.8178 61.1377 44.9327ZM77.1221 42.9141C75.9831 42.9141 75.0596 43.8178 75.0596 44.9327V55.6213C75.0596 56.7363 75.9831 57.64 77.1221 57.64C78.2611 57.64 79.1846 56.7363 79.1846 55.6213V44.9327C79.1846 43.8178 78.2611 42.9141 77.1221 42.9141Z" fill="#F6A96C"/>
<path d="M67.444 37.7869V44.9328H57.0127V39.9644C57.0127 37.8983 58.4494 36.1246 60.4332 35.742L63.8554 35.0711L64.122 35.034C65.8474 34.7078 67.444 36.0311 67.444 37.7869Z" fill="#00C53B"/>
<path d="M79.1846 44.9335H75.1455V58.2086H61.0518V38.1917C61.0518 38.1812 61.0518 38.1707 61.0519 38.1602C61.0604 36.9815 61.7484 35.9449 62.7614 35.4188C63.0361 35.2762 63.4097 35.6397 63.7249 35.5795L64.3392 35.4259C64.9705 35.3052 65.0061 35.3136 65.6448 35.2504C65.6448 35.2504 65.9737 35.2176 65.9739 35.2174C66.6745 35.1479 67.3429 35.1736 68.0474 35.1736C69.3944 35.1736 70.4098 35.0524 71.7336 35.3052L72.6513 35.4805L73.6426 35.3403L75.7476 35.7425C77.7408 36.1252 79.1844 37.8988 79.1844 39.9649L79.1846 44.9335Z" fill="#4BCD5C"/>
<path d="M62.5435 35.3273L64.0314 35.0364C64.6627 34.9158 65.2984 34.8238 65.9371 34.7606H65.9375C66.638 34.6911 67.3417 34.6562 68.0464 34.6562C69.3934 34.6562 70.7373 34.7834 72.0612 35.0364L73.6433 35.3386L68.7069 40.2748C68.3712 40.6105 67.8272 40.6105 67.4916 40.2748L62.5435 35.3273Z" fill="#ECECF1"/>
<path d="M75.0421 26.9421L74.6978 28.8944C74.2606 31.3739 72.4347 33.2595 70.1612 33.8931V35.9569C70.1612 37.096 69.2377 38.0194 68.0987 38.0194C66.9597 38.0194 66.0362 37.096 66.0362 35.9569V33.6384C63.3577 32.5268 61.7118 29.6716 62.2364 26.6972L62.5806 24.7449C63.1873 21.3037 66.4688 19.0059 69.9101 19.6128C73.3512 20.2194 75.6488 23.501 75.0421 26.9421Z" fill="#F6A96C"/>
<path d="M75.1391 26.7815L74.729 29.0084C74.2923 31.4852 72.3532 33.3693 70.0181 33.9421C69.7065 34.0186 69.3735 33.9598 69.1068 33.7814C67.1084 32.4446 65.9757 30.0467 66.4125 27.5702L66.8035 25.3527C67.2701 22.7058 69.3904 20.7665 71.947 20.3477C74.2063 21.6157 75.6059 24.1346 75.1391 26.7815Z" fill="#FFBD86"/>
<path d="M84.8852 49.1914C84.8852 50.1407 84.1157 50.9102 83.1664 50.9102H69.1299C68.1806 50.9102 67.4111 50.1407 67.4111 49.1914C67.4111 48.2421 68.1806 47.4727 69.1299 47.4727H83.1664C84.1157 47.4727 84.8852 48.2421 84.8852 49.1914Z" fill="#ECECF1"/>
<path d="M70.9831 49.4035C70.8176 49.4745 70.6454 49.508 70.4759 49.508C69.9757 49.508 69.5 49.2151 69.2905 48.7265L65.6378 40.2034C65.3573 39.5489 65.6605 38.7913 66.3148 38.5108C66.9693 38.2304 67.7269 38.5334 68.0074 39.1878L71.6601 47.7109C71.9406 48.3654 71.6374 49.123 70.9831 49.4035Z" fill="#0066ED"/>
<path d="M57.5688 48.3867C57.5688 47.2477 58.4726 46.3242 59.5875 46.3242H67.9664C69.0814 46.3242 69.9851 47.2477 69.9851 48.3867C69.9851 49.5257 69.0814 50.4492 67.9664 50.4492H59.5875C58.4726 50.4492 57.5688 49.5257 57.5688 48.3867Z" fill="#F6A96C"/>
<path d="M66.0444 48.387C66.0444 47.8537 66.2426 47.3678 66.5676 47.0016C66.5908 46.971 66.6164 46.9418 66.6443 46.9139L68.0447 45.5135C68.3804 45.1778 68.9244 45.1778 69.26 45.5135C69.4799 45.7335 69.5557 46.0428 69.4874 46.3245H69.7887C70.9035 46.3245 71.8074 47.248 71.8074 48.387C71.8074 49.5261 70.9037 50.4495 69.7887 50.4495H68.0631C66.9482 50.4495 66.0444 49.5261 66.0444 48.387Z" fill="#FFBD86"/>
<path d="M25.3735 43.632V55.6202C25.3735 56.7352 24.4501 57.6389 23.311 57.6389C22.172 57.6389 21.2485 56.7352 21.2485 55.6202V43.632C21.2485 42.5172 22.172 41.6133 23.311 41.6133C24.4501 41.6133 25.3735 42.517 25.3735 43.632ZM41.3579 41.6133C40.2189 41.6133 39.2954 42.517 39.2954 43.632V55.6202C39.2954 56.7352 40.2189 57.6389 41.3579 57.6389C42.4969 57.6389 43.4204 56.7352 43.4204 55.6202V43.632C43.4204 42.517 42.4969 41.6133 41.3579 41.6133Z" fill="#D78878"/>
<path d="M31.6803 44.9327H21.249V39.9643C21.249 37.8982 22.6857 36.1245 24.6695 35.7419L28.339 35.0375L28.3583 35.0339C30.0836 34.708 31.6801 36.0311 31.6801 37.787L31.6803 44.9327Z" fill="#FFAA00"/>
<path d="M43.4204 44.9318H39.3813V58.2069H25.2876V38.19C25.2876 38.1795 25.2876 38.169 25.2878 38.1585C25.2984 36.6603 26.4074 35.3917 27.8857 35.1093L28.2669 35.0364C28.8982 34.9158 29.5339 34.8238 30.1726 34.7606H30.173C30.8735 34.6911 31.5772 34.6562 32.2819 34.6562C33.6289 34.6562 34.9728 34.7834 36.2967 35.0364L39.9838 35.7408C41.977 36.1235 43.4206 37.8971 43.4206 39.9632V44.9318H43.4204Z" fill="#FFB509"/>
<path d="M38.6616 25.8425V27.8249C38.6616 30.5969 36.8787 32.9525 34.3972 33.8079V35.957C34.3972 37.096 33.4737 38.0195 32.3347 38.0195C31.1957 38.0195 30.2722 37.096 30.2722 35.957V33.8079C27.7907 32.9526 26.0078 30.5971 26.0078 27.8249V25.8425C26.0078 22.3483 28.8405 19.5156 32.3347 19.5156C35.8289 19.5158 38.6616 22.3483 38.6616 25.8425Z" fill="#C96E59"/>
<path d="M38.694 25.7107V27.9624C38.694 30.65 36.8426 32.9542 34.3975 33.8107C31.9524 32.9542 30.2725 30.65 30.2725 27.9624V25.7107C30.2725 23.0231 32.022 20.7432 34.4671 19.8867C36.9122 20.7432 38.694 23.0231 38.694 25.7107Z" fill="#D78878"/>
<path d="M33.1079 50.7418H20.7329V48.4067C20.7329 47.9732 21.0557 47.6076 21.4857 47.554L28.5032 46.6768C30.9483 46.3712 33.1079 48.2776 33.1079 50.7418Z" fill="#D4D4DA"/>
<path d="M43.936 48.4067V50.7418H31.561C31.561 48.2776 33.7206 46.3712 36.1657 46.6768L43.1832 47.554C43.6134 47.6076 43.936 47.9732 43.936 48.4067Z" fill="#ECECF1"/>
<path d="M37.366 86.6854C37.043 86.6344 36.7214 86.5795 36.4009 86.5211C36.2409 86.4919 36.0812 87.255 35.9219 87.2239C28.5905 85.7994 21.9385 82.4733 16.5 77.7792V54.5781C16.5 54.1036 16.8848 53.7188 17.3594 53.7188H85.3827C84.2234 59.8841 81.7202 65.5752 78.1892 70.4766C78.1086 70.5885 77.0842 70.6998 77.0026 70.8109C76.6819 71.2469 76.3531 71.6764 76.0164 72.0994H38.2253C37.7508 72.0994 37.366 72.4842 37.366 72.9588V86.6854Z" fill="#AC695D"/>
<path d="M87.1404 55.5234H14.9751C14.5006 55.5234 14.1157 55.1386 14.1157 54.6641V51.2266C14.1157 50.752 14.5006 50.3672 14.9751 50.3672H87.1404C87.615 50.3672 87.9998 50.752 87.9998 51.2266V54.6641C87.9998 55.1386 87.615 55.5234 87.1404 55.5234Z" fill="#B97D72"/>
<path d="M44.7954 63.7413V75.7296C44.7954 76.8446 43.8719 77.7483 42.7329 77.7483C41.5939 77.7483 40.6704 76.8446 40.6704 75.7296V63.7413C40.6704 62.6265 41.5939 61.7227 42.7329 61.7227C43.8719 61.7227 44.7954 62.6264 44.7954 63.7413ZM60.7798 61.7227C59.6408 61.7227 58.7173 62.6264 58.7173 63.7413V75.7296C58.7173 76.8446 59.6408 77.7483 60.7798 77.7483C61.9188 77.7483 62.8423 76.8446 62.8423 75.7296V63.7413C62.8423 62.6264 61.9188 61.7227 60.7798 61.7227Z" fill="#FFCEBF"/>
<path d="M51.1022 65.0421H40.6709V60.0737C40.6709 58.0076 42.1076 56.2338 44.0914 55.8512L47.7609 55.1469L47.7802 55.1433C49.5054 54.8174 51.102 56.1405 51.102 57.8964V65.0421H51.1022Z" fill="#00A4FB"/>
<path d="M62.8423 65.0412H58.8032V78.3163H44.7095V58.2994C44.7095 58.2889 44.7095 58.2784 44.7096 58.2679C44.7203 56.7697 45.8292 55.5011 47.3075 55.2187L47.6888 55.1458C48.3201 55.0252 48.9558 54.9332 49.5945 54.87H49.5948C50.2954 54.8005 50.9991 54.7656 51.7038 54.7656C53.0507 54.7656 54.3946 54.8928 55.7186 55.1458L59.4056 55.8502C61.3989 56.2329 62.8425 58.0065 62.8425 60.0726V65.0412H62.8423Z" fill="#49B6FC"/>
<path d="M58.0835 45.9519V47.9343C58.0835 50.7063 56.3006 53.0618 53.8191 53.9173V56.0664C53.8191 57.2054 52.8956 58.1289 51.7566 58.1289C50.6176 58.1289 49.6941 57.2054 49.6941 56.0664V53.9173C47.2125 53.062 45.4297 50.7065 45.4297 47.9343V45.9519C45.4297 42.4577 48.2624 39.625 51.7566 39.625C55.2508 39.6252 58.0835 42.4577 58.0835 45.9519Z" fill="#FFCEBF"/>
<path d="M58.1791 45.7243V47.9761C58.1791 50.6637 56.2644 53.0634 53.8193 53.9199C51.3742 53.0634 49.6943 50.7592 49.6943 48.0716V45.8199C49.6943 43.1323 51.4439 40.8525 53.8889 39.9961C56.334 40.8524 58.1791 43.0367 58.1791 45.7243Z" fill="#FFDFCF"/>
<path d="M69.4375 70.8125H52.25C51.3007 70.8125 50.5312 70.043 50.5312 69.0938C50.5312 68.1445 51.3007 67.375 52.25 67.375H69.4375C70.3868 67.375 71.1562 68.1445 71.1562 69.0938C71.1562 70.043 70.3868 70.8125 69.4375 70.8125Z" fill="#0066ED"/>
<path d="M74.0269 73.8281C73.6189 74.2879 73.201 74.7387 72.7734 75.1801C72.6261 75.3322 73.957 75.4831 73.8076 75.6328C66.1848 83.2718 55.6444 87.9982 44 87.9982C41.2371 87.9982 38.5363 87.7321 35.9219 87.2241V74.6875C35.9219 74.213 36.3067 73.8281 36.7812 73.8281H74.0269Z" fill="#B97D72"/>
<path d="M73.8074 75.6328H34.397C33.9224 75.6328 33.5376 75.248 33.5376 74.7734V71.3359C33.5376 70.8614 33.9224 70.4766 34.397 70.4766H78.189C76.8671 72.3115 75.401 74.0357 73.8074 75.6328Z" fill="#C49087"/>
</g>
<defs>
<clipPath id="clip0_1897_4589">
<rect width="88" height="88" fill="white"/>
</clipPath>
</defs>
</svg>
