<svg width="88" height="88" viewBox="0 0 88 88" fill="none" xmlns="http://www.w3.org/2000/svg">
<g clip-path="url(#clip0_1897_4643)">
<path d="M62.9103 88H7.56846C4.8011 88 2.55762 85.7565 2.55762 82.9892V5.01084C2.55762 2.24348 4.80093 0 7.56846 0H62.9103C65.6777 0 67.9212 2.24348 67.9212 5.01084V82.9892C67.9212 85.7565 65.6779 88 62.9103 88Z" fill="#FFE8D2"/>
<path d="M62.9093 0H58.2876V22.792C58.2876 53.0478 33.7498 77.5751 3.48093 77.5751H2.55762V82.9902C2.55762 85.757 4.80145 88 7.56949 88H62.9093C65.6773 88 67.9212 85.757 67.9212 82.9902V5.00981C67.9212 2.24297 65.6772 0 62.9093 0Z" fill="#F7D4AD"/>
<path d="M60.6998 60.8103H14.309C13.5725 60.8103 12.9756 60.2136 12.9756 59.4774C12.9756 58.7413 13.5725 58.1445 14.309 58.1445H60.6999C61.4364 58.1445 62.0334 58.7413 62.0334 59.4774C62.0334 60.2136 61.4364 60.8103 60.6998 60.8103Z" fill="#E2A876"/>
<path d="M60.6998 67.9705H14.309C13.5725 67.9705 12.9756 67.3737 12.9756 66.6376C12.9756 65.9014 13.5725 65.3047 14.309 65.3047H60.6999C61.4364 65.3047 62.0334 65.9014 62.0334 66.6376C62.0334 67.3737 61.4364 67.9705 60.6998 67.9705Z" fill="#E2A876"/>
<path d="M60.6998 75.1306H14.309C13.5725 75.1306 12.9756 74.5339 12.9756 73.7977C12.9756 73.0616 13.5725 72.4648 14.309 72.4648H60.6999C61.4364 72.4648 62.0334 73.0616 62.0334 73.7977C62.0334 74.534 61.4364 75.1306 60.6998 75.1306Z" fill="#E2A876"/>
<path d="M60.6998 82.2908H14.309C13.5725 82.2908 12.9756 81.694 12.9756 80.9579C12.9756 80.2218 13.5725 79.625 14.309 79.625H60.6999C61.4364 79.625 62.0334 80.2218 62.0334 80.9579C62.0334 81.694 61.4364 82.2908 60.6998 82.2908Z" fill="#E2A876"/>
<path d="M60.6998 46.49H14.309C13.5725 46.49 12.9756 45.8933 12.9756 45.1571C12.9756 44.421 13.5725 43.8242 14.309 43.8242H60.6999C61.4364 43.8242 62.0334 44.421 62.0334 45.1571C62.0334 45.8933 61.4364 46.49 60.6998 46.49Z" fill="#E2A876"/>
<path d="M60.6998 53.6502H14.309C13.5725 53.6502 12.9756 53.0534 12.9756 52.3173C12.9756 51.5811 13.5725 50.9844 14.309 50.9844H60.6999C61.4364 50.9844 62.0334 51.5811 62.0334 52.3173C62.0334 53.0536 61.4364 53.6502 60.6998 53.6502Z" fill="#E2A876"/>
<path d="M9.40372 60.8103C10.1401 60.8103 10.7371 60.2136 10.7371 59.4774C10.7371 58.7413 10.1401 58.1445 9.40372 58.1445C8.6673 58.1445 8.07031 58.7413 8.07031 59.4774C8.07031 60.2136 8.6673 60.8103 9.40372 60.8103Z" fill="#E2A876"/>
<path d="M9.40372 46.49C10.1401 46.49 10.7371 45.8932 10.7371 45.1571C10.7371 44.421 10.1401 43.8242 9.40372 43.8242C8.6673 43.8242 8.07031 44.421 8.07031 45.1571C8.07031 45.8932 8.6673 46.49 9.40372 46.49Z" fill="#E2A876"/>
<path d="M9.40372 53.6502C10.1401 53.6502 10.7371 53.0534 10.7371 52.3173C10.7371 51.5811 10.1401 50.9844 9.40372 50.9844C8.6673 50.9844 8.07031 51.5811 8.07031 52.3173C8.07031 53.0534 8.6673 53.6502 9.40372 53.6502Z" fill="#E2A876"/>
<path d="M9.40372 67.9705C10.1401 67.9705 10.7371 67.3737 10.7371 66.6376C10.7371 65.9014 10.1401 65.3047 9.40372 65.3047C8.6673 65.3047 8.07031 65.9014 8.07031 66.6376C8.07031 67.3737 8.6673 67.9705 9.40372 67.9705Z" fill="#E2A876"/>
<path d="M9.40372 75.1306C10.1401 75.1306 10.7371 74.5339 10.7371 73.7977C10.7371 73.0616 10.1401 72.4648 9.40372 72.4648C8.6673 72.4648 8.07031 73.0616 8.07031 73.7977C8.07031 74.5339 8.6673 75.1306 9.40372 75.1306Z" fill="#E2A876"/>
<path d="M9.40372 82.2908C10.1401 82.2908 10.7371 81.694 10.7371 80.9579C10.7371 80.2218 10.1401 79.625 9.40372 79.625C8.6673 79.625 8.07031 80.2218 8.07031 80.9579C8.07031 81.694 8.6673 82.2908 9.40372 82.2908Z" fill="#E2A876"/>
<path d="M41.855 36.7419H28.561C26.5072 36.7419 24.961 34.8726 25.3476 32.8569L25.8697 30.1295C26.0198 29.3472 26.3235 28.6177 26.7544 27.977C27.435 26.9559 28.4338 26.158 29.6269 25.7249L35.2459 23.6875L40.8215 25.7093C42.0207 26.1448 43.0229 26.9487 43.7047 27.9782V27.9794C44.1416 28.6358 44.4465 29.3821 44.5905 30.1835L45.0756 32.8952C45.4344 34.9003 43.8932 36.7419 41.855 36.7419Z" fill="#B8B6FF"/>
<path d="M38.3206 24.8086L35.1769 27.5517L32.0352 24.8086V20.5977H38.3206V24.8086Z" fill="#ECBD83"/>
<path d="M40.1694 13.1713V16.7403C40.1694 19.539 37.8779 21.8961 35.0786 21.8421C32.3657 21.7898 30.1836 19.5754 30.1836 16.852V13.1713C30.1836 10.415 32.419 8.97656 35.1764 8.97656C37.9341 8.97656 40.1694 10.415 40.1694 13.1713Z" fill="#F7D4AD"/>
<path d="M29.987 31.9228V36.7415H28.561C26.5072 36.7415 24.961 34.8722 25.3476 32.8564L25.8697 30.1291C26.0198 29.3468 26.3235 28.6173 26.7544 27.9766C28.5993 28.3449 29.987 29.9719 29.987 31.9228Z" fill="#A09EEF"/>
<path d="M41.855 36.743H40.4805V31.9243C40.4805 29.977 41.8646 28.3512 43.7047 27.9805C44.1416 28.6369 44.4465 29.3831 44.5905 30.1846L45.0755 32.8963C45.4344 34.9014 43.8932 36.743 41.855 36.743Z" fill="#A09EEF"/>
<path d="M40.1697 12.927C39.9827 13.0704 39.8436 13.1733 39.8436 13.1733C39.4899 13.3775 39.1059 13.5645 38.6943 13.7297C36.8219 14.4787 34.9913 14.5062 34.1058 13.8861C34.1058 13.8861 33.1811 13.1965 32.8347 12.7562C32.4884 12.3159 31.3869 12.2043 30.4739 13.1733C30.3781 13.2747 30.281 13.3414 30.1841 13.3805V13.1733C30.1841 10.4151 32.4203 8.17969 35.1798 8.17969C36.5596 8.17969 37.8088 8.7388 38.7117 9.64286C39.5624 10.4918 40.1075 11.6449 40.1697 12.927Z" fill="#6E4848"/>
<path d="M72.8927 59.906L68.3605 56.359C68.1027 56.1572 67.7402 56.1572 67.4824 56.359L62.9502 59.906C62.4827 60.2719 61.7988 59.939 61.7988 59.3453V33.915C61.7988 33.5218 62.1177 33.2031 62.5111 33.2031H73.3318C73.7252 33.2031 74.0441 33.522 74.0441 33.915V59.3455C74.0441 59.939 73.3602 60.2719 72.8927 59.906Z" fill="#FF445C"/>
<path d="M85.4426 24.0886C85.4426 26.324 83.0137 28.0601 82.2073 30.0039C81.3713 32.0186 81.8284 34.9565 80.3092 36.4746C78.7904 37.9926 75.8527 37.5335 73.8373 38.3689C71.8934 39.1744 70.1566 41.603 67.9212 41.603C65.6858 41.603 63.949 39.1744 62.0051 38.3689C59.9897 37.5337 57.0522 37.9926 55.5331 36.4746C54.0139 34.9565 54.4713 32.0186 53.6353 30.0039C52.8287 28.0601 50.3999 26.3239 50.3999 24.0886C50.3999 21.8532 52.8288 20.1171 53.6355 18.1734C54.4715 16.1587 54.0143 13.2208 55.5335 11.7026C57.0523 10.1846 59.99 10.6437 62.0054 9.80839C63.9493 9.00281 65.6861 6.57422 67.9215 6.57422C70.1569 6.57422 71.8937 9.00281 73.8376 9.80839C75.853 10.6435 78.7906 10.1846 80.3096 11.7026C81.8288 13.2208 81.3714 16.1587 82.2074 18.1734C83.0137 20.1171 85.4426 21.8532 85.4426 24.0886Z" fill="#FF8B59"/>
<path d="M68.2115 15.4246L71.0254 19.6261C71.0716 19.695 71.1407 19.7454 71.2206 19.7679L76.0878 21.1446C76.3272 21.2123 76.4212 21.5014 76.2672 21.6968L73.1393 25.6702C73.0879 25.7354 73.0614 25.8169 73.0647 25.8997L73.2587 30.952C73.2684 31.2005 73.0222 31.3792 72.7888 31.2933L68.0416 29.5476C67.9638 29.5189 67.8782 29.5189 67.8003 29.5476L63.0531 31.2933C62.8196 31.3792 62.5736 31.2005 62.5831 30.952L62.7771 25.8997C62.7804 25.8169 62.7539 25.7354 62.7025 25.6702L59.5746 21.6968C59.4207 21.5014 59.5146 21.2123 59.754 21.1446L64.6212 19.7679C64.7011 19.7454 64.7703 19.695 64.8164 19.6261L67.6303 15.4246C67.769 15.2178 68.0731 15.2178 68.2115 15.4246Z" fill="#FEE07D"/>
</g>
<defs>
<clipPath id="clip0_1897_4643">
<rect width="88" height="88" fill="white"/>
</clipPath>
</defs>
</svg>
