<svg width="36" height="37" viewBox="0 0 36 37" fill="none" xmlns="http://www.w3.org/2000/svg">
<rect y="0.5" width="36" height="36" rx="18" fill="#1B9CFF"/>
<g clip-path="url(#clip0_1895_4258)">
<path d="M18 18.5C18.7911 18.5 19.5645 18.2654 20.2223 17.8259C20.8801 17.3864 21.3928 16.7616 21.6955 16.0307C21.9983 15.2998 22.0775 14.4956 21.9231 13.7196C21.7688 12.9437 21.3878 12.231 20.8284 11.6716C20.269 11.1122 19.5563 10.7312 18.7804 10.5769C18.0044 10.4225 17.2002 10.5017 16.4693 10.8045C15.7384 11.1072 15.1136 11.6199 14.6741 12.2777C14.2346 12.9355 14 13.7089 14 14.5C14.0011 15.5605 14.4228 16.5773 15.1727 17.3273C15.9227 18.0772 16.9395 18.4989 18 18.5ZM18 11.8333C18.5274 11.8333 19.043 11.9897 19.4815 12.2827C19.9201 12.5758 20.2618 12.9922 20.4637 13.4795C20.6655 13.9668 20.7183 14.503 20.6154 15.0202C20.5125 15.5375 20.2586 16.0127 19.8856 16.3856C19.5127 16.7586 19.0375 17.0125 18.5202 17.1154C18.003 17.2183 17.4668 17.1655 16.9795 16.9637C16.4922 16.7618 16.0758 16.4201 15.7827 15.9815C15.4897 15.543 15.3333 15.0274 15.3333 14.5C15.3333 13.7928 15.6143 13.1145 16.1144 12.6144C16.6145 12.1143 17.2928 11.8333 18 11.8333Z" fill="white"/>
<path d="M18 19.832C16.4092 19.8338 14.8841 20.4665 13.7593 21.5913C12.6345 22.7162 12.0018 24.2413 12 25.832C12 26.0088 12.0702 26.1784 12.1953 26.3034C12.3203 26.4285 12.4899 26.4987 12.6667 26.4987C12.8435 26.4987 13.013 26.4285 13.1381 26.3034C13.2631 26.1784 13.3333 26.0088 13.3333 25.832C13.3333 24.5944 13.825 23.4074 14.7002 22.5322C15.5753 21.657 16.7623 21.1654 18 21.1654C19.2377 21.1654 20.4247 21.657 21.2998 22.5322C22.175 23.4074 22.6667 24.5944 22.6667 25.832C22.6667 26.0088 22.7369 26.1784 22.8619 26.3034C22.987 26.4285 23.1565 26.4987 23.3333 26.4987C23.5101 26.4987 23.6797 26.4285 23.8047 26.3034C23.9298 26.1784 24 26.0088 24 25.832C23.9982 24.2413 23.3655 22.7162 22.2407 21.5913C21.1159 20.4665 19.5908 19.8338 18 19.832Z" fill="white"/>
</g>
<defs>
<clipPath id="clip0_1895_4258">
<rect width="16" height="16" fill="white" transform="translate(10 10.5)"/>
</clipPath>
</defs>
</svg>
