<svg width="130" height="130" viewBox="0 0 130 130" fill="none" xmlns="http://www.w3.org/2000/svg">
<path d="M65 5.58594C60.5523 5.58594 56.2151 6.05643 52.0318 6.94357L21.3832 23.4442C9.90998 34.7293 2.79248 50.4291 2.79248 67.7935C2.79248 87.2947 11.7686 104.697 25.8114 116.103L71.5767 129.655C102.841 126.37 127.207 99.9281 127.207 67.7935C127.208 33.4372 99.3563 5.58594 65 5.58594Z" fill="#1D2E79"/>
<path d="M105.605 61.6942C104.107 59.8836 103.583 57.4577 104.198 55.1893C104.492 53.7786 105.703 51.0788 105.292 46.9529C102.952 23.4719 81.2868 6.73438 57.0735 6.73438C55.1524 6.73438 53.2593 6.8532 51.3992 7.07969C51.2083 7.12234 51.0186 7.16805 50.8284 7.21248V25.9855C49.7993 26.681 45.0053 30.336 47.6681 36.4305C50.2566 42.3551 52.0827 50.8102 52.3661 52.164C51.6546 53.0002 48.6425 57.0449 52.7812 61.3077V81.6786C52.5613 82.1852 51.4553 84.9454 51.7559 88.5668C52.3011 95.1349 57.0491 99.2144 60.9362 101.48C68.9142 106.13 73.5805 109.525 76.0253 111.483C76.5578 111.047 77.2926 110.9 77.9735 111.138C82.2948 112.448 85.2881 114.316 90.3187 114.092C92.9058 113.976 95.2699 112.589 96.7286 110.45C99.694 106.101 98.8682 102.025 99.0087 100.682C99.0087 96.8155 102.056 95.1867 103.1 93.9197C103.874 93.1712 104.189 92.0659 103.925 91.0219L103.684 90.0641C103.602 89.7386 103.715 89.3948 103.975 89.1821L106.861 86.8154C107.117 86.6059 107.265 86.2929 107.265 85.9623V81.8188C107.265 81.5222 107.452 81.2589 107.732 81.1617C109.491 80.5518 115.609 78.2509 115.609 75.756C115.609 74.1406 110.321 67.3911 105.605 61.6942Z" fill="#E8F8FC"/>
<path d="M51.209 26.1936V7.125C39.7423 9.72068 29.4781 15.4813 21.3831 23.4436C14.6503 31.5069 10.5972 41.8853 10.5972 53.2113C10.5972 66.7313 16.3715 78.9013 25.5875 87.3934C29.1021 90.632 30.6024 95.5082 29.3946 100.133L25.8112 116.102C36.5086 124.79 50.1448 130 64.9999 130C67.2216 130 69.4153 129.882 71.5768 129.655C71.6098 125.38 71.6296 120.323 71.6342 120.185C71.7182 117.613 72.8423 117.063 75.5619 112.025C75.7579 111.691 76.0385 111.433 76.3622 111.262C73.9384 109.309 69.2561 105.89 61.1276 101.152C47.7688 93.3655 53.1615 81.7607 53.1615 81.7607V61.1524C48.5671 56.558 52.7771 52.2751 52.7771 52.2751C52.7771 52.2751 50.8728 42.8171 48.0163 36.279C45.1599 29.7409 51.209 26.1936 51.209 26.1936Z" fill="#ADE9F7"/>
<path d="M86.7573 46.2148H74.7026C73.3006 46.2148 72.1636 45.0781 72.1636 43.6758C72.1636 42.2735 73.3006 41.1367 74.7026 41.1367H86.7573C88.1594 41.1367 89.2964 42.2735 89.2964 43.6758C89.2964 45.0781 88.1594 46.2148 86.7573 46.2148Z" fill="#1D8DF2"/>
<path d="M89.1838 49.3685C92.3306 49.3685 94.8817 46.8174 94.8817 43.6706C94.8817 40.5237 92.3306 37.9727 89.1838 37.9727C86.0369 37.9727 83.4858 40.5237 83.4858 43.6706C83.4858 46.8174 86.0369 49.3685 89.1838 49.3685Z" fill="#3FEADD"/>
<path d="M84.2161 22.7656L81.8629 25.3278H74.7896C73.4373 25.3278 72.2564 26.3482 72.1691 27.698C72.0733 29.1768 73.2446 30.4059 74.7025 30.4059H82.9784C83.6893 30.4059 84.3675 30.1078 84.8484 29.5843L88.1161 26.0263C86.3634 25.6099 84.9245 24.3845 84.2161 22.7656Z" fill="#1D8DF2"/>
<path d="M89.1838 26.4349C92.3306 26.4349 94.8817 23.8838 94.8817 20.737C94.8817 17.5901 92.3306 15.0391 89.1838 15.0391C86.0369 15.0391 83.4858 17.5901 83.4858 20.737C83.4858 23.8838 86.0369 26.4349 89.1838 26.4349Z" fill="#FEF156"/>
<path d="M84.2161 64.5817L81.8629 62.0195H74.7896C73.4373 62.0195 72.2564 60.9991 72.1691 59.6493C72.0733 58.1706 73.2446 56.9414 74.7025 56.9414H82.9784C83.6893 56.9414 84.3675 57.2395 84.8484 57.763L88.1161 61.321C86.3634 61.7374 84.9245 62.9628 84.2161 64.5817Z" fill="#1D8DF2"/>
<path d="M89.1838 72.306C92.3306 72.306 94.8817 69.7549 94.8817 66.6081C94.8817 63.4612 92.3306 60.9102 89.1838 60.9102C86.0369 60.9102 83.4858 63.4612 83.4858 66.6081C83.4858 69.7549 86.0369 72.306 89.1838 72.306Z" fill="#AE79FD"/>
<path d="M15.6602 46.2148H27.7149C29.1169 46.2148 30.2539 45.0781 30.2539 43.6758C30.2539 42.2735 29.1169 41.1367 27.7149 41.1367H15.6602C14.2581 41.1367 13.1211 42.2735 13.1211 43.6758C13.1211 45.0781 14.2578 46.2148 15.6602 46.2148Z" fill="#1D8DF2"/>
<path d="M13.234 49.3685C16.3809 49.3685 18.932 46.8174 18.932 43.6706C18.932 40.5237 16.3809 37.9727 13.234 37.9727C10.0872 37.9727 7.53613 40.5237 7.53613 43.6706C7.53613 46.8174 10.0872 49.3685 13.234 49.3685Z" fill="#3FEADD"/>
<path d="M18.2018 22.7656L20.555 25.3278H27.6283C28.9806 25.3278 30.1615 26.3482 30.2488 27.698C30.3446 29.1768 29.1733 30.4059 27.7154 30.4059H19.4395C18.7286 30.4059 18.0504 30.1078 17.5695 29.5843L14.3018 26.0263C16.0545 25.6099 17.4934 24.3845 18.2018 22.7656Z" fill="#1D8DF2"/>
<path d="M13.234 26.4349C16.3809 26.4349 18.932 23.8838 18.932 20.737C18.932 17.5901 16.3809 15.0391 13.234 15.0391C10.0872 15.0391 7.53613 17.5901 7.53613 20.737C7.53613 23.8838 10.0872 26.4349 13.234 26.4349Z" fill="#AE79FD"/>
<path d="M18.2018 64.5817L20.555 62.0195H27.6283C28.9806 62.0195 30.1615 60.9991 30.2488 59.6493C30.3446 58.1706 29.1733 56.9414 27.7154 56.9414H19.4395C18.7286 56.9414 18.0504 57.2395 17.5695 57.763L14.3018 61.321C16.0545 61.7374 17.4934 62.9628 18.2018 64.5817Z" fill="#1D8DF2"/>
<path d="M13.234 72.306C16.3809 72.306 18.932 69.7549 18.932 66.6081C18.932 63.4612 16.3809 60.9102 13.234 60.9102C10.0872 60.9102 7.53613 63.4612 7.53613 66.6081C7.53613 69.7549 10.0872 72.306 13.234 72.306Z" fill="#FEF156"/>
<path d="M48.6699 79.2188V67.1641C48.6699 65.762 49.8067 64.625 51.209 64.625C52.6113 64.625 53.748 65.762 53.748 67.1641V79.2188C53.748 80.6208 52.6113 81.7578 51.209 81.7578C49.8067 81.7578 48.6699 80.6211 48.6699 79.2188Z" fill="#1D8DF2"/>
<path d="M51.2091 87.345C54.356 87.345 56.9071 84.794 56.9071 81.6471C56.9071 78.5003 54.356 75.9492 51.2091 75.9492C48.0623 75.9492 45.5112 78.5003 45.5112 81.6471C45.5112 84.794 48.0623 87.345 51.2091 87.345Z" fill="#3FEADD"/>
<path d="M72.1164 76.6815L69.5542 74.3283V67.255C69.5542 65.9026 68.5338 64.7217 67.184 64.6344C65.7052 64.5387 64.4761 65.7099 64.4761 67.1681V75.4439C64.4761 76.1549 64.7742 76.8331 65.2977 77.314L68.8557 80.5817C69.2721 78.8288 70.4972 77.3901 72.1164 76.6815Z" fill="#1D8DF2"/>
<path d="M74.1437 87.345C77.2906 87.345 79.8416 84.794 79.8416 81.6471C79.8416 78.5003 77.2906 75.9492 74.1437 75.9492C70.9968 75.9492 68.4458 78.5003 68.4458 81.6471C68.4458 84.794 70.9968 87.345 74.1437 87.345Z" fill="#FEF156"/>
<path d="M30.3018 76.6815L32.8639 74.3283V67.255C32.8639 65.9026 33.8844 64.7217 35.2341 64.6344C36.7129 64.5387 37.9421 65.7099 37.9421 67.1681V75.4439C37.9421 76.1549 37.644 76.8331 37.1204 77.314L33.5624 80.5817C33.146 78.8288 31.9207 77.3901 30.3018 76.6815Z" fill="#1D8DF2"/>
<path d="M28.2746 87.345C31.4214 87.345 33.9725 84.794 33.9725 81.6471C33.9725 78.5003 31.4214 75.9492 28.2746 75.9492C25.1277 75.9492 22.5767 78.5003 22.5767 81.6471C22.5767 84.794 25.1277 87.345 28.2746 87.345Z" fill="#AE79FD"/>
<path d="M48.6699 8.12109V20.1758C48.6699 21.5779 49.8067 22.7149 51.209 22.7149C52.6113 22.7149 53.748 21.5779 53.748 20.1758V8.12109C53.748 6.71902 52.6113 5.58203 51.209 5.58203C49.8067 5.58203 48.6699 6.71902 48.6699 8.12109Z" fill="#1D8DF2"/>
<path d="M51.2091 11.3958C54.356 11.3958 56.9071 8.84478 56.9071 5.69791C56.9071 2.55104 54.356 0 51.2091 0C48.0623 0 45.5112 2.55104 45.5112 5.69791C45.5112 8.84478 48.0623 11.3958 51.2091 11.3958Z" fill="#3FEADD"/>
<path d="M72.1164 10.6659L69.5542 13.0191V20.0921C69.5542 21.4445 68.5338 22.6254 67.184 22.7127C65.7052 22.8084 64.4761 21.6372 64.4761 20.179V11.9034C64.4761 11.1925 64.7742 10.5143 65.2977 10.0334L68.8557 6.76562C69.2721 8.51859 70.4972 9.95748 72.1164 10.6659Z" fill="#1D8DF2"/>
<path d="M74.1442 11.3958C77.2911 11.3958 79.8421 8.84478 79.8421 5.69791C79.8421 2.55104 77.2911 0 74.1442 0C70.9973 0 68.4463 2.55104 68.4463 5.69791C68.4463 8.84478 70.9973 11.3958 74.1442 11.3958Z" fill="#AE79FD"/>
<path d="M30.3018 10.6659L32.8639 13.0191V20.0921C32.8639 21.4445 33.8844 22.6254 35.2341 22.7127C36.7129 22.8084 37.9421 21.6372 37.9421 20.179V11.9034C37.9421 11.1925 37.644 10.5143 37.1204 10.0334L33.5624 6.76562C33.146 8.51859 31.9207 9.95748 30.3018 10.6659Z" fill="#1D8DF2"/>
<path d="M28.2741 11.3958C31.421 11.3958 33.972 8.84478 33.972 5.69791C33.972 2.55104 31.421 0 28.2741 0C25.1272 0 22.5762 2.55104 22.5762 5.69791C22.5762 8.84478 25.1272 11.3958 28.2741 11.3958Z" fill="#FEF156"/>
<path d="M63.0091 61.1502C66.172 61.1502 68.7362 58.5863 68.7362 55.4231V31.9188C68.7362 28.7556 66.172 26.1914 63.0088 26.1914H39.4088C36.2458 26.1914 33.6816 28.7556 33.6816 31.9185V55.4231C33.6816 58.586 36.2456 61.1502 39.4088 61.1502H63.0091Z" fill="#AE79FD"/>
<path d="M39.4088 61.1502H53.1618C48.5674 56.5558 52.7774 52.2729 52.7774 52.2729C52.7774 52.2729 50.8731 42.8149 48.0167 36.2768C45.1602 29.7387 51.2088 26.1914 51.2088 26.1914H39.4088C36.2458 26.1914 33.6816 28.7556 33.6816 31.9185V55.4231C33.6816 58.586 36.2458 61.1502 39.4088 61.1502Z" fill="#9C58FE"/>
<path d="M53.0615 53.1509C52.2919 53.1509 51.5672 52.681 51.2793 51.9185L46.9014 40.3178L42.4812 51.9238C42.1067 52.9067 41.0062 53.4 40.0239 53.0258C39.041 52.6513 38.5477 51.5511 38.9222 50.5685L44.8004 35.1348C44.8057 35.1203 44.8115 35.1061 44.8171 35.0919C45.1655 34.24 45.9853 33.6888 46.9055 33.6875H46.9083C47.8277 33.6875 48.6473 34.2364 48.9974 35.0868C49.0045 35.1043 49.0114 35.1218 49.018 35.1393L54.8429 50.5738C55.2141 51.5579 54.7174 52.6566 53.7336 53.0278C53.5121 53.1113 53.2846 53.1509 53.0615 53.1509Z" fill="#2FD0E2"/>
<path d="M51.2579 49.3086H42.5352C41.4835 49.3086 40.6309 48.456 40.6309 47.4043C40.6309 46.3524 41.4835 45.5 42.5352 45.5H51.2579C52.3095 45.5 53.1621 46.3524 53.1621 47.4043C53.1621 48.4562 52.3095 49.3086 51.2579 49.3086Z" fill="#2FD0E2"/>
<path d="M59.2236 53.1504C58.172 53.1504 57.3193 52.2981 57.3193 51.2461V35.5918C57.3193 34.5399 58.172 33.6875 59.2236 33.6875C60.2753 33.6875 61.1279 34.5399 61.1279 35.5918V51.2461C61.1279 52.2981 60.2753 53.1504 59.2236 53.1504Z" fill="#3FEADD"/>
</svg>
