<svg width="133" height="133" viewBox="0 0 133 133" fill="none" xmlns="http://www.w3.org/2000/svg">
<path fill-rule="evenodd" clip-rule="evenodd" d="M113.37 120.531V12.4688C113.37 10.5402 112.601 8.69072 111.238 7.32747C109.875 5.96006 108.025 5.19531 106.097 5.19531C93.0126 5.19531 52.4019 5.19531 33.1169 5.19531C25.6689 5.19531 19.6299 11.2343 19.6299 18.6823V112.219C19.6299 120.826 26.6082 127.805 35.2158 127.805H106.097C108.025 127.805 109.875 127.04 111.238 125.673C112.601 124.309 113.37 122.46 113.37 120.531Z" fill="#F5B386"/>
<path fill-rule="evenodd" clip-rule="evenodd" d="M43.4244 5.19531H33.1169C25.6689 5.19531 19.6299 11.2343 19.6299 18.6823V112.219C19.6299 120.826 26.6082 127.805 35.2158 127.805H106.097C108.025 127.805 109.875 127.04 111.238 125.673C112.601 124.309 113.37 122.46 113.37 120.531V115.244H58.9813C50.3737 115.244 43.3953 108.266 43.3953 99.6586C43.3953 76.5664 43.3953 27.5352 43.3953 6.12216C43.3953 5.81044 43.4036 5.50288 43.4244 5.19531Z" fill="#F1995C"/>
<path fill-rule="evenodd" clip-rule="evenodd" d="M30.0493 126.927C31.6661 127.496 33.4034 127.804 35.2155 127.804H36.2837V28.8477C36.2837 27.127 34.883 25.7305 33.1665 25.7305C31.4458 25.7305 30.0493 27.127 30.0493 28.8477V126.927Z" fill="#EDEDED"/>
<path fill-rule="evenodd" clip-rule="evenodd" d="M113.37 104.945H33.25C31.5293 104.945 30.1328 106.342 30.1328 108.062C30.1328 109.783 31.5293 111.18 33.25 111.18H113.37V104.945Z" fill="#FDFDFD"/>
<path fill-rule="evenodd" clip-rule="evenodd" d="M44.3139 104.945H33.25C31.5293 104.945 30.1328 106.342 30.1328 108.062C30.1328 109.783 31.5293 111.18 33.25 111.18H48.4827C46.6248 109.488 45.1826 107.356 44.3139 104.945Z" fill="#EDEDED"/>
<path d="M71.7498 94.563C86.0985 94.563 97.7305 82.931 97.7305 68.5823C97.7305 54.2335 86.0985 42.6016 71.7498 42.6016C57.401 42.6016 45.769 54.2335 45.769 68.5823C45.769 82.931 57.401 94.563 71.7498 94.563Z" fill="#F0F3F7"/>
<path fill-rule="evenodd" clip-rule="evenodd" d="M73.5034 68.5818V57.6758C73.5034 55.9593 72.1069 54.5586 70.3862 54.5586C68.6655 54.5586 67.269 55.9593 67.269 57.6758V68.5818C67.269 70.3025 68.6655 71.699 70.3862 71.699C72.1069 71.699 73.5034 70.3025 73.5034 68.5818Z" fill="#C7B7B7"/>
<path fill-rule="evenodd" clip-rule="evenodd" d="M68.8272 71.2856L75.9718 75.4086C77.4597 76.2689 79.3674 75.7577 80.2278 74.2697C81.0881 72.7777 80.5769 70.8699 79.0889 70.0096L71.9444 65.8866C70.4564 65.0262 68.5487 65.5375 67.6884 67.0254C66.828 68.5175 67.3392 70.4252 68.8272 71.2856Z" fill="#C7B7B7"/>
<path fill-rule="evenodd" clip-rule="evenodd" d="M19.6299 18.6325C19.6548 26.0015 25.6398 31.9657 33.013 31.9657H113.37V12.4688C113.37 10.5402 112.601 8.69072 111.238 7.32747C109.875 5.96006 108.025 5.19531 106.097 5.19531C93.0126 5.19531 52.4019 5.19531 33.1169 5.19531C25.6855 5.19531 19.659 11.2052 19.6299 18.6325Z" fill="#FEE6D6"/>
<path fill-rule="evenodd" clip-rule="evenodd" d="M113.37 15.4688H66.5C64.7793 15.4688 63.3828 16.8653 63.3828 18.5859C63.3828 20.3066 64.7793 21.7031 66.5 21.7031H113.37V15.4688Z" fill="#C6B4B4"/>
<path fill-rule="evenodd" clip-rule="evenodd" d="M60.7934 5.19531C59.48 6.06397 58.2705 7.09888 57.2398 7.98416C49.9456 14.2435 47.323 22.8885 46.5416 31.9657H33.013C25.6398 31.9657 19.6548 26.0015 19.6299 18.6325C19.659 11.2052 25.6855 5.19531 33.1169 5.19531H60.7934Z" fill="#F8D2B8"/>
<path fill-rule="evenodd" clip-rule="evenodd" d="M113.37 120.531V12.4688C113.37 10.5402 112.601 8.69072 111.238 7.32747C109.875 5.96006 108.025 5.19531 106.097 5.19531C93.0126 5.19531 52.4019 5.19531 33.1169 5.19531C25.6689 5.19531 19.6299 11.2343 19.6299 18.6823V112.219C19.6299 120.826 26.6082 127.805 35.2158 127.805H106.097C108.025 127.805 109.875 127.04 111.238 125.673C112.601 124.309 113.37 122.46 113.37 120.531ZM107.136 120.531C107.136 120.806 107.028 121.072 106.832 121.267C106.637 121.462 106.371 121.57 106.097 121.57H35.2158C30.0538 121.57 25.8643 117.385 25.8643 112.219V18.6823C25.8643 14.6757 29.1103 11.4297 33.1169 11.4297H106.097C106.371 11.4297 106.637 11.5377 106.832 11.7331C107.028 11.9284 107.136 12.1944 107.136 12.4688V120.531Z" fill="#5E4137"/>
<path fill-rule="evenodd" clip-rule="evenodd" d="M110.253 31.9657C111.973 31.9657 113.37 30.5692 113.37 28.8485C113.37 28.8485 113.37 18.4704 113.37 12.4688C113.37 10.5402 112.601 8.69072 111.238 7.32747C109.875 5.96006 108.025 5.19531 106.097 5.19531C92.9877 5.19531 52.2564 5.19531 33.013 5.19531C25.6232 5.19531 19.6299 11.1886 19.6299 18.5784V18.5826C19.6299 25.9766 25.6232 31.9657 33.013 31.9657H110.253ZM107.136 25.7313H33.013C29.0646 25.7313 25.8643 22.531 25.8643 18.5826V18.5784C25.8643 14.63 29.0646 11.4297 33.013 11.4297H106.097C106.371 11.4297 106.637 11.5377 106.832 11.7331C107.028 11.9284 107.136 12.1944 107.136 12.4688V25.7313Z" fill="#5E4137"/>
<path fill-rule="evenodd" clip-rule="evenodd" d="M71.7493 42.6016C57.4102 42.6016 45.7686 54.2432 45.7686 68.5823C45.7686 82.9255 57.4102 94.5672 71.7493 94.5672C86.0925 94.5672 97.7341 82.9255 97.7341 68.5823C97.7341 54.2432 86.0925 42.6016 71.7493 42.6016ZM71.7493 48.8359C82.6511 48.8359 91.4998 57.6846 91.4998 68.5823C91.4998 79.4841 82.6511 88.3328 71.7493 88.3328C60.8516 88.3328 52.0029 79.4841 52.0029 68.5823C52.0029 57.6846 60.8516 48.8359 71.7493 48.8359Z" fill="#5E4137"/>
</svg>
