<svg width="133" height="133" viewBox="0 0 133 133" fill="none" xmlns="http://www.w3.org/2000/svg">
<g clip-path="url(#clip0_2128_2864)">
<path d="M70.7306 132.882C36.5774 135.03 9.7836 107.543 2.26569 79.1687C1.54527 76.4499 -5.83537 46.8219 10.6492 22.2288C13.6602 17.7367 21.8042 5.94741 36.4981 1.6934C51.7468 -2.72118 71.7258 1.65134 76.3197 12.9924C79.5486 20.9645 73.4639 28.1541 76.7855 31.4652C82.4889 37.1504 100.406 15.9318 114.744 20.7528C128.505 25.3799 135.46 52.8137 132.21 73.9707C127.882 102.141 103.675 130.809 70.7306 132.882Z" fill="#E6EDFF"/>
<mask id="mask0_2128_2864" style="mask-type:luminance" maskUnits="userSpaceOnUse" x="0" y="0" width="133" height="133">
<path d="M70.7306 132.882C36.5774 135.03 9.7836 107.543 2.26569 79.1687C1.54527 76.4499 -5.83537 46.8219 10.6492 22.2288C13.6602 17.7367 21.8042 5.94741 36.4981 1.6934C51.7468 -2.72118 71.7258 1.65134 76.3197 12.9924C79.5486 20.9645 73.4639 28.1541 76.7855 31.4652C82.4889 37.1504 100.406 15.9318 114.744 20.7528C128.505 25.3799 135.46 52.8137 132.21 73.9707C127.882 102.141 103.675 130.809 70.7306 132.882Z" fill="white"/>
</mask>
<g mask="url(#mask0_2128_2864)">
<path d="M0.0565534 64.0387L33.2787 63.8113C55.4232 63.6976 77.5794 63.3782 99.723 63.5271C110.797 63.6308 121.871 63.713 132.945 64.0387C132.976 64.0395 133.001 64.0656 133 64.0972C132.999 64.1273 132.975 64.1515 132.945 64.1523C121.871 64.478 110.797 64.5601 99.723 64.6639C77.5794 64.8128 55.4232 64.4934 33.2787 64.3797L0.0565534 64.1523C0.0252927 64.152 0 64.1265 0 64.0952C0.000284188 64.0639 0.0255769 64.0389 0.0565534 64.0387Z" fill="white"/>
<path d="M0.0565534 67.0855L33.2787 66.8582C55.4232 66.7445 77.5794 66.4251 99.723 66.574C110.797 66.6777 121.871 66.7598 132.945 67.0855C132.976 67.0864 133.001 67.1125 133 67.1441C132.999 67.1742 132.975 67.1983 132.945 67.1992C121.871 67.5249 110.797 67.607 99.723 67.7107C77.5794 67.8597 55.4232 67.5402 33.2787 67.4266L0.0565534 67.1992C0.0252927 67.1989 0 67.1733 0 67.1421C0.000284188 67.1108 0.0255769 67.0858 0.0565534 67.0855Z" fill="white"/>
<path d="M0.0565534 70.1324L33.2787 69.9051C55.4232 69.7914 77.5794 69.4719 99.723 69.6209C110.797 69.7246 121.871 69.8067 132.945 70.1324C132.976 70.1333 133.001 70.1594 133 70.1909C132.999 70.2211 132.975 70.2452 132.945 70.2461C121.871 70.5718 110.797 70.6539 99.723 70.7576C77.5794 70.9065 55.4232 70.5871 33.2787 70.4734L0.0565534 70.2461C0.0252927 70.2458 0 70.2202 0 70.189C0.000284188 70.158 0.0255769 70.1327 0.0565534 70.1324Z" fill="white"/>
<path d="M0.0565534 73.1793L33.2787 72.9519C55.4232 72.8383 77.5794 72.5188 99.723 72.6677C110.797 72.7715 121.871 72.8536 132.945 73.1793C132.976 73.1801 133.001 73.2063 133 73.2378C132.999 73.2679 132.975 73.2921 132.945 73.293C121.871 73.6186 110.797 73.7008 99.723 73.8045C77.5794 73.9534 55.4232 73.634 33.2787 73.5203L0.0565534 73.293C0.0252927 73.2927 0 73.2671 0 73.2358C0.000284188 73.2046 0.0255769 73.1796 0.0565534 73.1793Z" fill="white"/>
<path d="M0.0565534 76.2301L33.2787 76.0027C55.4232 75.889 77.5794 75.5696 99.723 75.7185C110.797 75.8222 121.871 75.9044 132.945 76.2301C132.976 76.2309 133.001 76.2571 133 76.2886C132.999 76.3187 132.975 76.3429 132.945 76.3437C121.871 76.6694 110.797 76.7515 99.723 76.8553C77.5794 77.0042 55.4232 76.6848 33.2787 76.5711L0.0565534 76.3437C0.0252927 76.3435 0 76.3179 0 76.2866C0.000284188 76.2554 0.0255769 76.2303 0.0565534 76.2301Z" fill="white"/>
<path d="M0.0565534 79.2769L33.2787 79.0496C55.4232 78.9359 77.5794 78.6165 99.723 78.7654C110.797 78.8691 121.871 78.9513 132.945 79.2769C132.976 79.2778 133.001 79.3039 133 79.3355C132.999 79.3656 132.975 79.3898 132.945 79.3906C121.871 79.7163 110.797 79.7984 99.723 79.9021C77.5794 80.0511 55.4232 79.7316 33.2787 79.618L0.0565534 79.3906C0.0252927 79.3903 0 79.3647 0 79.3335C0.000284188 79.3022 0.0255769 79.2769 0.0565534 79.2769Z" fill="white"/>
<path d="M0.0565534 82.3238L33.2787 82.0965C55.4232 81.9828 77.5794 81.6634 99.723 81.8123C110.797 81.916 121.871 81.9981 132.945 82.3238C132.976 82.3247 133.001 82.3508 133 82.3824C132.999 82.4125 132.975 82.4366 132.945 82.4375C121.871 82.7632 110.797 82.8453 99.723 82.949C77.5794 83.0979 55.4232 82.7785 33.2787 82.6648L0.0565534 82.4375C0.0252927 82.4372 0 82.4116 0 82.3804C0.000284188 82.3491 0.0255769 82.3241 0.0565534 82.3238Z" fill="white"/>
<path d="M0.0565534 85.3707L33.2787 85.1433C55.4232 85.0297 77.5794 84.7102 99.723 84.8591C110.797 84.9629 121.871 85.045 132.945 85.3707C132.976 85.3715 133.001 85.3977 133 85.4292C132.999 85.4594 132.975 85.4835 132.945 85.4844C121.871 85.81 110.797 85.8922 99.723 85.9959C77.5794 86.1448 55.4232 85.8254 33.2787 85.7117L0.0565534 85.4844C0.0252927 85.4841 0 85.4585 0 85.4272C0.000284188 85.396 0.0255769 85.371 0.0565534 85.3707Z" fill="white"/>
<path d="M0.0565534 88.4176L33.2787 88.1902C55.4232 88.0765 77.5794 87.7571 99.723 87.906C110.797 88.0097 121.871 88.0919 132.945 88.4176C132.976 88.4184 133.001 88.4446 133 88.4761C132.999 88.5062 132.975 88.5304 132.945 88.5312C121.871 88.8569 110.797 88.939 99.723 89.0428C77.5794 89.1917 55.4232 88.8723 33.2787 88.7586L0.0565534 88.5312C0.0252927 88.5309 0 88.5054 0 88.4741C0.000284188 88.4428 0.0255769 88.4176 0.0565534 88.4176Z" fill="white"/>
<path d="M0.0565534 91.4683L33.2787 91.241C55.4232 91.1273 77.5794 90.8079 99.723 90.9568C110.797 91.0605 121.871 91.1427 132.945 91.4683C132.976 91.4692 133.001 91.4953 133 91.5269C132.999 91.557 132.975 91.5812 132.945 91.582C121.871 91.9077 110.797 91.9898 99.723 92.0936C77.5794 92.2425 55.4232 91.923 33.2787 91.8094L0.0565534 91.582C0.0252927 91.5817 0 91.5562 0 91.5249C0.000284188 91.4936 0.0255769 91.4686 0.0565534 91.4683Z" fill="white"/>
<path d="M0.0565558 94.5113L33.2787 94.284C55.4232 94.1703 77.5794 93.8509 99.723 93.9998C110.797 94.1035 121.871 94.1856 132.945 94.5113C132.976 94.5122 133.001 94.5383 133 94.5699C132.999 94.6 132.975 94.6241 132.945 94.625C121.871 94.9507 110.797 95.0328 99.723 95.1365C77.5794 95.2854 55.4232 94.966 33.2787 94.8523L0.0565558 94.625C0.0250109 94.6247 -0.000281817 94.5991 2.37156e-06 94.5679C0.00028656 94.5366 0.0255793 94.5116 0.0565558 94.5113Z" fill="white"/>
<path d="M0.0565534 97.5582L33.2787 97.3308C55.4232 97.2172 77.5794 96.8977 99.723 97.0466C110.797 97.1504 121.871 97.2325 132.945 97.5582C132.976 97.559 133.001 97.5852 133 97.6167C132.999 97.6468 132.975 97.671 132.945 97.6719C121.871 97.9975 110.797 98.0797 99.723 98.1834C77.5794 98.3323 55.4232 98.0129 33.2787 97.8992L0.0565534 97.6719C0.0252927 97.6716 0 97.646 0 97.6147C0.000284188 97.5835 0.0255769 97.5585 0.0565534 97.5582Z" fill="white"/>
<path d="M0.0565534 100.605L33.2787 100.378C55.4232 100.264 77.5794 99.9446 99.723 100.094C110.797 100.197 121.871 100.279 132.945 100.605C132.976 100.606 133.001 100.632 133 100.664C132.999 100.694 132.975 100.718 132.945 100.719C121.871 101.044 110.797 101.127 99.723 101.23C77.5794 101.379 55.4232 101.06 33.2787 100.946L0.0565534 100.719C0.0252927 100.718 0 100.693 0 100.662C0.000284188 100.631 0.0255769 100.605 0.0565534 100.605Z" fill="white"/>
<path d="M0.0565534 103.656L33.2787 103.428C55.4232 103.315 77.5794 102.995 99.723 103.144C110.797 103.248 121.871 103.33 132.945 103.656C132.976 103.657 133.001 103.683 133 103.714C132.999 103.745 132.975 103.769 132.945 103.77C121.871 104.095 110.797 104.177 99.723 104.281C77.5794 104.43 55.4232 104.111 33.2787 103.997L0.0565534 103.77C0.0252927 103.769 0 103.744 0 103.712C0.000284188 103.681 0.0255769 103.656 0.0565534 103.656Z" fill="white"/>
<path d="M0.0565534 106.703L33.2787 106.475C55.4232 106.362 77.5794 106.042 99.723 106.191C110.797 106.295 121.871 106.377 132.945 106.703C132.976 106.704 133.001 106.73 133 106.761C132.999 106.791 132.975 106.816 132.945 106.816C121.871 107.142 110.797 107.224 99.723 107.328C77.5794 107.477 55.4232 107.157 33.2787 107.044L0.0565534 106.816C0.0252927 106.816 0 106.791 0 106.759C0.000284188 106.728 0.0255769 106.703 0.0565534 106.703Z" fill="white"/>
<path d="M0.0565534 109.75L33.2787 109.522C55.4232 109.409 77.5794 109.089 99.723 109.238C110.797 109.342 121.871 109.424 132.945 109.75C132.976 109.75 133.001 109.777 133 109.808C132.999 109.838 132.975 109.862 132.945 109.863C121.871 110.189 110.797 110.271 99.723 110.375C77.5794 110.524 55.4232 110.204 33.2787 110.091L0.0565534 109.863C0.0252927 109.863 0 109.837 0 109.806C0.000284188 109.775 0.0255769 109.75 0.0565534 109.75Z" fill="white"/>
<path d="M0.0565534 112.652L33.2787 112.425C55.4232 112.311 77.5794 111.991 99.723 112.14C110.797 112.244 121.871 112.326 132.945 112.652C132.976 112.653 133.001 112.679 133 112.71C132.999 112.741 132.975 112.765 132.945 112.766C121.871 113.091 110.797 113.173 99.723 113.277C77.5794 113.426 55.4232 113.107 33.2787 112.993L0.0565534 112.766C0.0252927 112.765 0 112.74 0 112.708C0.000284188 112.678 0.0255769 112.652 0.0565534 112.652Z" fill="white"/>
<path d="M0.0565534 115.562L33.2787 115.335C55.4232 115.221 77.5794 114.902 99.723 115.051C110.797 115.154 121.871 115.236 132.945 115.562C132.976 115.563 133.001 115.589 133 115.621C132.999 115.651 132.975 115.675 132.945 115.676C121.871 116.001 110.797 116.084 99.723 116.187C77.5794 116.336 55.4232 116.017 33.2787 115.903L0.0565534 115.676C0.0252927 115.675 0 115.65 0 115.619C0.000284188 115.588 0.0255769 115.562 0.0565534 115.562Z" fill="white"/>
<path d="M0.0565534 118.468L33.2787 118.241C55.4232 118.127 77.5794 117.808 99.723 117.957C110.797 118.061 121.871 118.143 132.945 118.468C132.976 118.469 133.001 118.495 133 118.527C132.999 118.557 132.975 118.581 132.945 118.582C121.871 118.908 110.797 118.99 99.723 119.094C77.5794 119.242 55.4232 118.923 33.2787 118.809L0.0565534 118.582C0.0252927 118.582 0 118.556 0 118.525C0.000284188 118.494 0.0255769 118.469 0.0565534 118.468Z" fill="white"/>
<path d="M0.0565534 121.371L33.2787 121.143C55.4232 121.03 77.5794 120.71 99.723 120.859C110.797 120.963 121.871 121.045 132.945 121.371C132.976 121.372 133.001 121.398 133 121.429C132.999 121.459 132.975 121.484 132.945 121.484C121.871 121.81 110.797 121.892 99.723 121.996C77.5794 122.145 55.4232 121.825 33.2787 121.712L0.0565534 121.484C0.0252927 121.484 0 121.459 0 121.427C0.000284188 121.396 0.0255769 121.371 0.0565534 121.371Z" fill="white"/>
<path d="M0.0565534 124.277L33.2787 124.05C55.4232 123.936 77.5794 123.616 99.723 123.765C110.797 123.869 121.871 123.951 132.945 124.277C132.976 124.278 133.001 124.304 133 124.335C132.999 124.366 132.975 124.39 132.945 124.391C121.871 124.716 110.797 124.798 99.723 124.902C77.5794 125.051 55.4232 124.732 33.2787 124.618L0.0565534 124.391C0.0252927 124.39 0 124.365 0 124.333C0.000284188 124.302 0.0255769 124.277 0.0565534 124.277Z" fill="white"/>
<path d="M0.0565534 126.89L33.2787 126.663C55.4232 126.549 77.5794 126.23 99.723 126.379C110.797 126.482 121.871 126.565 132.945 126.89C132.976 126.891 133.001 126.917 133 126.949C132.999 126.979 132.975 127.003 132.945 127.004C121.871 127.33 110.797 127.412 99.723 127.515C77.5794 127.664 55.4232 127.345 33.2787 127.231L0.0565534 127.004C0.0252927 127.004 0 126.978 0 126.947C0.000284188 126.916 0.0255769 126.89 0.0565534 126.89Z" fill="white"/>
<path d="M0.0565534 129.796L33.2787 129.569C55.4232 129.455 77.5794 129.136 99.723 129.285C110.797 129.389 121.871 129.471 132.945 129.796C132.976 129.797 133.001 129.823 133 129.855C132.999 129.885 132.975 129.909 132.945 129.91C121.871 130.236 110.797 130.318 99.723 130.422C88.6491 130.496 77.5748 130.369 66.5009 130.308L33.2787 130.137L0.0565534 129.91C0.0252927 129.91 0 129.884 0 129.853C0.000284188 129.822 0.0255769 129.797 0.0565534 129.796Z" fill="white"/>
<path d="M0.0565534 60.9918L33.2787 60.7644C55.4232 60.6508 77.5794 60.3313 99.723 60.4802C110.797 60.584 121.871 60.6661 132.945 60.9918C132.976 60.9926 133.001 61.0188 133 61.0503C132.999 61.0804 132.975 61.1046 132.945 61.1055C121.871 61.4311 110.797 61.5133 99.723 61.617C77.5794 61.7659 55.4232 61.4465 33.2787 61.3328L0.0565534 61.1055C0.0252927 61.1052 0 61.0796 0 61.0483C0.000284188 61.0174 0.0255769 60.9921 0.0565534 60.9918Z" fill="white"/>
<path d="M0.0565534 57.9488L33.2787 57.7215C55.4232 57.6078 77.5794 57.2884 99.723 57.4373C110.797 57.541 121.871 57.6231 132.945 57.9488C132.976 57.9497 133.001 57.9758 133 58.0074C132.999 58.0375 132.975 58.0616 132.945 58.0625C121.871 58.3882 110.797 58.4703 99.723 58.574C77.5794 58.7229 55.4232 58.4035 33.2787 58.2898L0.0565534 58.0625C0.0252927 58.0622 0 58.0366 0 58.0054C0.000284188 57.9741 0.0255769 57.9488 0.0565534 57.9488Z" fill="white"/>
<path d="M0.0565534 54.898L33.2787 54.6707C55.4232 54.557 77.5794 54.2376 99.723 54.3865C110.797 54.4902 121.871 54.5723 132.945 54.898C132.976 54.8989 133.001 54.925 133 54.9566C132.999 54.9867 132.975 55.0108 132.945 55.0117C121.871 55.3374 110.797 55.4195 99.723 55.5232C77.5794 55.6722 55.4232 55.3527 33.2787 55.2391L0.0565534 55.0117C0.0252927 55.0114 0 54.9858 0 54.9546C0.000284188 54.9233 0.0255769 54.8983 0.0565534 54.898Z" fill="white"/>
<path d="M0.0565534 51.8511L33.2787 51.6238C55.4232 51.5101 77.5794 51.1907 99.723 51.3396C110.797 51.4433 121.871 51.5255 132.945 51.8511C132.976 51.852 133.001 51.8781 133 51.9097C132.999 51.9398 132.975 51.964 132.945 51.9648C121.871 52.2905 110.797 52.3726 99.723 52.4764C77.5794 52.6253 55.4232 52.3059 33.2787 52.1922L0.0565534 51.9648C0.0252927 51.9645 0 51.939 0 51.9077C0.000284188 51.8764 0.0255769 51.8514 0.0565534 51.8511Z" fill="white"/>
<path d="M0.0565534 48.8004L33.2787 48.573C55.4232 48.4593 77.5794 48.1399 99.723 48.2888C110.797 48.3926 121.871 48.4747 132.945 48.8004C132.976 48.8012 133.001 48.8274 133 48.8589C132.999 48.889 132.975 48.9132 132.945 48.914C121.871 49.2397 110.797 49.3219 99.723 49.4256C77.5794 49.5745 55.4232 49.2551 33.2787 49.1414L0.0565534 48.914C0.0252927 48.9138 0 48.8882 0 48.8569C0.000284188 48.8257 0.0255769 48.8004 0.0565534 48.8004Z" fill="white"/>
<path d="M0.0565534 45.7535L33.2787 45.5261C55.4232 45.4125 77.5794 45.093 99.723 45.242C110.797 45.3457 121.871 45.4278 132.945 45.7535C132.976 45.7543 133.001 45.7805 133 45.812C132.999 45.8422 132.975 45.8663 132.945 45.8672C121.871 46.1928 110.797 46.275 99.723 46.3787C77.5794 46.5276 55.4232 46.2082 33.2787 46.0945L0.0565534 45.8672C0.0252927 45.8669 0 45.8413 0 45.8101C0.000284188 45.7788 0.0255769 45.7538 0.0565534 45.7535Z" fill="white"/>
<path d="M0.0565534 42.7105L33.2787 42.4832C55.4232 42.3695 77.5794 42.0501 99.723 42.199C110.797 42.3027 121.871 42.3848 132.945 42.7105C132.976 42.7114 133.001 42.7375 133 42.7691C132.999 42.7992 132.975 42.8233 132.945 42.8242C121.871 43.1499 110.797 43.232 99.723 43.3357C77.5794 43.4847 55.4232 43.1652 33.2787 43.0516L0.0565534 42.8242C0.0252927 42.8239 0 42.7983 0 42.7671C0.000284188 42.7358 0.0255769 42.7108 0.0565534 42.7105Z" fill="white"/>
<path d="M0.0565534 39.6637L33.2787 39.4363C55.4232 39.3226 77.5794 39.0032 99.723 39.1521C110.797 39.2558 121.871 39.338 132.945 39.6637C132.976 39.6645 133.001 39.6906 133 39.7222C132.999 39.7523 132.975 39.7765 132.945 39.7773C121.871 40.103 110.797 40.1851 99.723 40.2889C77.5794 40.4378 55.4232 40.1184 33.2787 40.0047L0.0565534 39.7773C0.0252927 39.777 0 39.7515 0 39.7202C0.000284188 39.6892 0.0255769 39.6639 0.0565534 39.6637Z" fill="white"/>
<path d="M0.0565534 36.6168L33.2787 36.3894C55.4232 36.2758 77.5794 35.9563 99.723 36.1052C110.797 36.209 121.871 36.2911 132.945 36.6168C132.976 36.6176 133.001 36.6438 133 36.6753C132.999 36.7054 132.975 36.7296 132.945 36.7305C121.871 37.0561 110.797 37.1383 99.723 37.242C77.5794 37.3909 55.4232 37.0715 33.2787 36.9578L0.0565534 36.7305C0.0252927 36.7302 0 36.7046 0 36.6733C0.000284188 36.6421 0.0255769 36.6171 0.0565534 36.6168Z" fill="white"/>
<path d="M0.0565534 33.5699L33.2787 33.3426C55.4232 33.2289 77.5794 32.9094 99.723 33.0584C110.797 33.1621 121.871 33.2442 132.945 33.5699C132.976 33.5708 133.001 33.5969 133 33.6284C132.999 33.6586 132.975 33.6827 132.945 33.6836C121.871 34.0093 110.797 34.0914 99.723 34.1951C77.5794 34.344 55.4232 34.0246 33.2787 33.9109L0.0565534 33.6836C0.0252927 33.6833 0 33.6577 0 33.6265C0.000284188 33.5952 0.0255769 33.5702 0.0565534 33.5699Z" fill="white"/>
<path d="M0.0565534 30.5191L33.2787 30.2918C55.4232 30.1781 77.5794 29.8587 99.723 30.0076C110.797 30.1113 121.871 30.1934 132.945 30.5191C132.976 30.52 133.001 30.5461 133 30.5777C132.999 30.6078 132.975 30.6319 132.945 30.6328C121.871 30.9585 110.797 31.0406 99.723 31.1443C77.5794 31.2932 55.4232 30.9738 33.2787 30.8601L0.0565534 30.6328C0.0252927 30.6325 0 30.6069 0 30.5757C0.000284188 30.5447 0.0255769 30.5194 0.0565534 30.5191Z" fill="white"/>
<path d="M0.0565558 27.4762L33.2787 27.2488C55.4232 27.1351 77.5794 26.8157 99.723 26.9646C110.797 27.0683 121.871 27.1505 132.945 27.4762C132.976 27.477 133.001 27.5031 133 27.5347C132.999 27.5648 132.975 27.589 132.945 27.5898C121.871 27.9155 110.797 27.9976 99.723 28.1014C77.5794 28.2503 55.4232 27.9309 33.2787 27.8172L0.0565558 27.5898C0.0250109 27.5895 -0.000281817 27.564 2.37156e-06 27.5324C0.00028656 27.5014 0.0255793 27.4764 0.0565558 27.4762Z" fill="white"/>
<path d="M0.0565558 24.4254L33.2787 24.198C55.4232 24.0843 77.5794 23.7649 99.723 23.9138C110.797 24.0176 121.871 24.0997 132.945 24.4254C132.976 24.4262 133.001 24.4524 133 24.4839C132.999 24.514 132.975 24.5382 132.945 24.539C121.871 24.8647 110.797 24.9469 99.723 25.0506C77.5794 25.1995 55.4232 24.8801 33.2787 24.7664L0.0565558 24.539C0.0250109 24.5388 -0.000281817 24.5132 2.37156e-06 24.4819C0.00028656 24.4507 0.0255793 24.4257 0.0565558 24.4254Z" fill="white"/>
<path d="M0.0565558 21.3785L33.2787 21.1511C55.4232 21.0375 77.5794 20.718 99.723 20.867C110.797 20.9707 121.871 21.0528 132.945 21.3785C132.976 21.3793 133.001 21.4055 133 21.437C132.999 21.4672 132.975 21.4913 132.945 21.4922C121.871 21.8178 110.797 21.9 99.723 22.0037C77.5794 22.1526 55.4232 21.8332 33.2787 21.7195L0.0565558 21.4922C0.0250109 21.4922 -0.000281817 21.4663 2.37156e-06 21.435C0.00028656 21.4038 0.0255793 21.3788 0.0565558 21.3785Z" fill="white"/>
<path d="M0.0565558 18.3316L33.2787 18.1043C55.4232 17.9906 77.5794 17.6712 99.723 17.8201C110.797 17.9238 121.871 18.0059 132.945 18.3316C132.976 18.3325 133.001 18.3586 133 18.3902C132.999 18.4203 132.975 18.4444 132.945 18.4453C121.871 18.771 110.797 18.8531 99.723 18.9568C77.5794 19.1057 55.4232 18.7863 33.2787 18.6726L0.0565558 18.4453C0.0250109 18.445 -0.000281817 18.4194 2.37156e-06 18.3879C0.00028656 18.3569 0.0255793 18.3316 0.0565558 18.3316Z" fill="white"/>
<path d="M0.0565558 15.2847L33.2787 15.0574C55.4232 14.9437 77.5794 14.6243 99.723 14.7732C110.797 14.8769 121.871 14.9591 132.945 15.2847C132.976 15.2856 133.001 15.3117 133 15.3433C132.999 15.3734 132.975 15.3976 132.945 15.3984C121.871 15.7241 110.797 15.8062 99.723 15.91C77.5794 16.0589 55.4232 15.7394 33.2787 15.6258L0.0565558 15.3984C0.0250109 15.3981 -0.000281817 15.3726 2.37156e-06 15.3413C0.00028656 15.31 0.0255793 15.285 0.0565558 15.2847Z" fill="white"/>
<path d="M0.0565558 12.2379L33.2787 12.0105C55.4232 11.8968 77.5794 11.5774 99.723 11.7263C110.797 11.8301 121.871 11.9122 132.945 12.2379C132.976 12.2387 133.001 12.2649 133 12.2964C132.999 12.3265 132.975 12.3507 132.945 12.3515C121.871 12.6772 110.797 12.7594 99.723 12.8631C77.5794 13.012 55.4232 12.6926 33.2787 12.5789L0.0565558 12.3515C0.0250109 12.3513 -0.000281817 12.3257 2.37156e-06 12.2944C0.00028656 12.2632 0.0255793 12.2382 0.0565558 12.2379Z" fill="white"/>
<path d="M0.0565558 9.191L33.2787 8.96365C55.4232 8.84997 77.5794 8.53054 99.723 8.67946C110.797 8.78319 121.871 8.86532 132.945 9.191C132.976 9.19185 133.001 9.21799 133 9.24954C132.999 9.27966 132.975 9.30382 132.945 9.30467C121.871 9.63035 110.797 9.71248 99.723 9.81621C77.5794 9.96512 55.4232 9.6457 33.2787 9.53202L0.0565558 9.30467C0.0250109 9.30439 -0.000281817 9.27881 2.37156e-06 9.24726C0.00028656 9.21629 0.0255793 9.191 0.0565558 9.191Z" fill="white"/>
<path d="M0.0565558 6.14021L33.2787 5.91286C55.4232 5.79919 77.5794 5.47976 99.723 5.62868C110.797 5.7324 121.871 5.81454 132.945 6.14021C132.976 6.14107 133.001 6.16721 133 6.19876C132.999 6.22888 132.975 6.25304 132.945 6.25389C121.871 6.57957 110.797 6.6617 99.723 6.76543C77.5794 6.91434 55.4232 6.59492 33.2787 6.48124L0.0565558 6.25389C0.0250109 6.25361 -0.000281817 6.22803 2.37156e-06 6.19648C0.00028656 6.16551 0.0255793 6.1405 0.0565558 6.14021Z" fill="white"/>
<path d="M0.0565558 3.09725L33.2787 2.8699C55.4232 2.75622 77.5794 2.43679 99.723 2.58571C110.797 2.68944 121.871 2.77157 132.945 3.09725C132.976 3.0981 133.001 3.12424 133 3.15579C132.999 3.18591 132.975 3.21007 132.945 3.21092C121.871 3.5366 110.797 3.61873 99.723 3.72246C77.5794 3.87137 55.4232 3.55195 33.2787 3.43827L0.0565558 3.21092C0.0250109 3.21064 -0.000281817 3.18506 2.37156e-06 3.1538C0.00028656 3.12254 0.0255793 3.09753 0.0565558 3.09725Z" fill="white"/>
</g>
<path d="M104.399 132.432H67.8189C66.2494 132.432 64.9771 131.16 64.9771 129.59V124.475C64.9771 122.905 66.2494 121.633 67.8189 121.633H104.399V132.432Z" fill="#16DBA2"/>
<path d="M67.8189 129.59V124.475C67.8189 122.905 69.0912 121.633 70.6608 121.633H67.8189C66.2494 121.633 64.9771 122.905 64.9771 124.475V129.59C64.9771 131.16 66.2494 132.432 67.8189 132.432H70.6608C69.0912 132.432 67.8189 131.16 67.8189 129.59Z" fill="#14C679"/>
<path d="M98.3292 129.592H79.0044C78.6904 129.592 78.436 129.338 78.436 129.024V125.045C78.436 124.731 78.6904 124.477 79.0044 124.477H98.3292V129.592Z" fill="white"/>
<path d="M71.0469 129.135C72.1456 129.135 73.0362 128.244 73.0362 127.146C73.0362 126.047 72.1456 125.156 71.0469 125.156C69.9483 125.156 69.0576 126.047 69.0576 127.146C69.0576 128.244 69.9483 129.135 71.0469 129.135Z" fill="white"/>
<path d="M98.7155 121.635H62.1353C60.5658 121.635 59.2935 120.363 59.2935 118.793V113.678C59.2935 112.108 60.5658 110.836 62.1353 110.836H98.7155V121.635Z" fill="#FFD54F"/>
<path d="M92.6451 118.795H73.3203C73.0063 118.795 72.752 118.541 72.752 118.227V114.248C72.752 113.934 73.0063 113.68 73.3203 113.68H92.6451V118.795Z" fill="white"/>
<path d="M65.3629 118.334C66.4615 118.334 67.3522 117.443 67.3522 116.345C67.3522 115.246 66.4615 114.355 65.3629 114.355C64.2642 114.355 63.3735 115.246 63.3735 116.345C63.3735 117.443 64.2642 118.334 65.3629 118.334Z" fill="white"/>
<path d="M129.021 88.3226H9.66162V15.5705C9.66162 12.4313 12.2062 9.88672 15.3454 9.88672H123.337C126.476 9.88672 129.021 12.4313 129.021 15.5705V88.3226Z" fill="#B0BEC5"/>
<path d="M13.6406 88.3206V15.5684C13.6406 14.628 14.4054 13.8633 15.3458 13.8633H123.337C124.278 13.8633 125.042 14.628 125.042 15.5684V88.3206H13.6406Z" fill="white"/>
<path d="M126.747 99.972H11.9347C8.7956 99.972 6.25098 97.4274 6.25098 94.2883V88.3203H132.43V94.2883C132.43 97.4271 129.886 99.972 126.747 99.972Z" fill="#78909C"/>
<path d="M117.038 74.0273L120.78 88.3229H109.696L107.139 77.1534L117.038 74.0273Z" fill="#FFC1B0"/>
<path d="M122.769 74.7397C122.769 74.7397 121.082 53.0726 115.789 46.2527C112.252 42.8828 107.499 41.2484 102.639 41.3001L94.7944 40.5158C86.5345 39.6899 75.3625 42.6963 70.4463 49.9664L60.2002 65.1191L69.8626 76.7764L76.7112 66.8904C76.9488 68.1698 77.1929 69.4512 77.441 70.7139C79.6199 81.7972 74.8833 88.3247 74.8833 88.3247H110.217C109.776 86.9126 109.488 85.3402 109.322 83.6595L122.769 74.7397Z" fill="#FF6666"/>
<path d="M90.3713 40.4297C82.9142 40.8364 74.5261 43.9306 70.4463 49.9645L60.2002 65.1171L61.8294 67.0826L71.8673 52.238C75.6899 46.5849 83.2942 43.5111 90.3713 42.8109V40.4297Z" fill="#E55C5C"/>
<path d="M93.6395 44.3347C100.388 44.3347 105.86 38.8636 105.86 32.1146C105.86 25.3657 100.388 19.8945 93.6395 19.8945C86.8906 19.8945 81.4194 25.3657 81.4194 32.1146C81.4194 38.8636 86.8906 44.3347 93.6395 44.3347Z" fill="#4C4C4C"/>
<path d="M110.614 69.0798C110.662 68.7695 110.449 68.4796 110.138 68.4321C109.829 68.3858 109.538 68.5975 109.49 68.9079C108.195 77.365 108.205 83.7863 109.623 88.3276H110.845C109.479 83.9531 109.345 77.3645 110.614 69.0798Z" fill="#E55C5C"/>
<path d="M102.639 41.0163L101.402 40.8927C98.2085 37.6882 97.2553 32.3224 97.5239 27.3281L87.6719 29.9805C87.6719 29.9805 90.0918 35.4576 88.5882 40.1137C86.6025 40.3647 84.9127 40.5463 82.4429 41.527C83.0158 45.1245 84.4723 49.9231 92.3136 49.116C98.4051 48.4888 102.825 45.1862 106.214 41.417C103.995 41.0357 102.639 41.0163 102.639 41.0163Z" fill="#FFC1B0"/>
<path d="M87.6719 29.9805C87.6719 29.9805 90.0918 35.4576 88.5882 40.1137C86.6025 40.3647 84.9127 40.5463 82.4429 41.527C82.8754 44.2427 83.8132 47.6413 87.6194 48.7977C85.8906 47.2255 85.3129 44.9091 85.0006 42.948C87.4702 41.9672 89.1599 41.7856 91.1458 41.5347C92.6498 36.8788 90.2296 31.4014 90.2296 31.4014L97.4886 29.447C97.4753 28.738 97.4861 28.0295 97.5236 27.3281L87.6719 29.9805Z" fill="#FFAC99"/>
<path d="M94.5864 36.1377C94.5864 36.1377 87.008 38.2217 84.3557 28.5593C81.7033 18.8969 84.0144 14.0123 85.4924 12.7394C88.9027 9.80286 99.2281 10.2763 100.933 22.9701C102.627 35.5793 94.5864 36.1377 94.5864 36.1377Z" fill="#FFD7CC"/>
<path d="M85.4926 12.7372C85.4926 12.7372 98.8969 12.9268 98.6127 21.1682C98.3285 29.4097 98.4507 39.0399 102.023 43.0507C104.597 45.9412 101.616 57.8751 99.7501 64.3168C99.0862 66.6082 100.913 68.8504 103.292 68.6694C107.669 68.3366 113.629 66.4519 114.894 58.8766C116.943 46.603 106.712 41.3456 106.57 31.5411C106.428 21.7366 100.602 6.39044 90.5134 6.24835C80.4247 6.10625 85.4926 12.7372 85.4926 12.7372Z" fill="#4C4C4C"/>
<path d="M85.3977 8.66871C85.3977 8.66871 77.8193 6.11102 78.7668 26.5726C79.714 47.0341 67.7781 54.4506 75.8774 66.2304C77.7483 68.2863 80.6396 69.5375 83.0137 70.269C85.1093 70.9147 87.2631 69.4435 87.4186 67.2561C87.8645 60.9724 88.243 48.3871 85.2559 38.6503C84.2542 35.3852 84.3559 28.5616 84.1192 26.2881C83.5605 20.9243 89.6438 21.599 86.3927 13.6417L85.3977 8.66871Z" fill="#4C4C4C"/>
<path d="M78.7193 66.2304C70.62 54.4503 82.5559 47.0341 81.6087 26.5726C81.0525 14.5605 83.4346 10.4833 85.4966 9.16292L85.3977 8.66871C85.3977 8.66871 77.8193 6.11102 78.7668 26.5726C79.714 47.0341 67.7781 54.4506 75.8774 66.2304C77.7483 68.2863 80.6396 69.5375 83.0137 70.269C83.8429 70.5245 84.6793 70.4444 85.3994 70.1238C83.1197 69.3761 80.4719 68.1564 78.7193 66.2304Z" fill="#3F3F3F"/>
<path d="M90.9678 85.0958C91.7526 85.0958 92.3888 84.4596 92.3888 83.6748C92.3888 82.8901 91.7526 82.2539 90.9678 82.2539C90.1831 82.2539 89.5469 82.8901 89.5469 83.6748C89.5469 84.4596 90.1831 85.0958 90.9678 85.0958Z" fill="white"/>
<path d="M102.335 79.4122C103.12 79.4122 103.756 78.776 103.756 77.9913C103.756 77.2065 103.12 76.5703 102.335 76.5703C101.551 76.5703 100.915 77.2065 100.915 77.9913C100.915 78.776 101.551 79.4122 102.335 79.4122Z" fill="white"/>
<path d="M93.8101 68.0411C94.5949 68.0411 95.231 67.4049 95.231 66.6202C95.231 65.8354 94.5949 65.1992 93.8101 65.1992C93.0253 65.1992 92.3892 65.8354 92.3892 66.6202C92.3892 67.4049 93.0253 68.0411 93.8101 68.0411Z" fill="white"/>
<path d="M82.4424 76.5684C83.2272 76.5684 83.8634 75.9323 83.8634 75.1475C83.8634 74.3627 83.2272 73.7266 82.4424 73.7266C81.6577 73.7266 81.0215 74.3627 81.0215 75.1475C81.0215 75.9323 81.6577 76.5684 82.4424 76.5684Z" fill="white"/>
<path d="M69.6539 66.6192C70.4386 66.6192 71.0748 65.983 71.0748 65.1983C71.0748 64.4135 70.4386 63.7773 69.6539 63.7773C68.8691 63.7773 68.2329 64.4135 68.2329 65.1983C68.2329 65.983 68.8691 66.6192 69.6539 66.6192Z" fill="white"/>
<path d="M95.231 55.2559C96.0158 55.2559 96.6519 54.6198 96.6519 53.835C96.6519 53.0502 96.0158 52.4141 95.231 52.4141C94.4462 52.4141 93.8101 53.0502 93.8101 53.835C93.8101 54.6198 94.4462 55.2559 95.231 55.2559Z" fill="white"/>
<path d="M115.124 72.3067C115.909 72.3067 116.545 71.6705 116.545 70.8858C116.545 70.101 115.909 69.4648 115.124 69.4648C114.339 69.4648 113.703 70.101 113.703 70.8858C113.703 71.6705 114.339 72.3067 115.124 72.3067Z" fill="white"/>
<path d="M64.3151 36.2242C65.0827 37.5193 65.6823 39.3023 65.6471 41.6971L65.9676 41.0293C66.4689 39.9855 67.9365 39.9346 68.5086 40.9415C68.7331 41.3365 68.7572 41.8142 68.5736 42.23C67.9703 43.5946 66.6417 46.5994 66.6417 46.5994L64.6524 49.9622C65.0011 57.149 65.5638 64.3657 65.5541 71.5633L69.8621 76.7608C69.8621 76.7608 61.3919 86.7171 56.6951 81.507C52.7458 77.126 57.3581 49.2991 57.3581 49.2991C55.4868 45.3739 55.2796 40.1986 57.4107 36.3549C58.9013 33.6668 62.7478 33.5799 64.3151 36.2242Z" fill="#FFC1B0"/>
<path d="M28.5155 73.4651C28.5155 73.4651 22.649 65.2267 19.8031 68.9294C16.8212 72.8097 28.5155 78.0004 28.5155 78.0004V73.4651Z" fill="#FFD7CC"/>
<path d="M41.4829 73.4651C41.4829 73.4651 47.3494 65.2267 50.1953 68.9294C53.1773 72.8097 41.4829 78.0004 41.4829 78.0004V73.4651Z" fill="#FFD7CC"/>
<path d="M57.8782 120.024L52.448 108.203L61.2601 105.977C61.2601 105.977 63.2733 110.239 63.9357 111.577C72.1087 128.073 62.4215 128.265 58.9729 127.659C56.5167 127.227 45.3813 123.443 45.3813 123.443V118.389L57.8782 120.024Z" fill="#FFC1B0"/>
<path d="M5.4649 73.1806C5.4649 73.1806 5.85111 82.8783 6.62921 91.0967L13.6126 91.4278C13.4858 90.5545 13.8447 88.8144 13.4793 86.8938L12.0569 72.8575L13.4102 69.6072L14.5862 65.4666C14.6982 65.0725 14.6166 64.6487 14.3668 64.3242C13.7299 63.4975 12.4267 63.7268 12.1103 64.7212L11.908 65.3575C11.1847 59.5979 7.13052 59.8852 7.13052 59.8852C5.0551 60.1446 3.09789 62.7793 3.26983 66.4556C3.47132 70.7656 5.4649 73.1806 5.4649 73.1806Z" fill="#FFC1B0"/>
<path d="M49.9246 89.8658C41.9375 84.4304 27.382 84.6529 19.1644 91.3302C17.563 92.6315 16.3893 94.3844 15.7405 96.3433L13.8282 84.4219L6.01074 86.979L6.70928 101.47C6.88178 105.049 10.2827 107.577 13.7597 106.712L18.4639 105.54V129.593H51.312V106.501L55.0605 113.891L62.4226 108.237C59.1011 101.553 56.1645 94.1121 49.9246 89.8658Z" fill="#6184F2"/>
<path d="M9.55116 101.472L8.7955 86.0703L6.01074 86.9811L6.70928 101.472C6.88178 105.051 10.2827 107.579 13.7597 106.714L13.8046 106.702C11.4924 106.101 9.67592 104.063 9.55116 101.472Z" fill="#6262EF"/>
<path d="M18.4634 106.246V129.592H21.3053V105.539L18.4634 106.246Z" fill="#6262EF"/>
<path d="M51.3115 129.596H28.5156L51.3115 110.344V129.596Z" fill="#85A6F9"/>
<path d="M29.7131 85.2839V71.9023H40.1764V84.9409C40.1764 85.7659 40.7686 86.4633 41.5788 86.6185C42.5559 86.8057 43.5105 87.0402 44.4315 87.3241C42.5081 90.5536 38.987 92.7208 34.9553 92.7208C31.0957 92.7208 27.7056 90.7338 25.7354 87.7313C26.6001 87.425 27.4885 87.1644 28.3919 86.945C29.1635 86.758 29.7131 86.0776 29.7131 85.2839Z" fill="#FFCDBD"/>
<path d="M48.0033 57.6544C48.0033 55.4571 46.222 53.6758 44.0247 53.6758H31.1069C26.7177 53.6758 23.1593 57.2341 23.1593 61.6234C23.1593 62.2108 23.225 62.7829 23.346 63.3342C22.5679 65.1772 22.1309 67.235 22.1309 69.407C22.1309 77.289 27.859 83.6786 34.9253 83.6786C41.9913 83.6786 47.7197 77.289 47.7197 69.407C47.7197 67.2591 47.2917 65.2238 46.5298 63.3967C47.4682 61.6936 48.0033 59.7369 48.0033 57.6544Z" fill="#4C4C4C"/>
<path d="M24.9727 69.407C24.9727 67.2347 25.4098 65.1772 26.1879 63.3342C26.0669 62.7829 26.0012 62.2111 26.0012 61.6234C26.0012 57.2341 29.5595 53.6758 33.9488 53.6758H31.1069C26.7177 53.6758 23.1593 57.2341 23.1593 61.6234C23.1593 62.2108 23.225 62.7829 23.346 63.3342C22.5679 65.1772 22.1309 67.235 22.1309 69.407C22.1309 77.289 27.859 83.6786 34.9253 83.6786C35.4059 83.6786 35.8796 83.6465 36.3462 83.5889C29.9492 82.8002 24.9727 76.7533 24.9727 69.407Z" fill="#3F3F3F"/>
<path d="M56.2692 0H18.188C17.2462 0 16.4829 0.763329 16.4829 1.70513V19.4507C16.4829 20.3925 17.2462 21.1558 18.188 21.1558H45.7921L51.8274 26.0106L51.8495 21.1558H56.2692C57.211 21.1558 57.9744 20.3925 57.9744 19.4507V1.70513C57.9744 0.763329 57.211 0 56.2692 0Z" fill="#16DBA2"/>
<path d="M21.0299 0H18.188C17.2462 0 16.4829 0.763329 16.4829 1.70513V19.4507C16.4829 20.3925 17.2462 21.1558 18.188 21.1558H21.0299C20.0881 21.1558 19.3248 20.3925 19.3248 19.4507V1.70513C19.3248 0.763329 20.0881 0 21.0299 0Z" fill="#14C679"/>
<path d="M50.7844 6.84378H23.6729C23.3591 6.84378 23.1045 6.58915 23.1045 6.27541C23.1045 5.96166 23.3591 5.70703 23.6729 5.70703H50.7844C51.0982 5.70703 51.3528 5.96166 51.3528 6.27541C51.3528 6.58915 51.0982 6.84378 50.7844 6.84378Z" fill="white"/>
<path d="M41.7646 14.8633H23.6729C23.3591 14.8633 23.1045 14.6087 23.1045 14.2949C23.1045 13.9812 23.3591 13.7266 23.6729 13.7266H41.7646C42.0783 13.7266 42.3329 13.9812 42.3329 14.2949C42.3329 14.6087 42.0783 14.8633 41.7646 14.8633Z" fill="white"/>
<path d="M34.1026 28.4141H1.70513C0.763329 28.4141 0 29.1774 0 30.1192V45.5912C0 46.533 0.763329 47.2964 1.70513 47.2964H23.6254L29.6607 52.1512L29.6829 47.2964H34.1026C35.0444 47.2964 35.8077 46.533 35.8077 45.5912V30.1192C35.8077 29.1774 35.0444 28.4141 34.1026 28.4141Z" fill="#FFD54F"/>
<path d="M4.54701 28.4141H1.70513C0.763329 28.4141 0 29.1774 0 30.1192V45.5912C0 46.533 0.763329 47.2964 1.70513 47.2964H4.54701C3.60521 47.2964 2.84188 46.533 2.84188 45.5912V30.1192C2.84188 29.1774 3.60521 28.4141 4.54701 28.4141Z" fill="#FF9852"/>
<path d="M27.1143 34.6914H5.68654C5.3728 34.6914 5.11816 34.4368 5.11816 34.1231C5.11816 33.8093 5.3728 33.5547 5.68654 33.5547H27.1143C27.4281 33.5547 27.6827 33.8093 27.6827 34.1231C27.6827 34.4368 27.4283 34.6914 27.1143 34.6914Z" fill="white"/>
<path d="M18.0945 41.5782H5.68654C5.3728 41.5782 5.11816 41.3235 5.11816 41.0098C5.11816 40.696 5.3728 40.4414 5.68654 40.4414H18.0945C18.4082 40.4414 18.6629 40.696 18.6629 41.0098C18.6629 41.3235 18.4082 41.5782 18.0945 41.5782Z" fill="white"/>
<path d="M114.442 121.178L121.123 127.713L118.803 118.659C116.893 111.202 113.036 104.369 107.553 98.9652C105.499 96.9401 103.669 95.5658 102.84 96.0449C102.01 96.524 102.285 98.7953 103.011 101.587C104.95 109.037 108.939 115.795 114.442 121.178Z" fill="#BCBCBC"/>
<path d="M119.047 124.681C118.85 124.681 118.659 124.579 118.554 124.397L106.016 102.681C105.859 102.409 105.952 102.061 106.224 101.904C106.496 101.747 106.844 101.84 107.001 102.112L119.538 123.828C119.695 124.1 119.602 124.448 119.33 124.605C119.241 124.656 119.143 124.681 119.047 124.681Z" fill="#AAAAAA"/>
<path d="M120.887 121.178L114.206 127.713L116.526 118.659C118.436 111.202 122.293 104.369 127.776 98.9652C129.83 96.9401 131.66 95.5658 132.49 96.0449C133.32 96.524 133.044 98.7953 132.318 101.587C130.379 109.037 126.39 115.795 120.887 121.178Z" fill="#BCBCBC"/>
<path d="M116.283 124.681C116.187 124.681 116.089 124.656 116 124.605C115.728 124.448 115.635 124.1 115.792 123.828L128.329 102.112C128.486 101.84 128.834 101.747 129.106 101.904C129.378 102.062 129.471 102.409 129.314 102.681L116.776 124.397C116.671 124.579 116.48 124.681 116.283 124.681Z" fill="#AAAAAA"/>
<path d="M115.147 118.317L117.665 127.318L120.183 118.317C122.257 110.904 122.333 103.057 120.287 95.636C119.521 92.8547 118.624 90.75 117.665 90.75C116.707 90.75 115.81 92.8547 115.043 95.636C112.996 103.057 113.073 110.904 115.147 118.317Z" fill="#D6D6D6"/>
<path d="M117.665 123.732C117.351 123.732 117.097 123.477 117.097 123.163V98.0879C117.097 97.7742 117.351 97.5195 117.665 97.5195C117.979 97.5195 118.233 97.7742 118.233 98.0879V123.163C118.233 123.477 117.979 123.732 117.665 123.732Z" fill="#BCBCBC"/>
<path d="M114.026 132.996H121.303C122.657 132.996 123.824 132.04 124.09 130.712L126.474 118.797H108.854L111.239 130.712C111.505 132.04 112.671 132.996 114.026 132.996Z" fill="#FF669D"/>
<path d="M114.081 130.712L111.697 118.797H108.855L111.24 130.712C111.505 132.04 112.672 132.996 114.026 132.996H116.868C115.514 132.996 114.347 132.04 114.081 130.712Z" fill="#EF508D"/>
<path d="M127.896 119.367H107.434C107.12 119.367 106.866 119.113 106.866 118.799C106.866 118.485 107.12 118.23 107.434 118.23H127.896C128.209 118.23 128.464 118.485 128.464 118.799C128.464 119.113 128.209 119.367 127.896 119.367Z" fill="#F47DB3"/>
</g>
<defs>
<clipPath id="clip0_2128_2864">
<rect width="133" height="133" fill="white"/>
</clipPath>
</defs>
</svg>
